<?xml version="1.0" encoding="utf-8"?>
<!-- Generator: Adobe Illustrator 24.0.0, SVG Export Plug-In . SVG Version: 6.00 Build 0)  -->
<svg version="1.1" id="Layer_1" xmlns="http://www.w3.org/2000/svg" xmlns:xlink="http://www.w3.org/1999/xlink" x="0px" y="0px"
	 viewBox="0 0 196 29.7" style="enable-background:new 0 0 196 29.7;" xml:space="preserve">
<style type="text/css">
	.st0{fill:#FFFFFF;}
	.st1{fill:url(#SVGID_1_);}
	.st2{fill:url(#SVGID_2_);}
	.st3{fill:url(#SVGID_3_);}
	.st4{fill:url(#SVGID_4_);}
	.st5{fill:url(#SVGID_5_);}
	.st6{fill:url(#SVGID_6_);}
	.st7{fill:url(#SVGID_7_);}
	.st8{fill:url(#SVGID_8_);}
</style>
<g>
	<g>
		<g>
			<path class="st0" d="M43.4,21.7V8.2h4.3l2.7,8.9L53,8.2h4.4v13.6h-3.1l0.1-10.2l-2.8,10.2h-2.2l-2.9-10.2l0.1,10.2h-3.2V21.7z"/>
			<path class="st0" d="M66,18.6h3c-0.4,1.1-1.1,2-2,2.6c-0.8,0.6-1.8,1-2.9,1c-1.4,0-2.7-0.5-3.6-1.6c-1-1-1.5-2.4-1.5-3.8
				c0-1.6,0.5-2.8,1.5-3.8s2.2-1.6,3.6-1.6c1.5,0,2.7,0.5,3.7,1.6c1,1,1.5,2.4,1.5,4c0,0.3,0,0.5-0.1,0.8h-7.4
				c0.1,0.6,0.3,1,0.7,1.4s0.9,0.5,1.5,0.5c0.7,0,1.3-0.3,1.8-0.8L66,18.6z M62,15.5h4.4c-0.1-0.5-0.4-1-0.7-1.3
				c-0.4-0.3-0.9-0.5-1.5-0.5C63,13.8,62.3,14.4,62,15.5z"/>
			<path class="st0" d="M74.2,8.2v3.4h1.4v2.3h-1.4v7.9h-3v-7.9h-1.5v-2.3h1.5V8.2C71.2,8.2,74.2,8.2,74.2,8.2z"/>
			<path class="st0" d="M87.1,11.6v10.2h-2.8v-1.1c-0.4,1-1.5,1.4-3,1.4s-2.7-0.5-3.6-1.6c-0.9-1.1-1.4-2.3-1.4-3.9s0.4-2.9,1.4-3.9
				s2.1-1.6,3.6-1.6s2.4,0.4,3,1.4v-1h2.8V11.6z M81.7,14.1c-0.7,0-1.3,0.2-1.8,0.7c-0.4,0.5-0.7,1.1-0.7,1.8c0,0.7,0.2,1.3,0.7,1.8
				c0.4,0.5,1,0.7,1.8,0.7c0.7,0,1.3-0.2,1.8-0.7c0.4-0.5,0.7-1.1,0.7-1.8c0-0.7-0.2-1.3-0.7-1.8C83,14.3,82.4,14.1,81.7,14.1z"/>
		</g>
		<g>
			<path class="st0" d="M94.6,21.7V8.2h3.3v13.6h-3.3V21.7z"/>
			<path class="st0" d="M100,21.7V11.6h2.8v1.1c0.7-1,1.6-1.4,2.7-1.4s2,0.4,2.7,1c0.4,0.4,0.6,0.8,0.7,1.3c0.1,0.4,0.2,1.1,0.2,1.9
				v6.3h-3v-5.5c0-0.7-0.1-1.2-0.3-1.5c-0.3-0.4-0.7-0.6-1.3-0.6c-0.7,0-1.3,0.3-1.6,1c-0.1,0.2-0.1,0.5-0.1,1v5.7L100,21.7
				L100,21.7z"/>
			<path class="st0" d="M114,11.6v10c0,1.5-0.3,2.5-0.8,3.1s-1.5,0.9-2.9,0.9h-0.7v-2.3h0.4c0.4,0,0.7-0.1,0.8-0.4
				c0.1-0.2,0.2-0.6,0.2-1.2V11.6H114z M114,8.2v2.3h-3V8.2H114z"/>
			<path class="st0" d="M122.6,18.6h3c-0.4,1.1-1.1,2-2,2.6c-0.8,0.6-1.8,1-2.9,1c-1.4,0-2.7-0.5-3.6-1.6c-1-1-1.5-2.4-1.5-3.8
				c0-1.6,0.5-2.8,1.5-3.8s2.2-1.6,3.6-1.6c1.5,0,2.7,0.5,3.7,1.6c1,1,1.5,2.4,1.5,4c0,0.3,0,0.5-0.1,0.8h-7.4
				c0.1,0.6,0.3,1,0.7,1.4c0.4,0.4,0.9,0.5,1.5,0.5c0.7,0,1.3-0.3,1.8-0.8L122.6,18.6z M118.5,15.5h4.4c-0.1-0.5-0.4-1-0.7-1.3
				c-0.4-0.3-0.9-0.5-1.5-0.5C119.5,13.8,118.8,14.4,118.5,15.5z"/>
			<path class="st0" d="M134.5,17.9h3c-0.3,1.3-1,2.3-1.8,3c-1,0.8-2.1,1.2-3.3,1.2c-1.5,0-2.7-0.5-3.8-1.6c-1-1-1.6-2.4-1.6-3.8
				c0-1.6,0.5-2.8,1.5-3.8c1-1,2.2-1.6,3.7-1.6c1.3,0,2.4,0.4,3.4,1.2s1.6,1.8,1.8,3.1h-3c-0.4-1-1.1-1.4-2.1-1.4
				c-0.7,0-1.3,0.2-1.7,0.7s-0.7,1.1-0.7,1.8c0,0.7,0.2,1.3,0.7,1.8c0.4,0.4,1,0.7,1.7,0.7C133.1,19.2,133.9,18.8,134.5,17.9z"/>
			<path class="st0" d="M142.2,8.2v3.4h1.4v2.3h-1.4v7.9h-3v-7.9h-1.5v-2.3h1.5V8.2C139.2,8.2,142.2,8.2,142.2,8.2z"/>
			<path class="st0" d="M149.6,11.2c1.8,0,3.1,0.7,4.1,1.9c0.8,1,1.2,2.2,1.2,3.5c0,1.6-0.5,2.8-1.6,3.9c-1,1-2.2,1.6-3.8,1.6
				s-2.8-0.5-3.8-1.6s-1.5-2.4-1.5-3.9s0.5-2.8,1.6-3.9C146.8,11.7,148,11.2,149.6,11.2z M149.6,14.1c-0.7,0-1.2,0.2-1.7,0.7
				c-0.4,0.5-0.7,1.1-0.7,1.8c0,0.7,0.2,1.3,0.7,1.8c0.4,0.5,1,0.7,1.7,0.7s1.3-0.2,1.7-0.7s0.7-1.1,0.7-1.8c0-0.7-0.2-1.3-0.7-1.8
				C150.8,14.3,150.3,14.1,149.6,14.1z"/>
			<path class="st0" d="M156.5,21.7V11.6h2.8v1.1c0.3-0.5,0.7-0.9,1-1.1c0.4-0.2,0.9-0.3,1.3-0.3h0.1v3c-0.8,0-1.5,0.1-1.8,0.4
				c-0.4,0.3-0.5,0.7-0.5,1.4v5.6C159.5,21.7,156.5,21.7,156.5,21.7z"/>
		</g>
	</g>
	<g>
		
			<linearGradient id="SVGID_1_" gradientUnits="userSpaceOnUse" x1="33.4266" y1="129.5907" x2="28.7823" y2="129.8722" gradientTransform="matrix(1 0 0 1 0 -112)">
			<stop  offset="0" style="stop-color:#701EFC"/>
			<stop  offset="1" style="stop-color:#CBB3F3"/>
		</linearGradient>
		<path class="st1" d="M31,16.1l2.8,2.3c0.3,0.2,0.3,0.6,0,0.8l-0.3,0.2c-0.1,0.1-0.4,0.1-0.5,0l-2.8-2.3c-0.2-0.2-0.3-0.6,0-0.8
			l0.3-0.2C30.7,15.9,30.9,15.9,31,16.1z"/>
		
			<linearGradient id="SVGID_2_" gradientUnits="userSpaceOnUse" x1="33.5091" y1="125.8782" x2="17.1949" y2="126.867" gradientTransform="matrix(1 0 0 1 0 -112)">
			<stop  offset="0" style="stop-color:#701EFC"/>
			<stop  offset="1" style="stop-color:#CBB3F3"/>
		</linearGradient>
		<path class="st2" d="M32.4,5.3c0.1-0.1,0.4-0.1,0.6,0.1l2.3,1.8L26.8,13l0,0l-1.6,1.1c-0.4,0.3-0.7,0.7-0.7,1.3v1.1
			c0,0.6,0.3,1.1,0.7,1.5l4.2,3.4c0.3,0.2,0.3,0.7,0,0.8l-1,0.7c-0.1,0.1-0.4,0.1-0.5,0l-4.2-3.4c-0.9-0.7-1.4-1.8-1.4-2.9v-1.7
			c0-1,0.6-2.1,1.3-2.6l8.3-5.7l-0.4-0.3c-0.1-0.1-0.1-0.4,0-0.4L32.4,5.3z"/>
		
			<linearGradient id="SVGID_3_" gradientUnits="userSpaceOnUse" x1="34.2915" y1="126.5515" x2="12.0617" y2="127.8987" gradientTransform="matrix(1 0 0 1 0 -112)">
			<stop  offset="0" style="stop-color:#701EFC"/>
			<stop  offset="1" style="stop-color:#CBB3F3"/>
		</linearGradient>
		<path class="st3" d="M37.5,20.2c0.2,0.3,0.2,0.7-0.1,0.8l-8.3,5.7c-0.4,0.3-1,0.2-1.5-0.1l-8.1-6.5C19.2,19.9,19,19.4,19,19v-6.5
			c0-0.7,0.3-1.2,0.7-1.6L29,4.6l-0.6-0.4c-0.1-0.1-0.1-0.3,0-0.5L29.5,3c0.1-0.1,0.2-0.1,0.3,0l2.6,2.1l-10.6,7.2
			c-0.4,0.3-0.7,0.9-0.7,1.6l0.1,3.9c0,0.4,0.2,0.8,0.5,1.1l6,4.9c0.4,0.4,1,0.4,1.5,0.1l6.9-4.7c0.2-0.1,0.4-0.1,0.7,0.1L37.5,20.2
			z"/>
		
			<linearGradient id="SVGID_4_" gradientUnits="userSpaceOnUse" x1="36.4017" y1="126.1632" x2="21.665" y2="127.0563" gradientTransform="matrix(1 0 0 1 0 -112)">
			<stop  offset="0" style="stop-color:#701EFC"/>
			<stop  offset="1" style="stop-color:#CBB3F3"/>
		</linearGradient>
		<path class="st4" d="M35.2,7.6c0.1-0.1,0.4-0.1,0.6,0.1l2.3,1.8l-8.8,6c-0.3,0.2-0.4,0.6-0.4,1v0.1c0,0.4,0.2,0.8,0.5,1l2.6,2.1
			c0.3,0.2,0.3,0.7,0,0.8l-1,0.7c-0.1,0.1-0.4,0.1-0.5-0.1l-2.9-2.2c-0.5-0.4-1.3-1.1-1.3-1.8v-1.8c0-0.7,0.8-1.2,1.3-1.5l7-4.8
			l-0.4-0.3c-0.1-0.1-0.1-0.3,0-0.4L35.2,7.6z"/>
		
			<linearGradient id="SVGID_5_" gradientUnits="userSpaceOnUse" x1="39.1539" y1="130.7054" x2="36.0866" y2="130.8913" gradientTransform="matrix(1 0 0 1 0 -112)">
			<stop  offset="0" style="stop-color:#701EFC"/>
			<stop  offset="1" style="stop-color:#CBB3F3"/>
		</linearGradient>
		<path class="st5" d="M39.4,19.4l-0.9,0.7c-0.2,0.1-0.5,0.1-0.7-0.1L37,18.9c-0.2-0.2-0.1-0.6,0.1-0.7l0.8-0.7
			c0.2-0.1,0.5-0.1,0.7,0.1l0.7,1C39.6,18.9,39.6,19.2,39.4,19.4z"/>
	</g>
	<g>
		
			<linearGradient id="SVGID_6_" gradientUnits="userSpaceOnUse" x1="166.9459" y1="26.9788" x2="166.8255" y2="17.6493" gradientTransform="matrix(1 0 0 -1 0 31.7228)">
			<stop  offset="0" style="stop-color:#701EFC"/>
			<stop  offset="1" style="stop-color:#CBB3F3"/>
		</linearGradient>
		<path class="st6" d="M164.7,11.1V5.1h1.1v6.1H164.7z M165.3,8.8V7.7h1.9c0.2,0,0.4-0.1,0.5-0.2c0.1-0.1,0.2-0.3,0.2-0.5
			s-0.1-0.4-0.2-0.5c-0.1-0.1-0.3-0.2-0.5-0.2h-1.9V5.1h1.9c0.4,0,0.7,0.1,1,0.2c0.3,0.1,0.5,0.4,0.7,0.7s0.3,0.6,0.3,1
			s-0.1,0.7-0.3,1c-0.1,0.3-0.4,0.5-0.7,0.7c-0.3,0.1-0.6,0.2-1,0.2H165.3z"/>
		
			<linearGradient id="SVGID_7_" gradientUnits="userSpaceOnUse" x1="171.3233" y1="26.9223" x2="171.2029" y2="17.5929" gradientTransform="matrix(1 0 0 -1 0 31.7228)">
			<stop  offset="0" style="stop-color:#701EFC"/>
			<stop  offset="1" style="stop-color:#CBB3F3"/>
		</linearGradient>
		<path class="st7" d="M169.7,11.1V6.8h1.2v4.3H169.7z M172.2,8c-0.1-0.1-0.1-0.1-0.2-0.1c-0.1-0.1-0.2-0.1-0.3-0.1
			c-0.2,0-0.4,0.1-0.5,0.2c-0.1,0.1-0.2,0.3-0.2,0.6l-0.1-1.1c0.1-0.3,0.3-0.5,0.5-0.6c0.2-0.1,0.4-0.2,0.6-0.2c0.2,0,0.3,0,0.5,0.1
			c0.1,0.1,0.3,0.1,0.4,0.3L172.2,8z"/>
		
			<linearGradient id="SVGID_8_" gradientUnits="userSpaceOnUse" x1="175.116" y1="26.8733" x2="174.9956" y2="17.5439" gradientTransform="matrix(1 0 0 -1 0 31.7228)">
			<stop  offset="0" style="stop-color:#701EFC"/>
			<stop  offset="1" style="stop-color:#CBB3F3"/>
		</linearGradient>
		<path class="st8" d="M175.1,11.2c-0.6,0-1.1-0.1-1.4-0.5c-0.3-0.3-0.5-0.8-0.5-1.4V8.6c0-0.6,0.1-1.1,0.5-1.4
			c0.3-0.3,0.8-0.5,1.4-0.5s1.1,0.1,1.4,0.5c0.3,0.3,0.5,0.8,0.5,1.4v0.7c0,0.6-0.1,1.1-0.5,1.4C176.1,11,175.7,11.2,175.1,11.2z
			 M175.1,10.1c0.2,0,0.4-0.1,0.5-0.2s0.2-0.3,0.2-0.6V8.5c0-0.3-0.1-0.4-0.2-0.5c-0.1-0.1-0.3-0.2-0.5-0.2s-0.4,0.1-0.5,0.2
			c-0.1,0.1-0.2,0.3-0.2,0.5v0.7c0,0.3,0.1,0.5,0.2,0.6C174.7,10,174.8,10.1,175.1,10.1z"/>
	</g>
</g>
</svg>
