<?xml version="1.0" encoding="utf-8"?>
<!-- Generator: Adobe Illustrator 24.0.0, SVG Export Plug-In . SVG Version: 6.00 Build 0)  -->
<svg version="1.1" id="Layer_1" xmlns="http://www.w3.org/2000/svg" xmlns:xlink="http://www.w3.org/1999/xlink" x="0px" y="0px"
	 viewBox="0 0 528 528" style="enable-background:new 0 0 528 528;" xml:space="preserve">
<style type="text/css">
	.st0{fill:url(#SVGID_1_);fill-opacity:6.000000e-02;}
	.st1{fill:none;stroke:url(#SVGID_2_);stroke-width:1.2308;stroke-opacity:0.15;}
	.st2{fill:url(#SVGID_3_);fill-opacity:5.000000e-02;}
	.st3{fill:none;stroke:url(#SVGID_4_);stroke-width:1.2308;stroke-opacity:0.15;}
	.st4{fill:url(#SVGID_5_);fill-opacity:4.000000e-02;}
	.st5{fill:none;stroke:url(#SVGID_6_);stroke-width:1.2308;stroke-opacity:0.15;}
	.st6{fill:url(#SVGID_7_);fill-opacity:5.000000e-02;}
	.st7{fill:none;stroke:url(#SVGID_8_);stroke-width:1.2308;stroke-opacity:0.15;}
	.st8{fill:url(#SVGID_9_);}
	.st9{fill:url(#SVGID_10_);}
	.st10{fill:url(#SVGID_11_);}
	.st11{fill:url(#SVGID_12_);}
	.st12{fill:url(#SVGID_13_);}
</style>
<linearGradient id="SVGID_1_" gradientUnits="userSpaceOnUse" x1="264" y1="527.3846" x2="264" y2="0.6154" gradientTransform="matrix(1 0 0 -1 0 528)">
	<stop  offset="0" style="stop-color:#FFFFFF;stop-opacity:0.48"/>
	<stop  offset="0.5" style="stop-color:#FFFFFF"/>
	<stop  offset="1" style="stop-color:#FFFFFF;stop-opacity:0"/>
</linearGradient>
<circle class="st0" cx="264" cy="264" r="263.4"/>
<linearGradient id="SVGID_2_" gradientUnits="userSpaceOnUse" x1="264" y1="527.3846" x2="264" y2="0.6154" gradientTransform="matrix(1 0 0 -1 0 528)">
	<stop  offset="0" style="stop-color:#FFFFFF;stop-opacity:0.4"/>
	<stop  offset="0.5052" style="stop-color:#FFFFFF"/>
	<stop  offset="1" style="stop-color:#FFFFFF;stop-opacity:0"/>
</linearGradient>
<circle class="st1" cx="264" cy="264" r="264"/>
<g>
	
		<linearGradient id="SVGID_3_" gradientUnits="userSpaceOnUse" x1="264" y1="463.6898" x2="264" y2="64.3102" gradientTransform="matrix(1 0 0 -1 0 528)">
		<stop  offset="0" style="stop-color:#FFFFFF;stop-opacity:0.48"/>
		<stop  offset="0.5" style="stop-color:#FFFFFF"/>
		<stop  offset="1" style="stop-color:#FFFFFF;stop-opacity:0"/>
	</linearGradient>
	<circle shape-rendering="crispEdges" class="st2" cx="264" cy="264" r="199.7"/>
	
		<linearGradient id="SVGID_4_" gradientUnits="userSpaceOnUse" x1="264" y1="463.6898" x2="264" y2="64.3102" gradientTransform="matrix(1 0 0 -1 0 528)">
		<stop  offset="0" style="stop-color:#FFFFFF;stop-opacity:0.4"/>
		<stop  offset="0.5052" style="stop-color:#FFFFFF"/>
		<stop  offset="1" style="stop-color:#FFFFFF;stop-opacity:0"/>
	</linearGradient>
	<circle shape-rendering="crispEdges" class="st3" cx="264" cy="264" r="200.3"/>
</g>
<g>
	
		<linearGradient id="SVGID_5_" gradientUnits="userSpaceOnUse" x1="264.0013" y1="399.9963" x2="264.0013" y2="128.0037" gradientTransform="matrix(1 0 0 -1 0 528)">
		<stop  offset="0" style="stop-color:#FFFFFF;stop-opacity:0.48"/>
		<stop  offset="0.5" style="stop-color:#FFFFFF"/>
		<stop  offset="1" style="stop-color:#FFFFFF;stop-opacity:0"/>
	</linearGradient>
	<circle shape-rendering="crispEdges" class="st4" cx="264" cy="264" r="136"/>
	
		<linearGradient id="SVGID_6_" gradientUnits="userSpaceOnUse" x1="264.0013" y1="399.9963" x2="264.0013" y2="128.0037" gradientTransform="matrix(1 0 0 -1 0 528)">
		<stop  offset="0" style="stop-color:#FFFFFF;stop-opacity:0.4"/>
		<stop  offset="0.5052" style="stop-color:#FFFFFF"/>
		<stop  offset="1" style="stop-color:#FFFFFF;stop-opacity:0"/>
	</linearGradient>
	<circle shape-rendering="crispEdges" class="st5" cx="264" cy="264" r="136.6"/>
</g>
<g>
	
		<linearGradient id="SVGID_7_" gradientUnits="userSpaceOnUse" x1="264" y1="339.7446" x2="264" y2="188.2554" gradientTransform="matrix(1 0 0 -1 0 528)">
		<stop  offset="0" style="stop-color:#FFFFFF;stop-opacity:0.48"/>
		<stop  offset="0.5" style="stop-color:#FFFFFF"/>
		<stop  offset="1" style="stop-color:#FFFFFF;stop-opacity:0"/>
	</linearGradient>
	<circle shape-rendering="crispEdges" class="st6" cx="264" cy="264" r="75.7"/>
	
		<linearGradient id="SVGID_8_" gradientUnits="userSpaceOnUse" x1="264" y1="339.744" x2="264" y2="188.256" gradientTransform="matrix(1 0 0 -1 0 528)">
		<stop  offset="0" style="stop-color:#FFFFFF;stop-opacity:0.4"/>
		<stop  offset="0.5052" style="stop-color:#FFFFFF"/>
		<stop  offset="1" style="stop-color:#FFFFFF;stop-opacity:0"/>
	</linearGradient>
	<circle shape-rendering="crispEdges" class="st7" cx="264" cy="264" r="76.4"/>
</g>
<g>
	
		<linearGradient id="SVGID_9_" gradientUnits="userSpaceOnUse" x1="312.2278" y1="233.4894" x2="257.9274" y2="230.1984" gradientTransform="matrix(1 0 0 -1 0 528)">
		<stop  offset="0" style="stop-color:#701EFC"/>
		<stop  offset="1" style="stop-color:#CBB3F3"/>
	</linearGradient>
	<path class="st8" d="M284.6,276.4l32.8,26.8c3.5,2.6,3.5,6.9,0,9.5l-3.5,2.6c-1.7,0.9-4.3,0.9-6,0l-32.8-26.8
		c-2.6-2.6-3.5-6.9,0-9.5l3.5-2.6C281.2,274.6,282.9,274.6,284.6,276.4z"/>
	
		<linearGradient id="SVGID_10_" gradientUnits="userSpaceOnUse" x1="313.2718" y1="275.576" x2="122.5312" y2="264.0156" gradientTransform="matrix(1 0 0 -1 0 528)">
		<stop  offset="0" style="stop-color:#701EFC"/>
		<stop  offset="1" style="stop-color:#CBB3F3"/>
	</linearGradient>
	<path class="st9" d="M300.1,151.2c1.7-1.7,5.2-0.9,6.9,0.9l26.8,21.6l-99.3,68.2l0,0l-19,12.9c-4.3,3.5-7.8,8.6-7.8,15.5v12.9
		c0,6.9,3.5,12.9,8.6,17.3l49.2,39.7c3.5,2.6,3.5,7.8,0,9.5l-12.1,8.6c-1.7,0.9-4.3,0.9-6,0l-49.2-39.7
		c-10.4-7.8-16.4-20.7-16.4-33.7v-19.9c0-11.2,6.9-24.2,14.7-30.2l96.7-66.5l-4.3-3.5c-1.7-1.7-1.7-4.3,0-5.2L300.1,151.2z"/>
	
		<linearGradient id="SVGID_11_" gradientUnits="userSpaceOnUse" x1="322.3577" y1="268.727" x2="62.4532" y2="252.9753" gradientTransform="matrix(1 0 0 -1 0 528)">
		<stop  offset="0" style="stop-color:#701EFC"/>
		<stop  offset="1" style="stop-color:#CBB3F3"/>
	</linearGradient>
	<path class="st10" d="M360.6,324.7c2.6,3.5,2.6,7.8-0.9,9.5L263,400.7c-5.2,3.5-12.1,2.6-17.3-0.9l-94.9-76c-3.5-2.6-6-7.8-6-12.9
		l-0.9-76c0-7.8,3.5-13.8,8.6-18.1l107.9-74.2l-6-4.3c-1.7-1.7-1.7-4.3,0-6l12.9-8.6c0.9-0.9,2.6-0.9,3.5,0l30.2,25l-124.3,83.7
		c-5.2,3.5-8.6,10.4-8.6,18.1l0.9,45.7c0,5.2,2.6,9.5,6,12.9l69.9,57c5.2,4.3,12.1,5.2,17.3,0.9l81.1-55.2c2.6-1.7,5.2-0.9,7.8,1.7
		L360.6,324.7z"/>
	
		<linearGradient id="SVGID_12_" gradientUnits="userSpaceOnUse" x1="346.9827" y1="274.0352" x2="174.6857" y2="263.5934" gradientTransform="matrix(1 0 0 -1 0 528)">
		<stop  offset="0" style="stop-color:#701EFC"/>
		<stop  offset="1" style="stop-color:#CBB3F3"/>
	</linearGradient>
	<path class="st11" d="M332.9,177.1c1.7-1.7,5.2-0.9,6.9,0.9l26.8,21.6l-102.7,69.9c-3.5,2.6-5.2,6.9-5.2,11.2v0.9
		c0,4.3,2.6,9.5,6,12.1l30.2,24.2c3.5,2.6,3.5,7.8,0,9.5l-12.1,8.6c-1.7,0.9-4.3,0.9-6-0.9l-31.9-25.9c-6-5.2-15.5-12.9-15.5-20.7
		v-21.6c0-7.8,9.5-13.8,14.7-17.3l82-56.1l-4.3-3.5c-1.7-0.9-1.7-3.5,0-5.2L332.9,177.1z"/>
	
		<linearGradient id="SVGID_13_" gradientUnits="userSpaceOnUse" x1="379.1953" y1="220.3557" x2="343.3333" y2="218.1824" gradientTransform="matrix(1 0 0 -1 0 528)">
		<stop  offset="0" style="stop-color:#701EFC"/>
		<stop  offset="1" style="stop-color:#CBB3F3"/>
	</linearGradient>
	<path class="st12" d="M382.1,315.2l-10.4,7.8c-2.6,1.7-6,1.7-8.6-1.7l-8.6-11.2c-2.6-2.6-1.7-6.9,0.9-8.6l9.5-7.8
		c2.6-1.7,6-1.7,8.6,1.7l8.6,11.2C384.7,309.2,384.7,313.5,382.1,315.2z"/>
</g>
</svg>
