<?xml version="1.0" encoding="UTF-8" standalone="no"?>
<!-- Created with Inkscape (http://www.inkscape.org/) -->

<svg
   width="200.35713"
   height="108.53298"
   viewBox="0 0 53.011157 28.716037"
   version="1.1"
   id="svg1"
   xml:space="preserve"
   inkscape:version="1.4.2 (f4327f4, 2025-05-13)"
   xmlns:inkscape="http://www.inkscape.org/namespaces/inkscape"
   xmlns:sodipodi="http://sodipodi.sourceforge.net/DTD/sodipodi-0.dtd"
   xmlns="http://www.w3.org/2000/svg"
   xmlns:svg="http://www.w3.org/2000/svg"
   xmlns:rdf="http://www.w3.org/1999/02/22-rdf-syntax-ns#"
   xmlns:cc="http://creativecommons.org/ns#"
   xmlns:dc="http://purl.org/dc/elements/1.1/"><defs
     id="defs1"><pattern
       id="EMFhbasepattern"
       patternUnits="userSpaceOnUse"
       width="6"
       height="6"
       x="0"
       y="0" /></defs><sodipodi:namedview
     id="base"
     pagecolor="#ffffff"
     bordercolor="#000000"
     borderopacity="0.3"
     inkscape:pageopacity="0.0"
     inkscape:pageshadow="2"
     inkscape:zoom="2.8"
     inkscape:cx="65.892858"
     inkscape:cy="64.464287"
     inkscape:document-units="px"
     inkscape:showpageshadow="2"
     inkscape:pagecheckerboard="0"
     inkscape:deskcolor="#d1d1d1"
     inkscape:window-width="1920"
     inkscape:window-height="1009"
     inkscape:window-x="1912"
     inkscape:window-y="-8"
     inkscape:window-maximized="1"
     inkscape:current-layer="g1"
     showguides="true" /><metadata
     id="metadata1"><rdf:RDF><cc:Work
         rdf:about=""><dc:format>image/svg+xml</dc:format><dc:type
           rdf:resource="http://purl.org/dc/dcmitype/StillImage" /></cc:Work></rdf:RDF></metadata><g
     id="g1"
     transform="translate(0,-2.5066361)"><g
       id="g2"
       transform="matrix(0.37429819,0,0,0.37429819,11.997239,10.543037)"><path
         style="fill:#d41d55;fill-opacity:1;fill-rule:nonzero;stroke:none;stroke-width:0.264583"
         d="M 58.208352,14.816671 C 49.300709,3.2631952 40.481263,-8.0256968 31.661817,-19.314589 c 0,-0.08819 0.08819,-0.176389 0.08819,-0.264584 11.553477,1.322917 23.106951,2.734029 34.836818,4.14514 -2.822224,10.0541702 -5.556252,20.0201452 -8.378476,30.250704 z"
         id="path1" /><path
         style="fill:#e1136e;fill-opacity:1;fill-rule:nonzero;stroke:none;stroke-width:0.264583"
         d="m 59.619463,15.081255 c 2.822224,-10.1423648 5.556251,-20.1083398 8.378474,-30.427093 8.55486,11.9944482 16.93334,23.7243142 25.40001,35.365984 -0.0882,0.08819 -0.0882,0.176387 -0.17639,0.352777 -11.1125,-1.76389 -22.22501,-3.527778 -33.602094,-5.291668 z"
         id="path2" /><path
         style="fill:#d41d55;fill-opacity:1;fill-rule:nonzero;stroke:none;stroke-width:0.264583"
         d="m 59.707659,16.492365 c 10.847918,1.763891 21.519448,3.439585 32.190978,5.203475 0,0.08819 0,0.17639 0,0.264583 -9.17222,4.674308 -18.34445,9.26042 -27.781256,13.934728 -1.499304,-6.438198 -2.910418,-12.7882 -4.409722,-19.402786 z"
         id="path3" /><path
         style="fill:#9e1c3b;fill-opacity:1;fill-rule:nonzero;stroke:none;stroke-width:0.264583"
         d="m 47.713209,53.26946 c 3.439584,-12.170837 6.879169,-24.341674 10.406949,-36.865288 0.176388,0.440973 0.352777,0.705556 0.352777,0.881944 1.675695,7.408335 3.351391,14.904867 4.938892,22.313203 0.176387,0.705554 0.08819,1.146527 -0.529167,1.675694 -4.762502,3.880557 -9.525003,7.761112 -14.287505,11.64167 -0.176389,0.17639 -0.440973,0.352777 -0.705556,0.440973 -0.08819,0 -0.17639,0 -0.17639,-0.0882 z"
         id="path4" /><path
         style="fill:#d41d55;fill-opacity:1;fill-rule:nonzero;stroke:none;stroke-width:0.264583"
         d="m 84.754887,5.9090292 c 5.55625,-0.970139 11.02431,-1.940278 16.668763,-2.998612 -2.116673,5.820836 -4.233343,11.4652808 -6.350013,17.3743118 -3.52777,-4.850697 -6.79097,-9.525003 -10.31875,-14.3756998 z"
         id="path5" /><path
         style="fill:#e1136e;fill-opacity:1;fill-rule:nonzero;stroke:none;stroke-width:0.264583"
         d="m 68.527107,35.189594 c 8.37847,-4.233334 16.66875,-8.466669 24.95903,-12.700004 0.0882,0.08819 0.0882,0.08819 0.17639,0.17639 -0.26458,0.970138 -0.61736,1.852084 -0.97014,2.822221 -0.0882,0.17639 -0.35277,0.35278 -0.52916,0.440974 -7.76112,3.175001 -15.52223,6.261808 -23.28334,9.348613 -0.0882,0.0882 -0.0882,0.0882 -0.17639,0.0882 -0.0882,-0.0882 -0.0882,-0.0882 -0.17639,-0.17639 z"
         id="path6" /><path
         style="fill:#e1136e;fill-opacity:1;fill-rule:nonzero;stroke:none;stroke-width:0.264583"
         d="m 109.36115,10.142363 c -3.08681,0 -6.08542,0 -9.26042,0 0.88194,-2.3812498 1.6757,-4.5861108 2.46945,-6.7027788 2.29305,2.116668 4.58611,4.321529 6.87916,6.438196 -0.0882,0.0882 -0.0882,0.1763898 -0.0882,0.2645828 z"
         id="path7" /><path
         style="fill:#9e1c3b;fill-opacity:1;fill-rule:nonzero;stroke:none;stroke-width:0.264583"
         d="M 44.802791,0.08819417 C 40.04029,-4.4097238 35.365985,-8.9076418 30.603483,-13.317365 c 0,-0.08819 0.08819,-0.176389 0.08819,-0.264584 1.234723,0 2.38125,-0.0882 3.615974,0 0.176387,0 0.352777,0.176389 0.529167,0.352778 3.351388,4.3215292 6.614585,8.5548642 9.965973,12.78819817 0.0882,0.08819 0.0882,0.264584 0.17639,0.352778 -0.08819,0.088199999812 -0.17639,0.088199999812 -0.17639,0.176389 z"
         id="path8" /><path
         style="fill:#eb008b;fill-opacity:1;fill-rule:nonzero;stroke:none;stroke-width:0.264583"
         d="m -31.926399,27.075702 c 0,-1.058334 0.08819,-2.557638 0.08819,-3.968751 0,-18.4326438 0,-18.4326438 0,-18.4326438 2.734028,0 2.734028,0 2.734028,0 0,9.6131968 0,9.6131968 0,9.6131968 0.08819,0 0.08819,0 0.08819,0 0.970139,-1.76389 2.734029,-2.822224 5.203474,-2.822224 3.792363,0 6.526392,3.175001 6.438197,7.761116 0,5.468055 -3.439584,8.202086 -6.879169,8.202086 -2.204862,0 -3.968752,-0.793751 -5.11528,-2.822224 -0.08819,0 -0.08819,0 -0.08819,0 -0.08819,2.469444 -0.08819,2.469444 -0.08819,2.469444 z m 2.822223,-6.085419 c 0,0.35278 0.08819,0.705557 0.176389,0.97014 0.529167,1.940278 2.116667,3.263195 4.14514,3.263195 2.910418,0 4.674308,-2.381251 4.674308,-5.909029 0,-2.998611 -1.587501,-5.644445 -4.586113,-5.644445 -1.852084,0 -3.615974,1.322917 -4.233335,3.439584 -0.0882,0.264584 -0.176389,0.705554 -0.176389,1.146528 z"
         id="path9" /><path
         style="fill:#231f20;fill-opacity:1;fill-rule:nonzero;stroke:none;stroke-width:0.264583"
         d="m -13.758337,5.8208352 c 2.734028,0 2.734028,0 2.734028,0 0,10.2305598 0,10.2305598 0,10.2305598 0.0882,0 0.0882,0 0.0882,0 0.617361,-0.793751 1.1465276,-1.587501 1.6756946,-2.293058 6.526392,-7.9375018 6.526392,-7.9375018 6.526392,-7.9375018 3.43958399,0 3.43958399,0 3.43958399,0 -7.76111399,8.9958358 -7.76111399,8.9958358 -7.76111399,8.9958358 8.378474,12.259031 8.378474,12.259031 8.378474,12.259031 -3.263194,0 -3.263194,0 -3.263194,0 -7.055559,-10.406947 -7.055559,-10.406947 -7.055559,-10.406947 -2.0284726,2.293057 -2.0284726,2.293057 -2.0284726,2.293057 0,8.11389 0,8.11389 0,8.11389 -2.734028,0 -2.734028,0 -2.734028,0 z"
         id="path10" /><path
         style="fill:#231f20;fill-opacity:1;fill-rule:nonzero;stroke:none;stroke-width:0.264583"
         d="m 12.259031,27.075702 c -0.264583,-1.940278 -0.264583,-1.940278 -0.264583,-1.940278 -0.08819,0 -0.08819,0 -0.08819,0 -0.79375,1.234724 -2.4694444,2.293058 -4.6743084,2.293058 -3.086805,0 -4.674305,-2.204864 -4.674305,-4.409725 0,-3.704168 3.263195,-5.644445 9.1722234,-5.644445 0,-0.35278 0,-0.35278 0,-0.35278 0,-1.234721 -0.264583,-3.527778 -3.4395844,-3.527778 -1.411111,0 -2.910418,0.440973 -3.968751,1.146527 -0.617361,-1.852084 -0.617361,-1.852084 -0.617361,-1.852084 1.234724,-0.79375 3.086808,-1.322917 5.027085,-1.322917 4.6743084,0 5.8208354,3.175001 5.8208354,6.261809 0,5.732641 0,5.732641 0,5.732641 0,1.322917 0,2.557638 0.17639,3.615972 z m -0.44097,-7.761113 c -2.9986144,-0.08819 -6.4381994,0.440973 -6.4381994,3.439585 0,1.76389 1.14653,2.645834 2.557641,2.645834 2.028474,0 3.2631954,-1.234724 3.7041684,-2.557641 0.08819,-0.264583 0.17639,-0.61736 0.17639,-0.881944 z"
         id="path11" /><path
         style="fill:#231f20;fill-opacity:1;fill-rule:nonzero;stroke:none;stroke-width:0.264583"
         d="m 18.609033,24.253481 c 0.79375,0.529166 2.293057,1.146527 3.704168,1.146527 2.028474,0 2.910418,-1.058334 2.910418,-2.293057 0,-1.322917 -0.793751,-2.116668 -2.822222,-2.822222 -2.73403,-0.97014 -4.056947,-2.469447 -4.056947,-4.321531 0,-2.469444 2.028473,-4.497918 5.291668,-4.497918 1.587501,0 2.910418,0.440974 3.792364,0.97014 -0.705557,2.028474 -0.705557,2.028474 -0.705557,2.028474 -0.61736,-0.440973 -1.675694,-0.881946 -3.175001,-0.881946 -1.5875,0 -2.55764,0.881946 -2.55764,2.028473 0,1.322917 0.97014,1.852084 2.910417,2.645835 2.645835,0.97014 4.056948,2.293057 4.056948,4.586111 0,2.645834 -2.116667,4.586115 -5.732642,4.586115 -1.675694,0 -3.263194,-0.440974 -4.321528,-1.058334 z"
         id="path12" /><path
         style="fill:#231f20;fill-opacity:1;fill-rule:nonzero;stroke:none;stroke-width:0.264583"
         d="m 31.485427,4.6743072 c 2.822224,0 2.822224,0 2.822224,0 0,9.5250038 0,9.5250038 0,9.5250038 0.08819,0 0.08819,0 0.08819,0 0.440973,-0.793751 1.058333,-1.499307 1.940277,-1.94028 0.79375,-0.440971 1.852084,-0.793751 2.822224,-0.793751 2.116667,0 5.379862,1.234724 5.379862,6.526392 0,9.08403 0,9.08403 0,9.08403 -2.822221,0 -2.822221,0 -2.822221,0 0,-8.731253 0,-8.731253 0,-8.731253 0,-2.469444 -0.881947,-4.586112 -3.527781,-4.586112 -1.763888,0 -3.175001,1.234724 -3.704168,2.822224 -0.176387,0.352777 -0.176387,0.793751 -0.176387,1.322918 0,9.172223 0,9.172223 0,9.172223 -2.822224,0 -2.822224,0 -2.822224,0 z"
         id="path13" /></g></g></svg>
