<?xml version="1.0" encoding="UTF-8" standalone="no"?>
<svg
   width="163.29279"
   height="28.575125"
   viewBox="0 0 163.29279 28.575125"
   fill="none"
   version="1.1"
   id="svg1"
   sodipodi:docname="client-01.svg"
   xml:space="preserve"
   inkscape:version="1.4.2 (f4327f4, 2025-05-13)"
   xmlns:inkscape="http://www.inkscape.org/namespaces/inkscape"
   xmlns:sodipodi="http://sodipodi.sourceforge.net/DTD/sodipodi-0.dtd"
   xmlns="http://www.w3.org/2000/svg"
   xmlns:svg="http://www.w3.org/2000/svg"><sodipodi:namedview
     id="namedview1"
     pagecolor="#ffffff"
     bordercolor="#000000"
     borderopacity="0.25"
     inkscape:showpageshadow="2"
     inkscape:pageopacity="0.0"
     inkscape:pagecheckerboard="0"
     inkscape:deskcolor="#d1d1d1"
     inkscape:zoom="4.0923423"
     inkscape:cx="78.072647"
     inkscape:cy="23.824986"
     inkscape:window-width="1920"
     inkscape:window-height="1009"
     inkscape:window-x="1912"
     inkscape:window-y="-8"
     inkscape:window-maximized="1"
     inkscape:current-layer="svg1"><inkscape:page
       x="0"
       y="0"
       width="163.29279"
       height="28.575125"
       id="page2"
       margin="0"
       bleed="0" /></sodipodi:namedview><defs
     id="defs1"><clipPath
       id="clip0_69_11452"><rect
         width="110"
         height="21"
         fill="#ffffff"
         transform="translate(0.503906)"
         id="rect1"
         x="0"
         y="0" /></clipPath><pattern
       id="EMFhbasepattern"
       patternUnits="userSpaceOnUse"
       width="6"
       height="6"
       x="0"
       y="0" /><pattern
       id="EMFhbasepattern-1"
       patternUnits="userSpaceOnUse"
       width="6"
       height="6"
       x="0"
       y="0" /><pattern
       id="EMFhbasepattern-2"
       patternUnits="userSpaceOnUse"
       width="6"
       height="6"
       x="0"
       y="0" /><pattern
       id="EMFhbasepattern-6"
       patternUnits="userSpaceOnUse"
       width="6"
       height="6"
       x="0"
       y="0" /><pattern
       id="EMFhbasepattern-3"
       patternUnits="userSpaceOnUse"
       width="6"
       height="6"
       x="0"
       y="0" /><pattern
       id="EMFhbasepattern-21"
       patternUnits="userSpaceOnUse"
       width="6"
       height="6"
       x="0"
       y="0" /></defs><style
     type="text/css"
     id="style1">
	.st0{fill-rule:evenodd;clip-rule:evenodd;fill:#2E000A;}
	.st1{fill-rule:evenodd;clip-rule:evenodd;fill:#FFFFFF;}
	.st2{fill:#FF335E;}
	.st3{fill:#FFFFFF;}
</style><g
     id="g3"
     transform="matrix(0.13736478,0,0,0.13736478,67.314666,12.730761)"
     style="fill:#ffffff"><path
       style="fill:#ffffff;fill-opacity:1;fill-rule:nonzero;stroke:none"
       d="m -76,-73 c -0.66667,0.333333 -1,7 -1,14.333333 0,14 0,14 0,14 5,0.333334 5,0.333334 5,0.333334 C -67,-44 -67,-44 -67,-44 c 0.66667,70 0.66667,70 0.66667,70 0.66666,70 0.66666,70 0.66666,70 C -50,96.33333 -50,96.33333 -50,96.33333 c 15.66667,0.33334 15.66667,0.33334 15.66667,0.33334 0,-83.333337 0,-83.333337 0,-83.333337 0,-83.333333 0,-83.333333 0,-83.333333 -3,-2 -3,-2 -3,-2 -2.33334,-1.666667 -6.66667,-2 -20.33334,-2 -9.66666,0 -18,0.333333 -18.33333,1 z"
       id="path1" /><path
       style="fill:#ffffff;fill-opacity:1;fill-rule:nonzero;stroke:none"
       d="m -5,-59.333333 c 0,14.666666 0,14.666666 0,14.666666 33,0 33,0 33,0 28.66667,0 33.66667,0.333334 37.66667,2.333334 10,5 12,18 3.66666,26.666666 C 63.66667,-9.333333 56,-6 37,0 10.66667,8.333333 0.66667,14.666667 -6,28.33333 -9.66667,36 -9.66667,36 -9.66667,36 c 0,30 0,30 0,30 0,30 0,30 0,30 56.33334,0.33333 56.33334,0.33333 56.33334,0.33333 C 103,96.66667 103,96.66667 103,96.66667 103,82 103,82 103,82 103,67.33333 103,67.33333 103,67.33333 65.33333,67 65.33333,67 65.33333,67 27.66667,66.66667 27.66667,66.66667 27.66667,66.66667 27.33333,56 27.33333,56 27.33333,56 c -0.33333,-6 0,-12 0.33334,-13.66667 1,-4.33333 9.33333,-8.66666 30,-15.66666 32.33333,-11.000003 39,-15.000003 45,-27.000003 3.33333,-7 3.66666,-9 3.66666,-23 C 106.33333,-37 106,-39.333333 103,-46 96.33333,-59.666667 87,-68 73.66667,-72 c -5.66667,-1.666667 -14,-2 -43,-2 C -5,-74 -5,-74 -5,-74 Z"
       id="path2" /><path
       style="fill:#ffffff;fill-opacity:1;fill-rule:nonzero;stroke:none"
       d="m 128.33333,-59.333333 c 0,14.666666 0,14.666666 0,14.666666 C 166,-44.333333 166,-44.333333 166,-44.333333 c 33.33333,0.333333 38.33333,0.666666 41.33333,2.666666 5.33334,3.666667 8,8.333334 8,14.333334 0,6.333333 -3,11.333333 -9.66666,15.666666 -4.33334,3 -5.66667,3 -32.33334,3 -27.66666,0 -27.66666,0 -27.66666,0 C 146,5.666667 146,5.666667 146,5.666667 146.33333,20 146.33333,20 146.33333,20 c 28,0.666667 28,0.666667 28,0.666667 28.33334,0.666666 28.33334,0.666666 28.33334,0.666666 C 207.33333,25 207.33333,25 207.33333,25 214,30 216.66667,35.33333 216.66667,44.66667 217,51 216.33333,53 213.33333,57.33333 206,66.66667 206.66667,66.66667 165.33333,67 c -37,0.33333 -37,0.33333 -37,0.33333 0,14.66667 0,14.66667 0,14.66667 0,14.66667 0,14.66667 0,14.66667 44.33334,0 44.33334,0 44.33334,0 C 226,96.66667 227.33333,96.33333 239,85 251,73 255.66667,57.33333 252.33333,38 250.33333,25 247,18 240.66667,11.666667 235,6.666667 235,6.666667 235,6.666667 239.66667,4 239.66667,4 239.66667,4 249,-1 253.33333,-12.666667 252,-31 250.66667,-48 242.33333,-61 228.66667,-67.333333 216.66667,-73 207.33333,-74 166.66667,-74 c -38.33334,0 -38.33334,0 -38.33334,0 z"
       id="path3" /><path
       style="fill:#ffffff;fill-opacity:1;fill-rule:nonzero;stroke:none"
       d="m 275,11.333333 c 0,85.333337 0,85.333337 0,85.333337 17,-0.33334 17,-0.33334 17,-0.33334 C 309,96 309,96 309,96 c 0.33333,-31 0.33333,-31 0.33333,-31 0.33334,-31 0.33334,-31 0.33334,-31 C 327,34 327,34 327,34 c 17.33333,0 17.66667,0 21.33333,3.66667 2.33334,2.66666 6,10.66666 12,27.66666 C 365,78.66667 369.66667,91 370.66667,93 c 1.66666,3.66667 1.66666,3.66667 1.66666,3.66667 18,0 18,0 18,0 17,0 19.66667,-0.66667 16.66667,-3.33334 -0.66667,-0.66666 -4.66667,-13 -9.33333,-27 C 393,51.66667 387.33333,37.33333 385,33 c -2.66667,-4 -4.66667,-7.666667 -4.66667,-8.333333 0,-0.666667 1.66667,-2 4,-3.333334 5.66667,-3 13,-12 15.66667,-20 1.66667,-5 2.33333,-11 2.33333,-24.666666 0,-22 -2.66666,-30.333334 -12.66666,-40 C 379.33333,-73.666667 377.66667,-74 322.66667,-74 275,-74 275,-74 275,-74 Z M 363,-40 c 9.33333,8 8.33333,29.666667 -2,38 -3.33333,2.666667 -5.33333,2.666667 -27.33333,2.666667 -24,0 -24,0 -24,0 0,-21 0,-21 0,-21 0,-11.666667 0.33333,-21.666667 1,-22 0.33333,-0.666667 11.33333,-1 24.33333,-1 23.66667,0 24,0 28,3.333333 z"
       id="path4" /><path
       style="fill:#ffffff;fill-opacity:1;fill-rule:nonzero;stroke:none"
       d="m 448,-72 c -9,3 -15,8 -18.33333,15 -3.33334,6.333333 -3.33334,6.333333 -3.33334,6.333333 0,73.333334 0,73.333334 0,73.333334 0,73.333333 0,73.333333 0,73.333333 17,0.33333 17,0.33333 17,0.33333 17,0.33334 17,0.33334 17,0.33334 0.33334,-35 0.33334,-35 0.33334,-35 0.33333,-35 0.33333,-35 0.33333,-35 38.33333,-0.33334 38.33333,-0.33334 38.33333,-0.33334 C 537.66667,26 537.66667,26 537.66667,26 c 0,-15.333333 0,-15.333333 0,-15.333333 0,-15.333334 0,-15.333334 0,-15.333334 C 499.33333,-5 499.33333,-5 499.33333,-5 461,-5.333333 461,-5.333333 461,-5.333333 c -0.33333,-14 -0.33333,-14 -0.33333,-14 -0.33334,-15.333334 0.66666,-20.333334 5.66666,-22.666667 2.33334,-0.666667 16,-1.333333 41.33334,-1.333333 38,0 38,0 38,0 0,-15.333334 0,-15.333334 0,-15.333334 0,-15.333333 0,-15.333333 0,-15.333333 -46.33334,0 -46.33334,0 -46.33334,0 -35.66666,0 -47.66666,0.666667 -51.33333,2 z"
       id="path5" /><path
       style="fill:#ffffff;fill-opacity:1;fill-rule:nonzero;stroke:none"
       d="m -290.33333,-70.666667 c -2.66667,1.333334 -6,3.333334 -8,5 -3.33334,3.333334 -9.33334,15 -9.33334,18.666667 0,4.333333 -4.33333,9 -12,13 -4,2 -9.66666,6.333333 -12.33333,9.333333 -5,5.333334 -5,5.333334 -5,5.333334 0,50.000003 0,50.000003 0,50.000003 0,49.33333 0,49.66666 3,54 1.66667,2.66666 5,6 7.66667,7.66666 4.33333,3 4.33333,3 4.33333,3 89.33333,0 89.33333,0 89.33333,0 89.33334,0 89.33334,0 89.33334,0 C -137.66667,92 -137.66667,92 -137.66667,92 c 4,-2 6.66667,-5.33333 8.66667,-9 2.66667,-5.66667 2.66667,-7.66667 2.66667,-52 0,-50.666667 -0.33334,-52.333333 -7.66667,-58.333333 -2,-2 -7.33333,-5.333334 -11.33333,-7.333334 -7.33334,-3.666666 -11.66667,-9 -11.66667,-14.666666 0,-4.666667 -6.66667,-15.333334 -12.33333,-19 C -175,-72 -175,-72 -175,-72 c -55.33333,-0.333333 -55.33333,-0.333333 -55.33333,-0.333333 -47.33334,-0.333334 -56,0 -60,1.666666 z M -179,-61.333333 c 6.66667,2.666666 9.66667,7 12.66667,16.666666 3.33333,11.666667 5.33333,14 15,18.666667 4.33333,2.333333 9.33333,5.666667 11,7.333333 3.33333,3.333334 3.33333,3.333334 3.33333,3.333334 0,46.000003 0,46.000003 0,46.000003 0,50.66666 0,51 -8.33333,54 C -147.66667,85.33333 -153.66667,86 -159,86 c -9.66667,0 -9.66667,0 -9.66667,0 -6,-7.66667 -6,-7.66667 -6,-7.66667 C -178,74 -183.66667,68.66667 -187,66.33333 -193.33333,62 -193.33333,62 -193.33333,62 c -39,0 -39,0 -39,0 -39,0 -39,0 -39,0 -5,3.66667 -5,3.66667 -5,3.66667 -5.66667,4.33333 -18,17.33333 -18,19 0,2.33333 -21,1.33333 -25.33334,-0.66667 -8,-4 -8,-3.66667 -8,-52.33333 0,-52.000003 -0.66666,-49.66667 13,-56.66667 10,-5 14.33334,-9.666667 16.33334,-17.333333 0.66666,-3 2,-7.333334 3,-9.333334 1.66666,-4 8,-9.666666 12.33333,-10.666666 1.33333,-0.333334 24.33333,-0.666667 51,-1 38.66667,0 49.33333,0.333333 53,2 z"
       id="path6" /><path
       style="fill:#ffffff;fill-opacity:1;fill-rule:nonzero;stroke:none"
       d="m -240.66667,-30 c -31,6.333333 -42.66666,44.333333 -20.33333,66.66667 7.33333,7.33333 15,11 25.66667,11.66666 12.66666,1 21,-2.33333 30.66666,-11.66666 9.33334,-9.33334 12.33334,-18.333337 11.33334,-31.66667 -2.33334,-23.666667 -24,-39.666667 -47.33334,-35 z"
       id="path7" /></g></svg>
