<?xml version="1.0" encoding="UTF-8" standalone="no"?>
<svg
   width="163.29279"
   height="28.575125"
   viewBox="0 0 163.29279 28.575125"
   fill="none"
   version="1.1"
   id="svg1"
   sodipodi:docname="client-01.svg"
   xml:space="preserve"
   inkscape:version="1.4.2 (f4327f4, 2025-05-13)"
   xmlns:inkscape="http://www.inkscape.org/namespaces/inkscape"
   xmlns:sodipodi="http://sodipodi.sourceforge.net/DTD/sodipodi-0.dtd"
   xmlns="http://www.w3.org/2000/svg"
   xmlns:svg="http://www.w3.org/2000/svg"><sodipodi:namedview
     id="namedview1"
     pagecolor="#ffffff"
     bordercolor="#000000"
     borderopacity="0.25"
     inkscape:showpageshadow="2"
     inkscape:pageopacity="0.0"
     inkscape:pagecheckerboard="0"
     inkscape:deskcolor="#d1d1d1"
     inkscape:zoom="2.893723"
     inkscape:cx="80.346321"
     inkscape:cy="63.758694"
     inkscape:window-width="1920"
     inkscape:window-height="1009"
     inkscape:window-x="1912"
     inkscape:window-y="-8"
     inkscape:window-maximized="1"
     inkscape:current-layer="svg1"><inkscape:page
       x="0"
       y="0"
       width="163.29279"
       height="28.575125"
       id="page2"
       margin="0"
       bleed="0" /></sodipodi:namedview><defs
     id="defs1"><clipPath
       id="clip0_69_11452"><rect
         width="110"
         height="21"
         fill="#ffffff"
         transform="translate(0.503906)"
         id="rect1"
         x="0"
         y="0" /></clipPath><pattern
       id="EMFhbasepattern"
       patternUnits="userSpaceOnUse"
       width="6"
       height="6"
       x="0"
       y="0" /><pattern
       id="EMFhbasepattern-1"
       patternUnits="userSpaceOnUse"
       width="6"
       height="6"
       x="0"
       y="0" /><pattern
       id="EMFhbasepattern-2"
       patternUnits="userSpaceOnUse"
       width="6"
       height="6"
       x="0"
       y="0" /><pattern
       id="EMFhbasepattern-6"
       patternUnits="userSpaceOnUse"
       width="6"
       height="6"
       x="0"
       y="0" /><pattern
       id="EMFhbasepattern-3"
       patternUnits="userSpaceOnUse"
       width="6"
       height="6"
       x="0"
       y="0" /><pattern
       id="EMFhbasepattern-21"
       patternUnits="userSpaceOnUse"
       width="6"
       height="6"
       x="0"
       y="0" /><pattern
       id="EMFhbasepattern-8"
       patternUnits="userSpaceOnUse"
       width="6"
       height="6"
       x="0"
       y="0" /><pattern
       id="EMFhbasepattern-18"
       patternUnits="userSpaceOnUse"
       width="6"
       height="6"
       x="0"
       y="0" /><pattern
       id="EMFhbasepattern-27"
       patternUnits="userSpaceOnUse"
       width="6"
       height="6"
       x="0"
       y="0" /></defs><style
     type="text/css"
     id="style1">
	.st0{fill-rule:evenodd;clip-rule:evenodd;fill:#2E000A;}
	.st1{fill-rule:evenodd;clip-rule:evenodd;fill:#FFFFFF;}
	.st2{fill:#FF335E;}
	.st3{fill:#FFFFFF;}
</style><g
     id="g3"
     transform="matrix(0.4264944,0,0,0.4264944,27.268355,-4.9757687)"><path
       style="fill:#ff9d1b;fill-opacity:1;fill-rule:nonzero;stroke:none"
       d="m 17.666667,43 c 0,-1.666667 0,-3 0,-4.666667 0,-3.333333 -1,-6.666666 -3,-6.666666 C 13,31.666667 12,33.333333 12,35.666667 12,39.666667 15,42 17.666667,43 M 7.333333,69.333333 c -10,0 -11,-9.666666 -11,-19.333333 0,-9.333333 -0.666666,-11.666667 -3.666666,-11.666667 -4.666667,0 -4.666667,0 -4.666667,0 0,-6 0,-6 0,-6 4.666667,0 4.666667,0 4.666667,0 C 1.333333,32.333333 2.333333,40 2.333333,50 c 0,9.666667 0.666667,13 5,13 4.333334,0 7.666667,-7.666667 9,-13.666667 C 9.666667,47.666667 5.666667,42.666667 5.666667,35.666667 5.666667,30 9.333333,25.333333 14.333333,25.333333 c 5.666667,0 9,5.666667 9,13.333334 0,1.666666 -0.333333,3.666666 -0.333333,5 6.666667,0 6.666667,0 6.666667,0 0,6.333333 0,6.333333 0,6.333333 C 22,50 22,50 22,50 20.333333,59.333333 15.333333,69.333333 7.333333,69.333333 m 0.333334,9.333334 C 31,78.666667 41,64 41,45.666667 c 0,-25.333334 -11.666667,-34 -26.666667,-34 -19.666666,0 -40.333333,16 -40.333333,34 0,18.333333 15,33 33.666667,33 z"
       id="path1" /><path
       style="fill:#ff9d1b;fill-opacity:1;fill-rule:nonzero;stroke:none"
       d="m 67.333333,48.333333 c 0.666667,1.333334 1,3 1.333334,4.333334 0.333333,0 0.333333,0 0.333333,0 0,-1.333334 0.666667,-3 1,-4 C 76.66667,26 76.66667,26 76.66667,26 85,26 85,26 85,26 73,61.333333 73,61.333333 73,61.333333 c -8.666667,0 -8.666667,0 -8.666667,0 C 52,26 52,26 52,26 c 8.333333,0 8.333333,0 8.333333,0 z"
       id="path2" /><path
       style="fill:#ff9d1b;fill-opacity:1;fill-rule:nonzero;stroke:none"
       d="m 107.66667,52.333333 c 3.66666,4.333334 3.66666,4.333334 3.66666,4.333334 -1.66666,2.333333 -5.66666,4.666666 -11.66666,4.666666 -9,0 -14.66667,-5.666666 -14.66667,-14 0,-8 5.66667,-13.666666 14,-13.666666 8,0 12.33333,5.333333 12.33333,12.666666 0,1.666667 0,3 0,3 -18.33333,0 -18.33333,0 -18.33333,0 0.66667,3.333334 3,6 7.66667,6 4,0 6,-1.666666 7,-3 M 93,45.666667 c 11.33333,0 11.33333,0 11.33333,0 C 104.33333,42.333333 102.33333,40 99,40 c -3,0 -5.33333,2 -6,5.666667 z"
       id="path3" /><path
       style="fill:#ff9d1b;fill-opacity:1;fill-rule:nonzero;stroke:none"
       d="m 140.66667,43 c 0,1.333333 -0.33334,2 -0.33334,2 -6.66666,0.666667 -6.66666,0.666667 -6.66666,0.666667 0,-0.333334 0,-0.666667 0,-1.333334 C 133.66667,42 132.33333,40 129.33333,40 c -3.66666,0 -6,3 -6,7.333333 0,4.666667 2.33334,7.666667 7,7.666667 4.33334,0 6.66667,-2.333333 7.33334,-3.333333 3.66666,5 3.66666,5 3.66666,5 -1.66666,2.333333 -5.66666,4.666666 -11.66666,4.666666 -9,0 -14.33334,-5.666666 -14.33334,-13.666666 0,-8.333334 5.66667,-14 14,-14 7,0 11.33334,4 11.33334,9.333333 z"
       id="path4" /><path
       style="fill:#ff9d1b;fill-opacity:1;fill-rule:nonzero;stroke:none"
       d="m 167.66667,59 c 0,0 -3,2 -8.66667,2 -7.66667,0 -11.66667,-4 -11.66667,-11.666667 0,-10 0,-10 0,-10 -3.66666,0 -3.66666,0 -3.66666,0 0,-6 0,-6 0,-6 3.66666,0 3.66666,0 3.66666,0 0,-7.333333 0,-7.333333 0,-7.333333 7.33334,0 7.33334,0 7.33334,0 0,7.333333 0,7.333333 0,7.333333 9.66666,0 9.66666,0 9.66666,0 0,6 0,6 0,6 -8.66666,0 -8.66666,0 -8.66666,0 0,9.666667 0,9.666667 0,9.666667 0,3.666667 1.66666,5.333333 5,5.333333 3,0 4.66666,-1.333333 4.66666,-1.333333 z"
       id="path5" /><path
       style="fill:#ff9d1b;fill-opacity:1;fill-rule:nonzero;stroke:none"
       d="M 189.33333,52.333333 C 193,56.666667 193,56.666667 193,56.666667 191.33333,59 187.33333,61.333333 181.33333,61.333333 c -9,0 -14.33333,-5.666666 -14.33333,-14 0,-8 5.33333,-13.666666 13.66667,-13.666666 8,0 12.66666,5.333333 12.66666,12.666666 0,1.666667 -0.33333,3 -0.33333,3 -18.33333,0 -18.33333,0 -18.33333,0 0.66666,3.333334 3.33333,6 7.66666,6 4,0 6,-1.666666 7,-3 m -14.66666,-6.666666 c 11.33333,0 11.33333,0 11.33333,0 C 186,42.333333 184,40 180.66667,40 c -3,0 -5.33334,2 -6,5.666667 z"
       id="path6" /><path
       style="fill:#ff9d1b;fill-opacity:1;fill-rule:nonzero;stroke:none"
       d="m 219.66667,52.333333 c 3.66666,4.333334 3.66666,4.333334 3.66666,4.333334 -2,2.333333 -6,4.666666 -11.66666,4.666666 -9.33334,0 -14.66667,-5.666666 -14.66667,-14 0,-8 5.33333,-13.666666 13.66667,-13.666666 8,0 12.66666,5.333333 12.66666,12.666666 0,1.666667 -0.33333,3 -0.33333,3 -18.33333,0 -18.33333,0 -18.33333,0 0.66666,3.333334 3.33333,6 7.66666,6 4,0 6,-1.666666 7.33334,-3 m -15,-6.666666 c 11.33333,0 11.33333,0 11.33333,0 C 216,42.333333 214,40 211,40 c -3.33333,0 -5.66667,2 -6.33333,5.666667 z"
       id="path7" /><path
       style="fill:#ff9d1b;fill-opacity:1;fill-rule:nonzero;stroke:none"
       d="M 226,55.666667 C 239.33333,42 239.33333,42 239.33333,42 c 0.66667,-0.666667 1,-1 1.66667,-1.333333 0,0 0,0 0,0 -0.66667,0 -1.66667,0 -3.33333,0 -10.33334,0 -10.33334,0 -10.33334,0 0,-6 0,-6 0,-6 21.66667,0 21.66667,0 21.66667,0 0,5 0,5 0,5 C 237.33333,53.333333 237.33333,53.333333 237.33333,53.333333 236.66667,54.333333 236,54.666667 235.66667,55 236,55.333333 236,55.333333 236,55.333333 c 0.33333,-0.333333 1.33333,-0.333333 2.66667,0 11.66666,0 11.66666,0 11.66666,0 0,6 0,6 0,6 -24.33333,0 -24.33333,0 -24.33333,0 z"
       id="path8" /><path
       style="fill:#ff9d1b;fill-opacity:1;fill-rule:nonzero;stroke:none"
       d="m 258.66667,73.333333 c -3,0 -5,-1 -5,-1 1.33333,-6 1.33333,-6 1.33333,-6 0,0 1.33333,0.666667 3,0.666667 2.66667,0 4,-1 4.66667,-3 0.66666,-1.333333 0.66666,-1.333333 0.66666,-1.333333 -11,-28 -11,-28 -11,-28 8.33334,0 8.33334,0 8.33334,0 5.33333,16 5.33333,16 5.33333,16 0.66667,1.333333 0.66667,2 1,3.333333 0,0 0,0 0,0 0.33333,-1.333333 0.66667,-2.333333 1,-3.333333 5.33333,-16 5.33333,-16 5.33333,-16 7.66667,0 7.66667,0 7.66667,0 C 269.66667,65 269.66667,65 269.66667,65 c -1.66667,4.666667 -5,8.333333 -11,8.333333 z"
       id="path9" /></g></svg>
