<?xml version="1.0" encoding="UTF-8" standalone="no"?>
<svg
   width="163.29279"
   height="28.575125"
   viewBox="0 0 163.29279 28.575125"
   fill="none"
   version="1.1"
   id="svg1"
   sodipodi:docname="client-01.svg"
   xml:space="preserve"
   inkscape:version="1.4.2 (f4327f4, 2025-05-13)"
   xmlns:inkscape="http://www.inkscape.org/namespaces/inkscape"
   xmlns:sodipodi="http://sodipodi.sourceforge.net/DTD/sodipodi-0.dtd"
   xmlns="http://www.w3.org/2000/svg"
   xmlns:svg="http://www.w3.org/2000/svg"><sodipodi:namedview
     id="namedview1"
     pagecolor="#ffffff"
     bordercolor="#000000"
     borderopacity="0.25"
     inkscape:showpageshadow="2"
     inkscape:pageopacity="0.0"
     inkscape:pagecheckerboard="0"
     inkscape:deskcolor="#d1d1d1"
     inkscape:zoom="4.0923423"
     inkscape:cx="113.01596"
     inkscape:cy="43.373693"
     inkscape:window-width="1920"
     inkscape:window-height="1009"
     inkscape:window-x="1912"
     inkscape:window-y="-8"
     inkscape:window-maximized="1"
     inkscape:current-layer="svg1"><inkscape:page
       x="0"
       y="0"
       width="163.29279"
       height="28.575125"
       id="page2"
       margin="0"
       bleed="0" /></sodipodi:namedview><defs
     id="defs1"><clipPath
       id="clip0_69_11452"><rect
         width="110"
         height="21"
         fill="#ffffff"
         transform="translate(0.503906)"
         id="rect1"
         x="0"
         y="0" /></clipPath><pattern
       id="EMFhbasepattern"
       patternUnits="userSpaceOnUse"
       width="6"
       height="6"
       x="0"
       y="0" /></defs><style
     type="text/css"
     id="style1">
	.st0{fill-rule:evenodd;clip-rule:evenodd;fill:#2E000A;}
	.st1{fill-rule:evenodd;clip-rule:evenodd;fill:#FFFFFF;}
	.st2{fill:#FF335E;}
	.st3{fill:#FFFFFF;}
</style><g
     id="g2"
     transform="matrix(0.52562052,0,0,0.52562052,31.186822,35.224779)"><path
       style="fill:#ffffff;fill-opacity:1;fill-rule:nonzero;stroke:none"
       d="m 131.33333,-37.333333 c -0.33333,0 -2,-0.333334 -2.33333,-0.333334 -2.66667,-0.333333 -5,-1 -5,-3.666666 0,-2.333334 2.33333,-3.333334 5.33333,-3.333334 4.33334,0 8,2 8.66667,2.333334 2.33333,-6.333334 2.33333,-6.333334 2.33333,-6.333334 -1,-0.333333 -5,-2.333333 -11,-2.333333 C 124,-51 117,-48.333333 117,-41 c 0,6.333333 4.66667,8.666667 9.33333,9.333333 0.33334,0 2.33334,0.333334 3,0.666667 3,0.333333 4.66667,1.333333 4.66667,3.333333 C 134,-25 131.66667,-24 128,-24 c -5.66667,0 -9,-1.666667 -10,-2 -2.33333,6 -2.33333,6 -2.33333,6 0.66666,0.666667 4.66666,2.666667 12,2.666667 C 135,-17.333333 141,-21 141,-27.666667 141,-34 136.66667,-36.333333 131.33333,-37.333333 Z"
       id="path1" /><path
       style="fill:#ffffff;fill-opacity:1;fill-rule:nonzero;stroke:none"
       d="M 153.66667,-62.333333 C 147,-58.666667 147,-58.666667 147,-58.666667 c 0,8 0,8 0,8 -3.66667,0 -3.66667,0 -3.66667,0 0,6.666667 0,6.666667 0,6.666667 C 147,-44 147,-44 147,-44 c 0,14.333333 0,14.333333 0,14.333333 C 147,-23.333333 149.33333,-18 158.33333,-18 161,-18 161,-18 161,-18 c 0,-6.666667 0,-6.666667 0,-6.666667 -1,0 -1,0 -1,0 -4.33333,0 -6.33333,-2.333333 -6.33333,-6 0,-13.333333 0,-13.333333 0,-13.333333 8,0 8,0 8,0 0,-6.666667 0,-6.666667 0,-6.666667 -8,0 -8,0 -8,0 z"
       id="path2" /><path
       style="fill:#ffffff;fill-opacity:1;fill-rule:nonzero;stroke:none"
       d="m 208,-44.333333 c 2.66667,0 5.33333,1 6.33333,4 6.33334,-2.333334 6.33334,-2.333334 6.33334,-2.333334 C 218.66667,-48.666667 213,-51 208,-51 c -9.33333,0 -13,5.666667 -13,11 0,11.333333 0,11.333333 0,11.333333 0,5.666667 3.66667,11.333334 13,11.333334 5,0 10.66667,-2.333334 12.66667,-8.666667 -6.33334,-2.333333 -6.33334,-2.333333 -6.33334,-2.333333 -1,3 -3.66666,4.333333 -6.33333,4.333333 -4.66667,0 -6,-2.666667 -6,-5.666667 C 202,-39 202,-39 202,-39 c 0,-2.666667 1.33333,-5.333333 6,-5.333333 z"
       id="path3" /><path
       style="fill:#ffffff;fill-opacity:1;fill-rule:nonzero;stroke:none"
       d="m 237.66667,-36 13,-14.666667 H 242 l -11,13 v -24.666666 h -7 V -18 h 7 V -28.333333 L 233,-31 l 10,13 h 8.33333 z"
       id="path4" /><path
       style="fill:#ff0600;fill-opacity:1;fill-rule:nonzero;stroke:none"
       d="m 181.33333,-43.333333 c -7.33333,0 -7.33333,0 -7.33333,0 -1.33333,0 -2,1 -2,2 0,7.666666 0,7.666666 0,7.666666 -7.33333,0 -7.33333,0 -7.33333,0 0,-7.666666 0,-7.666666 0,-7.666666 0,-5 4.33333,-9.333334 9.33333,-9.333334 7.33333,0 7.33333,0 7.33333,0 z"
       id="path5" /><path
       style="fill:#ff0600;fill-opacity:1;fill-rule:nonzero;stroke:none"
       d="m 175.33333,-25 c 7.33334,0 7.33334,0 7.33334,0 1,0 2,-1 2,-2 0,-8 0,-8 0,-8 7,0 7,0 7,0 0,8 0,8 0,8 0,5 -4,9 -9,9 -7.33334,0 -7.33334,0 -7.33334,0 z"
       id="path6" /><path
       style="fill:#ff0600;fill-opacity:1;fill-rule:nonzero;stroke:none"
       d="m 57.66667,-50.666667 c 8,0 8,0 8,0 0,6.666667 0,6.666667 0,6.666667 -8,0 -8,0 -8,0 0,13.333333 0,13.333333 0,13.333333 0,3.666667 2,6 6.33333,6 1,0 1,0 1,0 C 65,-18 65,-18 65,-18 c -2.66667,0 -2.66667,0 -2.66667,0 C 53.33333,-18 51,-23.333333 51,-29.666667 51,-44 51,-44 51,-44 c -11.666667,0 -11.666667,0 -11.666667,0 0,13.333333 0,13.333333 0,13.333333 0,3.666667 1.666667,6 5.999997,6 1,0 1,0 1,0 0,6.666667 0,6.666667 0,6.666667 -2.66666,0 -2.66666,0 -2.66666,0 -9.000003,0 -11.333337,-5.333333 -11.333337,-11.666667 0,-14.333333 0,-14.333333 0,-14.333333 -3.666666,0 -3.666666,0 -3.666666,0 0,-6.666667 0,-6.666667 0,-6.666667 3.666666,0 3.666666,0 3.666666,0 0,-8 0,-8 0,-8 7,-3.666666 7,-3.666666 7,-3.666666 0,11.666666 0,11.666666 0,11.666666 11.666667,0 11.666667,0 11.666667,0 0,-8 0,-8 0,-8 6.66667,-3.666666 6.66667,-3.666666 6.66667,-3.666666 z"
       id="path7" /><path
       style="fill:#ff0600;fill-opacity:1;fill-rule:nonzero;stroke:none"
       d="m -17,-51 c -2,0 -4.333333,0.333333 -6.333333,1 0,-12.333333 0,-12.333333 0,-12.333333 -7,0 -7,0 -7,0 0,44.333333 0,44.333333 0,44.333333 7,0 7,0 7,0 0,-25.333333 0,-25.333333 0,-25.333333 C -22,-44.333333 -20,-44.666667 -18,-44.666667 c 4.333333,0 6.333333,2.333334 6.333333,6 0,20.666667 0,20.666667 0,20.666667 7,0 7,0 7,0 0,-21.666667 0,-21.666667 0,-21.666667 C -4.666667,-46.333333 -9.333333,-51 -17,-51 Z"
       id="path8" /><path
       style="fill:#ff0600;fill-opacity:1;fill-rule:nonzero;stroke:none"
       d="m 18,-24.333333 c -1.333333,0.666666 -3,1 -4.333333,1 -5.333334,0 -7.333334,-2.666667 -7.333334,-6.333334 0,-21 0,-21 0,-21 -7,0 -7,0 -7,0 0,21.333334 0,21.333334 0,21.333334 0,8 5,12 13.333334,12 4,0 8.666666,-1 12.333333,-2.666667 0,-30.666667 0,-30.666667 0,-30.666667 -7,0 -7,0 -7,0 z"
       id="path9" /><path
       style="fill:#ff0600;fill-opacity:1;fill-rule:nonzero;stroke:none"
       d="m -43.333333,-37.333333 c -0.333334,0 -2,-0.333334 -2.666667,-0.333334 -2.333333,-0.333333 -4.666667,-1 -4.666667,-3.666666 0,-2.333334 2.333334,-3.333334 5.333334,-3.333334 4.333333,0 8,2 8.333333,2.333334 2.333333,-6.333334 2.333333,-6.333334 2.333333,-6.333334 C -35.333333,-49 -39.333333,-51 -45.333333,-51 -51,-51 -57.666667,-48.333333 -57.666667,-41 c 0,6.333333 4.666667,8.666667 9,9.333333 0.666667,0 2.666667,0.333334 3.333334,0.666667 3,0.333333 4.666666,1.333333 4.666666,3.333333 0,2.666667 -2.333333,3.666667 -6,3.666667 -5.666666,0 -9,-1.666667 -10,-2 -2.666666,6 -2.666666,6 -2.666666,6 1,0.666667 4.666666,2.666667 12.333333,2.666667 7.333333,0 13.333333,-3.666667 13.333333,-10.333334 C -34,-34 -38,-36.333333 -43.333333,-37.333333 Z"
       id="path10" /><path
       style="fill:#ff0600;fill-opacity:1;fill-rule:nonzero;stroke:none"
       d="M 94.33333,-40 C 94.33333,-46 90,-51 81.66667,-51 72.33333,-51 69,-45.333333 69,-40 c 0,11 0,11 0,11 0,7.333333 4.66667,11.666667 12.66667,11.666667 7,0 10.66666,-4 12,-6.666667 -6,-3.333333 -6,-3.333333 -6,-3.333333 C 87.33333,-26 85,-24 81.66667,-24 77.33333,-24 76,-26.333333 76,-29.333333 75.66667,-31 75.66667,-31 75.66667,-31 c 18.66666,0 18.66666,0 18.66666,0 z m -7,3.333333 c -11.66666,0 -11.66666,0 -11.66666,0 0,-2.333333 0,-2.333333 0,-2.333333 0,-2.666667 1.33333,-5.666667 6,-5.666667 4.33333,0 5.66666,3 5.66666,5.333334 z"
       id="path11" /><path
       style="fill:#ff0600;fill-opacity:1;fill-rule:nonzero;stroke:none"
       d="m 99,-40 c 0,22 0,22 0,22 6.66667,0 6.66667,0 6.66667,0 0,-21.333333 0,-21.333333 0,-21.333333 0,-2 1.33333,-5 6.33333,-5 0.66667,0 2.66667,0 3,0.333333 0,-6.666667 0,-6.666667 0,-6.666667 C 114.33333,-51 113,-51 111.66667,-51 102.66667,-51 99,-45.666667 99,-40 Z"
       id="path12" /></g></svg>
