<?xml version="1.0" encoding="UTF-8" standalone="no"?>
<svg
   width="163.29279"
   height="28.575125"
   viewBox="0 0 163.29279 28.575125"
   fill="none"
   version="1.1"
   id="svg1"
   sodipodi:docname="client-01.svg"
   xml:space="preserve"
   inkscape:version="1.4.2 (f4327f4, 2025-05-13)"
   xmlns:inkscape="http://www.inkscape.org/namespaces/inkscape"
   xmlns:sodipodi="http://sodipodi.sourceforge.net/DTD/sodipodi-0.dtd"
   xmlns="http://www.w3.org/2000/svg"
   xmlns:svg="http://www.w3.org/2000/svg"><sodipodi:namedview
     id="namedview1"
     pagecolor="#ffffff"
     bordercolor="#000000"
     borderopacity="0.25"
     inkscape:showpageshadow="2"
     inkscape:pageopacity="0.0"
     inkscape:pagecheckerboard="0"
     inkscape:deskcolor="#d1d1d1"
     inkscape:zoom="4.0923423"
     inkscape:cx="113.01596"
     inkscape:cy="43.373693"
     inkscape:window-width="1920"
     inkscape:window-height="1009"
     inkscape:window-x="1912"
     inkscape:window-y="-8"
     inkscape:window-maximized="1"
     inkscape:current-layer="svg1"><inkscape:page
       x="0"
       y="0"
       width="163.29279"
       height="28.575125"
       id="page2"
       margin="0"
       bleed="0" /></sodipodi:namedview><defs
     id="defs1"><clipPath
       id="clip0_69_11452"><rect
         width="110"
         height="21"
         fill="#ffffff"
         transform="translate(0.503906)"
         id="rect1"
         x="0"
         y="0" /></clipPath><pattern
       id="EMFhbasepattern"
       patternUnits="userSpaceOnUse"
       width="6"
       height="6"
       x="0"
       y="0" /><pattern
       id="EMFhbasepattern-1"
       patternUnits="userSpaceOnUse"
       width="6"
       height="6"
       x="0"
       y="0" /></defs><style
     type="text/css"
     id="style1">
	.st0{fill-rule:evenodd;clip-rule:evenodd;fill:#2E000A;}
	.st1{fill-rule:evenodd;clip-rule:evenodd;fill:#FFFFFF;}
	.st2{fill:#FF335E;}
	.st3{fill:#FFFFFF;}
</style><g
     id="g2"
     transform="matrix(0.46044351,0,0,0.46044351,8.0670425,-13.93916)"><path
       style="fill:#00b6f1;fill-opacity:1;fill-rule:nonzero;stroke:none"
       d="M 46.666667,46.670533 C 45,48.3372 43.333333,50.3372 42.333333,52.3372 c -2,-1 -2,-1 -2,-1 0,-1 -1.333333,-2 -2.333333,-1.666667 -1.333333,0 -2.333333,1.333333 -2,2.666667 0,1.333333 1.333333,2 2.333333,2 0.333334,0 0.666667,0 1,-0.333334 1.666667,1 1.666667,1 1.666667,1 -1,2.333334 -1.666667,4.333334 -2,6.666667 2.666667,0.666667 2.666667,0.666667 2.666667,0.666667 1,-5 3.333333,-9.666667 7,-13.666667 z"
       id="path1" /><path
       style="fill:#00b6f1;fill-opacity:1;fill-rule:nonzero;stroke:none"
       d="m 68,37.670533 c -0.666667,0 -1.333333,0 -2,0 C 65.666667,35.3372 65.666667,35.3372 65.666667,35.3372 c 0.666666,-0.666667 1,-1.666667 1,-2.666667 C 66.333333,31.003866 65,30.003866 63.666667,30.3372 62,30.3372 61,31.670533 61,33.3372 c 0.333333,1 1,2 1.666667,2.333333 C 63,38.003866 63,38.003866 63,38.003866 60.333333,38.3372 57.666667,39.3372 55,40.670533 56.333333,43.3372 56.333333,43.3372 56.333333,43.3372 60,41.3372 63.666667,40.670533 68,40.670533 c 2,0 3.666667,0 5.666667,0.666667 0.666666,-3 0.666666,-3 0.666666,-3 C 72.333333,38.003866 70,37.670533 68,37.670533 Z"
       id="path2" /><path
       style="fill:#00b6f1;fill-opacity:1;fill-rule:nonzero;stroke:none"
       d="m 93.666667,47.670533 c 1.333333,-0.333333 2,-1.333333 2,-2.666667 -0.333334,-1.333333 -1.333334,-2.333333 -2.666667,-2 -1.333333,0 -2,1 -2,2.333334 -1.666667,1.333333 -1.666667,1.333333 -1.666667,1.333333 -1.666666,-1.666667 -3.666666,-3 -5.666666,-4.333333 -1.333334,2.333333 -1.333334,2.333333 -1.333334,2.333333 4.333334,3 7.666667,7 10,11.666667 C 95,55.003866 95,55.003866 95,55.003866 c -1,-2.333333 -2.333333,-4.333333 -3.666667,-6 1.333334,-1.333333 1.333334,-1.333333 1.333334,-1.333333 0.333333,0 0.666666,0 1,0 z"
       id="path3" /><path
       style="fill:#00b6f1;fill-opacity:1;fill-rule:nonzero;stroke:none"
       d="m 65.666667,77.670533 c -1.333334,0 -3,0 -4.333334,0 -3.333333,0 -6.666666,0 -9.666666,-0.666667 -1.666667,-0.333333 -3.333334,-0.666666 -5,-1 4,7 12,12 21,12 11,0 20.333333,-7.333333 23,-17.666666 C 88,72.3372 85,73.670533 81,75.003866 76.666667,76.3372 71.333333,77.3372 65.666667,77.670533 Z"
       id="path4" /><path
       style="fill:#00b6f1;fill-opacity:1;fill-rule:nonzero;stroke:none"
       d="m 68,43.670533 c -13,0 -23.666667,10.333333 -23.666667,23.333333 0,1.666667 0,3.333334 0.333334,4.666667 2.666666,2 10.666666,3.666667 21,3 11,-0.666667 20.333333,-3.666667 26,-8.333333 0,-1 -0.333334,-1.666667 -0.333334,-2.333334 C 90,52.3372 79.666667,43.670533 68,43.670533 Z m -8.666667,25.333333 c -4,0 -7,-3 -7,-7 0,-4 3.333334,-7.333333 7,-7.333333 4,0 7.333334,3.333333 7.333334,7.333333 0,4 -3.333334,7 -7.333334,7 z M 78,65.670533 c -3,0 -5.333333,-2.666667 -5.333333,-5.333333 0,-3 2.333333,-5.333334 5.333333,-5.333334 2.666667,0 5,2.333334 5,5.333334 0.333333,2.666666 -2.333333,5.333333 -5,5.333333 z"
       id="path5" /><path
       style="fill:#00b6f1;fill-opacity:1;fill-rule:nonzero;stroke:none"
       d="m 130,46.333333 c -1,-0.666666 -3,-1.333333 -5.33333,-1 -2,0.333334 -3.33334,1.333334 -3.33334,4 0,3.333334 0,3.333334 0,3.333334 8.66667,0 8.66667,0 8.66667,0 0,6.666666 0,6.666666 0,6.666666 -8.66667,0 -8.66667,0 -8.66667,0 0,21.333334 0,21.333334 0,21.333334 -7.33333,0 -7.33333,0 -7.33333,0 0,-21.333334 0,-21.333334 0,-21.333334 -5.33333,0 -5.33333,0 -5.33333,0 0,-6.666666 0,-6.666666 0,-6.666666 5.33333,0 5.33333,0 5.33333,0 0,-3.333334 0,-3.333334 0,-3.333334 0,-6.666666 3.33333,-11 10,-11 2.33333,0 4.33333,0.333334 6,1 z"
       id="path6" /><path
       style="fill:#00b6f1;fill-opacity:1;fill-rule:nonzero;stroke:none"
       d="M 148.33333,59.333333 C 147.66667,59 147,59 146.33333,59 c -3.33333,0 -6,2.333333 -6,6.333333 0,15.333334 0,15.333334 0,15.333334 -7.33333,0 -7.33333,0 -7.33333,0 0,-28 0,-28 0,-28 7.33333,0 7.33333,0 7.33333,0 0,3 0,3 0,3 C 142,53 144.66667,52 148,52 c 1.66667,0 3.33333,0.333333 4.33333,1.333333 z"
       id="path7" /><path
       style="fill:#00b6f1;fill-opacity:1;fill-rule:nonzero;stroke:none"
       d="m 178,66.666667 c 0,1 0,2 0,2.666666 -19.66667,0 -19.66667,0 -19.66667,0 0.66667,4 3.66667,5.666667 7,5.666667 2.66667,0 5,-1 7,-2.666667 4.66667,5 4.66667,5 4.66667,5 -3.33333,3 -7.33333,4.333334 -12,4.333334 -8.66667,0 -14.33333,-6 -14.33333,-15 C 150.66667,58 156.33333,52 164.66667,52 172.66667,52 178,58 178,66.666667 Z M 158.33333,64 c 12.33334,0 12.33334,0 12.33334,0 -0.66667,-3.666667 -3,-5.666667 -6,-5.666667 C 161,58.333333 159,60.666667 158.33333,64 Z"
       id="path8" /><path
       style="fill:#00b6f1;fill-opacity:1;fill-rule:nonzero;stroke:none"
       d="m 208,66.666667 c 0,1 0,2 -0.33333,2.666666 -19.66667,0 -19.66667,0 -19.66667,0 0.66667,4 3.66667,5.666667 7,5.666667 2.66667,0 5.33333,-1 7.33333,-2.666667 4.33334,5 4.33334,5 4.33334,5 -3.33334,3 -7.33334,4.333334 -12,4.333334 -8.33334,0 -14.33334,-6 -14.33334,-15 C 180.33333,58 186,52 194.33333,52 202.33333,52 208,58 208,66.666667 Z M 188,64 c 12.33333,0 12.33333,0 12.33333,0 -0.66666,-3.666667 -2.66666,-5.666667 -6,-5.666667 -3.66666,0 -5.66666,2.333334 -6.33333,5.666667 z"
       id="path9" /><path
       style="fill:#00b6f1;fill-opacity:1;fill-rule:nonzero;stroke:none"
       d="M 240.33333,66.666667 C 240.33333,75 234.66667,81.333333 227,81.333333 c -4,0 -6.66667,-1.333333 -8.33333,-3.666666 0,14.666666 0,14.666666 0,14.666666 -7.33334,0 -7.33334,0 -7.33334,0 0,-39.666666 0,-39.666666 0,-39.666666 7.33334,0 7.33334,0 7.33334,0 0,3 0,3 0,3 C 220.33333,53.666667 223,52 227,52 c 7.66667,0 13.33333,6.333333 13.33333,14.666667 z m -22,0 c 0,4.333333 3,7.666666 7,7.666666 4.66667,0 7.33334,-3.333333 7.33334,-7.666666 C 232.66667,62.333333 230,59 225.33333,59 c -4,0 -7,3.333333 -7,7.666667 z"
       id="path10" /><path
       style="fill:#00b6f1;fill-opacity:1;fill-rule:nonzero;stroke:none"
       d="m 252.33333,43.333333 c 0,2.666667 -2,5 -4.66666,5 -2.66667,0 -5,-2.333333 -5,-5 0,-2.666666 2.33333,-4.666666 5,-4.666666 2.66666,0 4.66666,2 4.66666,4.666666 z m -1,37.333334 c -7.33333,0 -7.33333,0 -7.33333,0 0,-28 0,-28 0,-28 7.33333,0 7.33333,0 7.33333,0 z"
       id="path11" /><path
       style="fill:#00b6f1;fill-opacity:1;fill-rule:nonzero;stroke:none"
       d="m 264,62.666667 10.33333,-10 h 9.33334 L 270,66 283.66667,80.666667 h -9.33334 L 264,69.333333 v 11.333334 h -7.66667 V 39 H 264 Z"
       id="path12" /></g></svg>
