<?xml version="1.0" encoding="UTF-8" standalone="no"?>
<svg
   width="163.29279"
   height="28.575125"
   viewBox="0 0 163.29279 28.575125"
   fill="none"
   version="1.1"
   id="svg1"
   sodipodi:docname="client-01.svg"
   xml:space="preserve"
   inkscape:version="1.4.2 (f4327f4, 2025-05-13)"
   xmlns:inkscape="http://www.inkscape.org/namespaces/inkscape"
   xmlns:sodipodi="http://sodipodi.sourceforge.net/DTD/sodipodi-0.dtd"
   xmlns="http://www.w3.org/2000/svg"
   xmlns:svg="http://www.w3.org/2000/svg"><sodipodi:namedview
     id="namedview1"
     pagecolor="#ffffff"
     bordercolor="#000000"
     borderopacity="0.25"
     inkscape:showpageshadow="2"
     inkscape:pageopacity="0.0"
     inkscape:pagecheckerboard="0"
     inkscape:deskcolor="#d1d1d1"
     inkscape:zoom="4.0923423"
     inkscape:cx="88.091359"
     inkscape:cy="59.501376"
     inkscape:window-width="1920"
     inkscape:window-height="1009"
     inkscape:window-x="1912"
     inkscape:window-y="-8"
     inkscape:window-maximized="1"
     inkscape:current-layer="svg1"><inkscape:page
       x="0"
       y="0"
       width="163.29279"
       height="28.575125"
       id="page2"
       margin="0"
       bleed="0" /></sodipodi:namedview><defs
     id="defs1"><clipPath
       id="clip0_69_11452"><rect
         width="110"
         height="21"
         fill="#ffffff"
         transform="translate(0.503906)"
         id="rect1"
         x="0"
         y="0" /></clipPath><pattern
       id="EMFhbasepattern"
       patternUnits="userSpaceOnUse"
       width="6"
       height="6"
       x="0"
       y="0" /><pattern
       id="EMFhbasepattern-1"
       patternUnits="userSpaceOnUse"
       width="6"
       height="6"
       x="0"
       y="0" /><pattern
       id="EMFhbasepattern-2"
       patternUnits="userSpaceOnUse"
       width="6"
       height="6"
       x="0"
       y="0" /><pattern
       id="EMFhbasepattern-6"
       patternUnits="userSpaceOnUse"
       width="6"
       height="6"
       x="0"
       y="0" /><pattern
       id="EMFhbasepattern-3"
       patternUnits="userSpaceOnUse"
       width="6"
       height="6"
       x="0"
       y="0" /><pattern
       id="EMFhbasepattern-21"
       patternUnits="userSpaceOnUse"
       width="6"
       height="6"
       x="0"
       y="0" /><pattern
       id="EMFhbasepattern-8"
       patternUnits="userSpaceOnUse"
       width="6"
       height="6"
       x="0"
       y="0" /></defs><style
     type="text/css"
     id="style1">
	.st0{fill-rule:evenodd;clip-rule:evenodd;fill:#2E000A;}
	.st1{fill-rule:evenodd;clip-rule:evenodd;fill:#FFFFFF;}
	.st2{fill:#FF335E;}
	.st3{fill:#FFFFFF;}
</style><g
     id="g3"
     transform="matrix(0.46449821,0,0,0.45606863,31.549131,20.21503)"><path
       style="fill:#8be657;fill-opacity:1;fill-rule:nonzero;stroke:none"
       d="m 194.33333,-39 c -5.33333,-8 -16.66666,-6.333333 -21.66666,-0.666667 -2.66667,3 -3.66667,7.333334 -3.33334,11 0.33334,3 1.33334,5.666667 3,7.666667 3.66667,4.666667 10.66667,5.333333 15,2.333333 6.33334,-4.666666 5.66667,-12 2.33334,-16 -6,-7.333333 -16.33334,0 -12.33334,8 1,2.333334 3,3.333334 5,3.333334 C 185,-23.666667 187.33333,-27 186,-29 c -1.33333,-2 -3.66667,0 -2.66667,1.666667 0.66667,1.333333 -1,2 -1.66666,1.666666 -1.66667,-0.333333 -2.66667,-3 -2,-5 C 180.33333,-32.666667 182,-34 184,-34 c 2.33333,0.333333 5.33333,2.333333 5,7 -0.66667,7.333333 -9.66667,8.666667 -13.33333,3.333333 -6,-8.333333 1,-19.666666 11.33333,-16.333333 5.33333,2 9,8.333333 6.66667,15.333333 -1,2.666667 -1.33334,3.333334 -1.66667,4.333334 -0.33333,3.333333 10,-7 2.33333,-18.666667 z"
       id="path1" /><path
       style="fill:#ffffff;fill-opacity:1;fill-rule:nonzero;stroke:none"
       d="m 261,-2.333333 c -7.66667,8 -7.66667,8 -7.66667,8 -1,1 -2,1.333333 -3.33333,0.666666 -1.33333,-1 -2,-2 -1.66667,-3.333333 0,-1 0.33334,-1.333333 1,-2 C 251,-1 253,-3 254.66667,-5 c -2,0 -3.33334,-0.333333 -5.33334,0 -3.66666,1 -6,4.666667 -6,8.333333 0,3.666667 2.33334,7.333334 6.33334,8.333334 0.33333,0 0.66666,0 0.66666,0 2.33334,0.333333 4.33334,0 6.33334,0 2.66666,0.333333 3.33333,2.666666 2.66666,4.666666 -0.66666,1.333334 -1.33333,2 -3,2 -5,0 -5,0 -5,0 -3,0 -5.66666,-0.666666 -8,-2.333333 -2.33333,-2 -4,-4 -5,-7 C 237,5.333333 237,1.666667 238,-2 c 1.33333,-3.666667 3.66667,-6.666667 7.33333,-8.333333 0.33334,-0.333334 0.33334,-0.333334 0.33334,-0.333334 3,-1.333333 6,-1.333333 9.33333,-0.666666 1.33333,0.333333 2.33333,1 3.66667,1.666666 1.33333,1 2.33333,1.666667 3.33333,3 0.66667,1.666667 0.33333,3 -1,4.333334 M 184.33333,15 c 0,1.666667 -0.33333,2.666667 -1.66666,3.333333 -0.66667,0 -1.33334,0 -2,-0.333333 -1,-0.666667 -1.33334,-1.666667 -1.33334,-3 0,-23.666667 0,-23.666667 0,-23.666667 C 179.66667,-10 179.66667,-11 181,-11.666667 181.66667,-12 182.66667,-12 183.66667,-11.333333 c 0.66666,0.666666 0.66666,1.666666 0.66666,2.666666 0,23.666667 0,23.666667 0,23.666667 M 172,5.666667 c 0,0.666666 0,1.333333 -0.33333,2 -0.33334,4.666666 -3,8.666666 -7.66667,10 -3,1 -6,0.666666 -8.66667,-0.666667 -2.66666,-1.666667 -4,-3.666667 -5.33333,-6.333333 -0.33333,-1.666667 -0.66667,-3.333334 -0.66667,-5 0,-21.666667 0,-21.666667 0,-21.666667 0,-1.333333 0.33334,-2.666667 2,-3.333333 2,-0.333334 3.33334,0.666666 4,2.666666 0,1.666667 0,3.333334 0,5 13.66667,0 13.66667,0 13.66667,0 1.66667,0 2.66667,1 3,2.666667 0,1 0,1.666667 -0.33333,2.666667 -1,1 -1.66667,1 -2.66667,1.333333 -13.66667,0 -13.66667,0 -13.66667,0 0,10.666667 0,10.666667 0,10.666667 0,1.666666 0.33334,3 1.33334,4.333333 0.66666,0.333333 0.66666,0.333333 0.66666,0.333333 2,2 4.66667,2 6.66667,0 1.33333,-1.333333 2,-2.666666 2,-4.666666 0,-1.333334 0,-2 1,-3 0.66667,-1 2,-1 3.33333,-0.666667 C 171.66667,2.666667 172,4 172,5.666667 m -39,-9.333334 c -0.66667,1 -1,1.666667 -1,2.666667 0,2.666667 0,5.333333 0,8 0,1 -0.33333,2.333333 -0.66667,3.333333 -0.66666,3.333334 -3,6.333334 -6.33333,7.666667 -1.33333,0.333333 -5,0.666667 -6.33333,0.333333 -2,-1 -2.33334,-3.333333 -1.66667,-5.333333 0.66667,-1 1.33333,-1.333333 2.66667,-1.333333 0.66666,0 4,-0.333334 4.66666,-0.666667 1,-0.666667 1.33334,-1.666667 1.66667,-3 0,-0.666667 0,-0.666667 0,-0.666667 0.33333,-2.666666 0.33333,-5 0.33333,-7.666666 0,-1 0,-1.666667 0,-2.333334 0.66667,-4 3,-7.333333 6.66667,-8.666666 1.33333,-0.333334 5.66667,-0.666667 6.66667,-0.333334 2,0.666667 2.66666,3 1.66666,4.666667 -0.33333,1 -1,1.666667 -2,1.666667 -1.66666,0.333333 -5,0.666666 -6.33333,1.666666 m -29.66667,4 c 0,-2 -1,-3.666666 -2.66666,-5 -1.66667,-1 -3.33334,-1 -5,0 -0.66667,0.333334 -1,0.666667 -1.33334,1 C 93.66667,-3 93.66667,-3 93.66667,-3 c 0,17.333333 0,17.333333 0,17.333333 0,1.666667 -0.66667,2.666667 -2,3.333334 -1,0 -1.66667,0 -2.33334,-0.333334 -1,-0.666666 -1.33333,-1.666666 -1.33333,-3 0,-14 0,-14 0,-14 C 87.66667,-2 86.66667,-3.666667 84.66667,-5 83,-5.333333 82,-5.333333 80.66667,-5 c -2,1 -3,2.333333 -3.33334,4.333333 0,0.333334 0,0.666667 0,1 0,14 0,14 0,14 0,2.333334 -1.66666,3.666667 -4,3.333334 C 72,17 71.33333,16 71.33333,14.333333 c 0,-13.666666 0,-13.666666 0,-13.666666 0,-1.333334 0.33334,-2.333334 0.33334,-3.333334 1,-3.666666 3.33333,-7 7,-8.333333 3,-1 6,-1 8.66666,0.333333 1,0.666667 2,1.333334 3,2.333334 0.33334,-0.333334 1,-1 1.33334,-1.333334 3,-2 6,-2.666666 9.66666,-1.666666 2,0.666666 3.33334,1.666666 4.66667,3 0.66667,1 1,1.666666 1.66667,2.333333 1,2 1.33333,4.333333 1.33333,6.666667 0,14.666666 0,14.666666 0,14.666666 C 109,16.666667 108.66667,17 107.66667,18 c -1,0.333333 -2,0.333333 -3,0 -1,-0.666667 -1.33334,-1.333333 -1.33334,-2.666667 0,-14.666666 0,-14.666666 0,-14.666666 M 51.333333,18.333333 c -0.666666,0 -0.666666,0 -0.666666,0 C 47.666667,18 45.666667,17 43.333333,15 c -0.666666,-0.333333 -0.666666,-0.333333 -0.666666,-0.333333 -2,-2.666667 -3,-5 -3.666667,-8.333334 -0.333333,-3 -0.333333,-6 0.666667,-9 C 40,-3.333333 40,-3.333333 40,-3.333333 c 1,-3 2.666667,-5 5.333333,-6.666667 C 46,-10.333333 46,-10.333333 46,-10.333333 c 2.666667,-1.666667 6,-2 9,-1 C 55.66667,-11 55.66667,-11 55.66667,-11 c 3.33333,1.666667 5.66666,4.333333 7,7.666667 C 63.66667,-1 64,1 64,3.333333 64,15 64,15 64,15 c 0,1.666667 -0.66667,2.666667 -2,3.333333 -0.66667,0 -1.33333,0 -2.33333,-0.333333 -1,-0.666667 -1.33334,-1.666667 -1.33334,-3 0,-11.666667 0,-11.666667 0,-11.666667 C 58.33333,0 57,-3 54.33333,-4.333333 c -1.666663,-1 -3.666663,-1 -5.33333,-0.333334 -3,1.333334 -4.333333,4 -4.666667,7 C 44,4.666667 44.666667,6.666667 45.666667,8.666667 c 1.333333,1.666666 3,2.666666 5,3 1,0 1.666666,0 2.333333,0.666666 1,1 1.33333,2.333334 1,3.666667 -0.33333,1.666667 -1.333333,2.333333 -2.666667,2.333333 m -22,-20.666666 c -7.333333,8 -7.333333,8 -7.333333,8 -1,1 -2,1.333333 -3.666667,0.666666 -1,-1 -1.666666,-2 -1.333333,-3.666666 C 17,2 17.333333,1.333333 18,1 c 1.666667,-2 3.333333,-4 5.333333,-6 -2,0 -3.666666,-0.333333 -5.333333,0 -2.333333,0.666667 -4,2.333333 -5,4.333333 -1.333333,3 -1,6.333334 1,9.333334 1,1.333333 2,2 3.666667,2.666666 2.666666,1 11,0 13.666666,0.333334 C 33.666667,12.333333 34,14.333333 33.666667,16 c -0.333334,1.666667 -1.333334,2.333333 -3,2.333333 -10.666667,0 -10.666667,0 -10.666667,0 -1,0 -2,0 -3,-0.333333 C 13,17 10.333333,15 8.333333,11.666667 8,11 8,11 8,11 5.666667,6.666667 5.666667,2 7,-2.666667 c 0.333333,-0.666666 0.333333,-0.666666 0.333333,-0.666666 1.333334,-3 3.333334,-5 6,-6.666667 C 14,-10.333333 14,-10.333333 14,-10.333333 17,-12 20.666667,-12.333333 24,-11 c 1.666667,0.333333 3,1 4.333333,2.333333 1.666667,1.333334 3,2.666667 2,5 -0.333333,0.666667 -0.666666,1 -1,1.333334 m -38,3 c 0,14.333333 0,14.333333 0,14.333333 0,1.666667 -0.666666,2.666667 -2,3.333333 -0.666666,0 -1.333333,0 -2,-0.333333 -1,-0.666667 -1.333333,-1.666667 -1.333333,-3 0,-14.333333 0,-14.333333 0,-14.333333 0,-1 0,-2 0.333333,-3 0.666667,-4 3,-7.333334 6.333334,-8.666667 1,-0.666667 2.333333,-1 3.666666,-0.666667 1.333334,0 2.333334,1.333334 2.333334,3 -0.333334,1.333334 -0.333334,2 -1,2.666667 -1,0.666667 -1.333334,0.666667 -2.333334,1 -1.666666,0.333333 -2.666666,1.333333 -3.666666,3 -0.333334,1 -0.333334,1.666667 -0.333334,2.666667 M -34,-3.666667 c -0.333333,0 -0.666667,0 -1,0 -3.666667,0.333334 -5.666667,3.666667 -6,7 -0.333333,1 0,1.666667 0,2.333334 0.666667,3.333333 2.666667,6 6.333333,6.333333 C -34,12.333333 -33,12 -32,12 c 3,-1.333333 5,-4.333333 5,-7.666667 0,-23 0,-23 0,-23 0,-1.333333 0.666667,-2.666666 2,-3 1.666667,-0.666666 3,0.333334 3.333333,2.333334 0,0 0,0.333333 0,0.666666 0,23 0,23 0,23 0,1.333334 0,2.666667 -0.333333,4 -1,4 -3.666667,7.333334 -7.333333,9 -0.333334,0.333334 -0.333334,0.333334 -0.333334,0.333334 -2.666666,1 -5.333333,1 -8.333333,0 -0.333333,0 -0.333333,0 -0.333333,0 -3,-1.333334 -5,-3.333334 -6.666667,-6 C -45.333333,11 -45.333333,11 -45.333333,11 -47,7 -47,2.666667 -45.666667,-1.333333 c 0,-0.666667 0,-0.666667 0,-0.666667 1.333334,-2.666667 3,-4.666667 5.666667,-6.333333 2,-1 4,-1.666667 6.333333,-1.666667 2,0.333333 2.666667,2.333333 2.333334,4.333333 -0.666667,1.333334 -1.333334,2 -2.666667,2 m 258,4 C 223.66667,-2 222.66667,-3.666667 220.66667,-5 c -1.66667,-0.666667 -3.33334,-0.333333 -5,0.666667 -0.66667,0.333333 -1,1 -1.33334,1.333333 0,17.333333 0,17.333333 0,17.333333 0,1.666667 -0.66666,2.666667 -2,3.333334 -1,0 -1.66666,0 -2.33333,-0.333334 -1.33333,-0.666666 -1.33333,-1.666666 -1.66667,-3 0,-14 0,-14 0,-14 0,-2 -0.66666,-3.666666 -2.66666,-5 -1.66667,-0.666666 -3,-1 -4.66667,-0.333333 -1.66667,1 -2.66667,2.333333 -3,4.333333 0,0.333334 0,0.666667 -0.33333,1 0,14 0,14 0,14 C 197.66667,16.666667 196.33333,18 194,17.666667 192.66667,17 192,16 192,14.333333 c 0,-13.666666 0,-13.666666 0,-13.666666 0,-1.333334 0,-2.333334 0.33333,-3.333334 1,-3.666666 3.33334,-7 7,-8.333333 3,-1 5.66667,-1 8.66667,0.333333 1,0.666667 2,1.333334 3,2.333334 0.66667,-1 0.66667,-1 0.66667,-1 3,-2.333334 6,-3 9.66666,-2 0.66667,0 0.66667,0 0.66667,0 3,1 5.33333,3.333333 6.66667,6.333333 0.66666,2 1,3.666667 1,5.666667 0,14.666666 0,14.666666 0,14.666666 C 229.66667,16.666667 229.33333,17 228.33333,18 227,18.666667 226,18.333333 224.66667,17.666667 224,17 224,16.333333 224,15.333333 Z"
       id="path2" /></g></svg>
