<?xml version="1.0" encoding="UTF-8" standalone="no"?>
<!-- Generator: Adobe Illustrator 24.0.0, SVG Export Plug-In . SVG Version: 6.00 Build 0)  -->

<svg
   version="1.1"
   id="Layer_1"
   x="0px"
   y="0px"
   viewBox="0 0 48 48"
   style="enable-background:new 0 0 48 48;"
   xml:space="preserve"
   sodipodi:docname="logo.svg"
   inkscape:version="1.4.2 (f4327f4, 2025-05-13)"
   xmlns:inkscape="http://www.inkscape.org/namespaces/inkscape"
   xmlns:sodipodi="http://sodipodi.sourceforge.net/DTD/sodipodi-0.dtd"
   xmlns="http://www.w3.org/2000/svg"
   xmlns:svg="http://www.w3.org/2000/svg"><defs
   id="defs11" /><sodipodi:namedview
   id="namedview11"
   pagecolor="#ffffff"
   bordercolor="#000000"
   borderopacity="0.25"
   inkscape:showpageshadow="2"
   inkscape:pageopacity="0.0"
   inkscape:pagecheckerboard="0"
   inkscape:deskcolor="#d1d1d1"
   inkscape:zoom="17.729167"
   inkscape:cx="24"
   inkscape:cy="24"
   inkscape:window-width="1920"
   inkscape:window-height="1009"
   inkscape:window-x="1912"
   inkscape:window-y="-8"
   inkscape:window-maximized="1"
   inkscape:current-layer="Layer_1" />
<style
   type="text/css"
   id="style1">
	.st0{fill:url(#SVGID_1_);}
	.st1{fill:url(#SVGID_2_);}
	.st2{fill:url(#SVGID_3_);}
	.st3{fill:url(#SVGID_4_);}
	.st4{fill:url(#SVGID_5_);}
</style>
<g
   id="g11">
	<g
   id="g10">
		
			<linearGradient
   id="SVGID_1_"
   gradientUnits="userSpaceOnUse"
   x1="32.6203"
   y1="-91.1526"
   x2="22.9877"
   y2="-91.7364"
   gradientTransform="matrix(1 0 0 -1 0 -61.7)">
			<stop
   offset="0"
   style="stop-color:#701EFC"
   id="stop1" />
			<stop
   offset="1"
   style="stop-color:#CBB3F3"
   id="stop2" />
		</linearGradient>
		<path
   class="st0"
   d="M27.6,26.4l5.8,4.6c0.6,0.4,0.6,1.2,0,1.6L32.8,33c-0.2,0.2-0.8,0.2-1,0l-5.8-4.6c-0.4-0.4-0.6-1.2,0-1.6    l0.6-0.4C27,26,27.4,26,27.6,26.4z"
   id="path2" />
		
			<linearGradient
   id="SVGID_2_"
   gradientUnits="userSpaceOnUse"
   x1="32.766"
   y1="-83.7084"
   x2="-0.9868"
   y2="-85.7541"
   gradientTransform="matrix(1 0 0 -1 0 -61.7)">
			<stop
   offset="0"
   style="stop-color:#701EFC"
   id="stop3" />
			<stop
   offset="1"
   style="stop-color:#CBB3F3"
   id="stop4" />
		</linearGradient>
		<path
   class="st1"
   d="M30.5,4.8c0.2-0.2,0.8-0.2,1.2,0.2l4.8,3.6L18.9,20.2l0,0l-3.3,2.2c-0.8,0.6-1.5,1.4-1.5,2.6v2.2    c0,1.2,0.6,2.2,1.5,3l8.7,6.8c0.6,0.4,0.6,1.4,0,1.6L22.2,40c-0.2,0.2-0.8,0.2-1,0l-8.7-6.8c-1.9-1.4-2.9-3.6-2.9-5.8V24    c0-2,1.2-4.2,2.7-5.2L29.4,7.4l-0.8-0.6c-0.2-0.2-0.2-0.8,0-0.8L30.5,4.8z"
   id="path4" />
		
			<linearGradient
   id="SVGID_3_"
   gradientUnits="userSpaceOnUse"
   x1="34.4314"
   y1="-85.0464"
   x2="-11.6328"
   y2="-87.838"
   gradientTransform="matrix(1 0 0 -1 0 -61.7)">
			<stop
   offset="0"
   style="stop-color:#701EFC"
   id="stop5" />
			<stop
   offset="1"
   style="stop-color:#CBB3F3"
   id="stop6" />
		</linearGradient>
		<path
   class="st2"
   d="M41.1,34.6c0.4,0.6,0.4,1.4-0.2,1.6L23.6,47.6c-0.8,0.6-2.1,0.4-3.1-0.2l-16.8-13c-0.6-0.4-1-1.4-1-2.2v-13    c0-1.4,0.6-2.4,1.5-3.2L23.4,3.4l-1.2-0.8c-0.2-0.2-0.2-0.6,0-1l2.3-1.4c0.2-0.2,0.4-0.2,0.6,0l5.4,4.2l-22,14.4    c-0.8,0.6-1.5,1.8-1.5,3.2l0.2,7.8c0,0.8,0.4,1.6,1,2.2l12.4,9.8c0.8,0.8,2.1,0.8,3.1,0.2l14.3-9.4c0.4-0.2,0.8-0.2,1.5,0.2    L41.1,34.6z"
   id="path6" />
		
			<linearGradient
   id="SVGID_4_"
   gradientUnits="userSpaceOnUse"
   x1="38.7659"
   y1="-84.2784"
   x2="8.2718"
   y2="-86.1265"
   gradientTransform="matrix(1 0 0 -1 0 -61.7)">
			<stop
   offset="0"
   style="stop-color:#701EFC"
   id="stop7" />
			<stop
   offset="1"
   style="stop-color:#CBB3F3"
   id="stop8" />
		</linearGradient>
		<path
   class="st3"
   d="M36.3,9.4c0.2-0.2,0.8-0.2,1.2,0.2l4.8,3.6l-18.2,12c-0.6,0.4-0.8,1.2-0.8,2v0.2c0,0.8,0.4,1.6,1,2l5.4,4.2    c0.6,0.4,0.6,1.4,0,1.6l-2.1,1.4c-0.2,0.2-0.8,0.2-1-0.2l-6-4.4c-1-0.8-2.7-2.2-2.7-3.6v-3.6c0-1.4,1.7-2.4,2.7-3L35,12.2    l-0.8-0.6c-0.2-0.2-0.2-0.6,0-0.8L36.3,9.4z"
   id="path8" />
		
			<linearGradient
   id="SVGID_5_"
   gradientUnits="userSpaceOnUse"
   x1="44.484"
   y1="-93.388"
   x2="38.127"
   y2="-93.7733"
   gradientTransform="matrix(1 0 0 -1 0 -61.7)">
			<stop
   offset="0"
   style="stop-color:#701EFC"
   id="stop9" />
			<stop
   offset="1"
   style="stop-color:#CBB3F3"
   id="stop10" />
		</linearGradient>
		<path
   class="st4"
   d="M45,33l-1.9,1.4c-0.4,0.2-1,0.2-1.5-0.2L40,32c-0.4-0.4-0.2-1.2,0.2-1.4l1.7-1.4c0.4-0.2,1-0.2,1.5,0.2l1.5,2    C45.4,32,45.4,32.6,45,33z"
   id="path10" />
	</g>
</g>
</svg>
