<?xml version="1.0" encoding="UTF-8" standalone="no"?>
<svg
   width="163.29279"
   height="28.575125"
   viewBox="0 0 163.29279 28.575125"
   fill="none"
   version="1.1"
   id="svg1"
   sodipodi:docname="client-01.svg"
   xml:space="preserve"
   inkscape:version="1.4.2 (f4327f4, 2025-05-13)"
   xmlns:inkscape="http://www.inkscape.org/namespaces/inkscape"
   xmlns:sodipodi="http://sodipodi.sourceforge.net/DTD/sodipodi-0.dtd"
   xmlns="http://www.w3.org/2000/svg"
   xmlns:svg="http://www.w3.org/2000/svg"><sodipodi:namedview
     id="namedview1"
     pagecolor="#ffffff"
     bordercolor="#000000"
     borderopacity="0.25"
     inkscape:showpageshadow="2"
     inkscape:pageopacity="0.0"
     inkscape:pagecheckerboard="0"
     inkscape:deskcolor="#d1d1d1"
     inkscape:zoom="4.0923423"
     inkscape:cx="88.091359"
     inkscape:cy="59.501376"
     inkscape:window-width="1920"
     inkscape:window-height="1009"
     inkscape:window-x="1912"
     inkscape:window-y="-8"
     inkscape:window-maximized="1"
     inkscape:current-layer="svg1"><inkscape:page
       x="0"
       y="0"
       width="163.29279"
       height="28.575125"
       id="page2"
       margin="0"
       bleed="0" /></sodipodi:namedview><defs
     id="defs1"><clipPath
       id="clip0_69_11452"><rect
         width="110"
         height="21"
         fill="#ffffff"
         transform="translate(0.503906)"
         id="rect1"
         x="0"
         y="0" /></clipPath><pattern
       id="EMFhbasepattern"
       patternUnits="userSpaceOnUse"
       width="6"
       height="6"
       x="0"
       y="0" /><pattern
       id="EMFhbasepattern-1"
       patternUnits="userSpaceOnUse"
       width="6"
       height="6"
       x="0"
       y="0" /><pattern
       id="EMFhbasepattern-2"
       patternUnits="userSpaceOnUse"
       width="6"
       height="6"
       x="0"
       y="0" /><pattern
       id="EMFhbasepattern-6"
       patternUnits="userSpaceOnUse"
       width="6"
       height="6"
       x="0"
       y="0" /><pattern
       id="EMFhbasepattern-3"
       patternUnits="userSpaceOnUse"
       width="6"
       height="6"
       x="0"
       y="0" /><pattern
       id="EMFhbasepattern-21"
       patternUnits="userSpaceOnUse"
       width="6"
       height="6"
       x="0"
       y="0" /><pattern
       id="EMFhbasepattern-8"
       patternUnits="userSpaceOnUse"
       width="6"
       height="6"
       x="0"
       y="0" /><pattern
       id="EMFhbasepattern-18"
       patternUnits="userSpaceOnUse"
       width="6"
       height="6"
       x="0"
       y="0" /></defs><style
     type="text/css"
     id="style1">
	.st0{fill-rule:evenodd;clip-rule:evenodd;fill:#2E000A;}
	.st1{fill-rule:evenodd;clip-rule:evenodd;fill:#FFFFFF;}
	.st2{fill:#FF335E;}
	.st3{fill:#FFFFFF;}
</style><path
     style="fill:#ffffff;fill-opacity:1;fill-rule:nonzero;stroke:none"
     d="m 133.14639,10.787562 c 4,0 4,0 4,0 5,0 9.33333,1.666667 9.33333,7.666667 0,5.666667 -5,7.666667 -9.33333,7.666667 -5.33334,0 -9.33334,-2 -9.33334,-7.333334 0,-1 0,-1 0,-1 5,0 5,0 5,0 0,1 0,1 0,1 0,0 0,0 0,0 0,2 2.33334,2.666667 4.33334,2.666667 1.33333,0 4.33333,-0.333333 4.33333,-3 0,-2.666667 -2.66667,-3 -4.33333,-3 -9,0 -9,0 -9,0 0,-12.6666673 0,-12.6666673 0,-12.6666673 17,0 17,0 17,0 0,4.666667 0,4.666667 0,4.666667 -12,0 -12,0 -12,0 z m -22.66667,15 c -9.66667,0 -9.66667,0 -9.66667,0 0,-23.0000003 0,-23.0000003 0,-23.0000003 9.66667,0 9.66667,0 9.66667,0 8,0 11.66667,5.333334 11.66667,11.3333343 0,6 -3.66667,11.666666 -11.66667,11.666666 z m 0,-18.3333333 c -4.33333,0 -4.33333,0 -4.33333,0 0,13.6666673 0,13.6666673 0,13.6666673 4.33333,0 4.33333,0 4.33333,0 5,0 6.33333,-3.666667 6.33333,-7 0,-3.333334 -1.33333,-6.6666673 -6.33333,-6.6666673 z M 77.813054,13.454229 c 0,12.333333 0,12.333333 0,12.333333 -5.33333,0 -5.33333,0 -5.33333,0 0,-23.3333333 0,-23.3333333 0,-23.3333333 0.66667,-0.333333 0.66667,-0.333333 0.66667,-0.333333 14.33333,12.6666663 14.33333,12.6666663 14.33333,12.6666663 0,-12.0000003 0,-12.0000003 0,-12.0000003 5,0 5,0 5,0 0,23.3333343 0,23.3333343 0,23.3333343 -0.33333,0 -0.33333,0 -0.33333,0 z m -23.999997,13 c -7.333333,0 -12.666666,-4.666667 -12.666666,-12.333333 0,-7.3333343 5.333333,-12.0000003 12.666666,-12.0000003 7.333334,0 12.333337,4.666666 12.333337,12.0000003 0,7.666666 -5.000003,12.333333 -12.333337,12.333333 z m 0,-19.6666673 c -4.333333,0 -7.666666,3.3333343 -7.666666,7.3333343 0,4.333333 3.333333,7.666666 7.666666,7.666666 4.333334,0 7.333334,-3.333333 7.333334,-7.666666 0,-4 -3,-7.3333343 -7.333334,-7.3333343 z M 27.479724,19.120896 c -3,0 -3,0 -3,0 0,-4.666667 0,-4.666667 0,-4.666667 3,0 3,0 3,0 2.666667,0 4,-1.666667 4,-3.333333 0,-2.0000003 -1.333333,-3.6666673 -4,-3.6666673 -5.666667,0 -5.666667,0 -5.666667,0 0,18.3333333 0,18.3333333 0,18.3333333 -5,0 -5,0 -5,0 0,-23.0000003 0,-23.0000003 0,-23.0000003 10.666667,0 10.666667,0 10.666667,0 6,0 9,3.666667 9,8.3333343 0,4.333333 -3,8 -9,8 z"
     id="path1" /></svg>
