<?xml version="1.0" encoding="UTF-8" standalone="no"?>
<!-- Created with Inkscape (http://www.inkscape.org/) -->

<svg
   width="200.35713"
   height="108.53298"
   viewBox="0 0 53.011157 28.716037"
   version="1.1"
   id="svg1"
   xml:space="preserve"
   inkscape:version="1.4.2 (f4327f4, 2025-05-13)"
   xmlns:inkscape="http://www.inkscape.org/namespaces/inkscape"
   xmlns:sodipodi="http://sodipodi.sourceforge.net/DTD/sodipodi-0.dtd"
   xmlns="http://www.w3.org/2000/svg"
   xmlns:svg="http://www.w3.org/2000/svg"
   xmlns:rdf="http://www.w3.org/1999/02/22-rdf-syntax-ns#"
   xmlns:cc="http://creativecommons.org/ns#"
   xmlns:dc="http://purl.org/dc/elements/1.1/"><defs
     id="defs1"><pattern
       id="EMFhbasepattern"
       patternUnits="userSpaceOnUse"
       width="6"
       height="6"
       x="0"
       y="0" /><pattern
       id="EMFhbasepattern-2"
       patternUnits="userSpaceOnUse"
       width="6"
       height="6"
       x="0"
       y="0" /></defs><sodipodi:namedview
     id="base"
     pagecolor="#ffffff"
     bordercolor="#000000"
     borderopacity="0.3"
     inkscape:pageopacity="0.0"
     inkscape:pageshadow="2"
     inkscape:zoom="2.8"
     inkscape:cx="65.892858"
     inkscape:cy="64.464287"
     inkscape:document-units="px"
     inkscape:showpageshadow="2"
     inkscape:pagecheckerboard="0"
     inkscape:deskcolor="#d1d1d1"
     inkscape:window-width="1920"
     inkscape:window-height="1009"
     inkscape:window-x="1912"
     inkscape:window-y="-8"
     inkscape:window-maximized="1"
     inkscape:current-layer="g1"
     showguides="true" /><metadata
     id="metadata1"><rdf:RDF><cc:Work
         rdf:about=""><dc:format>image/svg+xml</dc:format><dc:type
           rdf:resource="http://purl.org/dc/dcmitype/StillImage" /></cc:Work></rdf:RDF></metadata><g
     id="g1"
     transform="translate(0,-2.5066361)"><g
       id="g2"
       transform="matrix(0.89179756,0,0,0.89179756,2.1235937,5.1123926)"><path
         style="fill:#eb2027;fill-opacity:1;fill-rule:nonzero;stroke:none;stroke-width:0.264583"
         d="m 35.983345,10.267749 c -10.406947,0 -10.406947,0 -10.406947,0 -0.17639,0 -0.264584,0.176389 -0.264584,0.264584 0,0.881945 0,0.881945 0,0.881945 0,0.176388 0.08819,0.264583 0.264584,0.264583 7.761112,0 7.761112,0 7.761112,0 0,4.321529 0,4.321529 0,4.321529 -0.176389,-0.264583 -0.440973,-0.617361 -0.705556,-0.881944 -0.970138,-0.97014 -1.940278,-1.411112 -2.910418,-1.411112 -0.881944,0 -1.499304,0.440972 -2.116667,1.146528 -0.440971,0.617361 -0.705554,1.322917 -0.705554,2.028473 0,0.617361 0.08819,1.499306 0.61736,2.293056 0.617361,0.97014 1.675694,1.322917 2.557641,1.322917 1.234721,0 2.204861,-0.79375 2.204861,-1.940278 0,-0.617361 -0.352777,-1.058334 -0.881944,-1.499306 C 30.77987,16.79414 30.77987,16.79414 30.77987,16.79414 c 0,0.705556 0,0.705556 0,0.705556 0,0 0,0.0882 0,0.0882 0,0.08819 0,0.08819 0,0.08819 0,0.264584 -0.440971,0.617362 -0.881944,0.617362 -0.440973,0 -0.79375,-0.08819 -1.058334,-0.352778 -0.08819,-0.176389 -0.264583,-0.440973 -0.176389,-0.705556 0,-0.264584 0.0882,-0.529167 0.352779,-0.79375 0.176387,-0.352778 0.440971,-0.440973 0.881944,-0.440973 1.058334,0 1.940278,0.440973 2.645834,1.499306 0.529167,0.793751 0.881944,1.675695 0.881944,2.55764 0,2.204862 0,2.204862 0,2.204862 1.499307,0.881944 1.499307,0.881944 1.499307,0.881944 0.08819,0.08819 0.08819,0.08819 0.17639,0.08819 0.176387,0 0.264583,-0.176389 0.264583,-0.352778 0,0 0,0 0,0 0,-11.112503 0,-11.112503 0,-11.112503 0.617361,0 0.617361,0 0.617361,0 0.264583,0 0.352777,-0.17639 0.352777,-0.352778 0,-0.793751 0,-0.793751 0,-0.793751 0,-0.176389 -0.176388,-0.352778 -0.352777,-0.352778 z"
         id="path1" /><path
         style="fill:#eb2027;fill-opacity:1;fill-rule:nonzero;stroke:none;stroke-width:0.264583"
         d="m 56.709045,10.267749 c -9.26042,0 -9.26042,0 -9.26042,0 -1.234721,0 -1.234721,0 -1.234721,0 -2.645834,0 -2.645834,0 -2.645834,0 -0.17639,0 -0.352779,0.176389 -0.352779,0.264584 0,0 0,0 0,0 0,1.499306 0,1.499306 0,1.499306 -1.234721,-1.322917 -2.381251,-2.028473 -3.439585,-2.028473 -0.970137,0 -1.763888,0.176389 -2.469444,0.79375 -0.705557,0.529167 -1.058334,1.146529 -1.058334,1.940279 0,2.293056 2.557641,2.293056 3.175001,1.940278 0.17639,-0.08819 0.264583,-0.176389 0.440973,-0.176389 0.529167,0 0.705554,0.440973 0.705554,0.79375 0,0.529167 -0.79375,0.97014 -1.675694,0.97014 -0.529167,0 -0.79375,-0.176389 -1.058333,-0.440973 -0.352777,-0.617361 -0.352777,-0.617361 -0.352777,-0.617361 -0.264584,0.705556 -0.264584,0.705556 -0.264584,0.705556 -0.0882,0.176389 -0.17639,0.352778 -0.17639,0.617361 0,0.529167 0.264584,1.058334 0.793751,1.499306 0.440973,0.440972 0.97014,0.617361 1.5875,0.617361 0.97014,0 1.852084,-0.352777 2.381251,-1.058333 0.440973,-0.617362 0.61736,-1.234723 0.61736,-2.028473 0,-0.440972 -0.176387,-0.881945 -0.529167,-1.411112 -0.352777,-0.617361 -0.881943,-0.881944 -1.499304,-0.881944 -0.17639,0 -0.440973,0 -0.705557,0.08819 -0.08819,0.08819 -0.264583,0.176389 -0.352777,0.176389 -0.0882,0 -0.264583,-0.08819 -0.352779,-0.264583 -0.08819,-0.08819 -0.176387,-0.264584 -0.176387,-0.440973 0,-0.617361 0.529166,-1.146528 1.41111,-1.146528 0.08819,0 0.08819,0 0.08819,0 0.617363,0 1.234723,0.264584 1.76389,0.881945 0.440974,0.440972 0.793751,0.881944 1.146528,1.411111 0,8.202086 0,8.202086 0,8.202086 1.499306,0.881945 1.499306,0.881945 1.499306,0.881945 0.08819,0.08819 0.17639,0.08819 0.17639,0.08819 0.176387,0 0.352777,-0.176389 0.352777,-0.352777 0,0 0,0 0,0 0,-11.024309 0,-11.024309 0,-11.024309 0.97014,0 0.97014,0 0.97014,0 1.234721,0 1.234721,0 1.234721,0 0.0882,0 0.0882,0 0.0882,0 0,7.143752 0,7.143752 0,7.143752 1.852084,0.79375 1.852084,0.79375 1.852084,0.79375 0.08819,0 0.176388,0 0.176388,0 0.0882,0 0.264583,-0.176389 0.264583,-0.352778 0,-0.08819 0,-0.08819 0,-0.08819 0.35278,-2.028473 1.234723,-3.527779 2.73403,-4.409724 0,0.176389 0,0.264584 0,0.440972 0,0.352778 0,1.058334 0.08819,1.499306 0,0.264584 0,0.440973 0.08819,0.529167 0,0 0,0 0,0 0,0.881945 0.0882,2.116668 0.352779,2.998612 0.529167,1.76389 1.322917,2.204862 1.940278,2.204862 0.08819,0 0.08819,0 0.08819,0 0.35278,0 0.705557,-0.176389 0.881947,-0.352778 0.08819,-0.08819 0.264583,-0.264583 0.264583,-0.617361 0,-0.352778 -0.0882,-0.617361 -0.17639,-0.79375 -0.176389,-0.264584 -0.176389,-0.264584 -0.176389,-0.264584 -0.264584,0 -0.264584,0 -0.264584,0 -0.352777,0.176389 -0.44097,0.176389 -0.44097,0.08819 -0.0882,0 -0.0882,0 -0.0882,0 -0.08819,0 -0.08819,0 -0.176387,-0.08819 -0.0882,0 -0.264583,-0.176389 -0.440973,-0.705556 -0.08819,-0.440972 -0.17639,-0.970139 -0.17639,-1.322917 0,-2.293056 0.529167,-4.056945 1.234724,-4.409723 0.08819,0 0.08819,0 0.08819,0 0.0882,-0.08819 0.17639,-0.176389 0.17639,-0.264584 0,-0.08819 0,-0.176389 0,-0.176389 0,-0.08819 0,-0.08819 0,-0.08819 -0.352777,-0.705556 -1.146527,-1.234723 -2.204861,-1.499306 -0.0882,0 -0.0882,0 -0.0882,0 -0.08819,0 -0.08819,0 -0.08819,0 -0.881944,0.176389 -1.852084,0.79375 -3.086807,1.763889 -0.264584,0.264584 -0.617361,0.529167 -0.79375,0.793751 0,-2.822223 0,-2.822223 0,-2.822223 7.143752,0 7.143752,0 7.143752,0 0.17639,0 0.35278,-0.17639 0.35278,-0.352778 0,-0.793751 0,-0.793751 0,-0.793751 0,-0.176389 -0.17639,-0.352778 -0.35278,-0.352778 z"
         id="path2" /><path
         style="fill:#eb2027;fill-opacity:1;fill-rule:nonzero;stroke:none;stroke-width:0.264583"
         d="m 21.872229,14.060112 c 0,0.352778 0,0.705555 0,0.970139 -0.176389,1.411112 -0.529167,2.822223 -1.058334,4.056946 -0.176389,0.440972 -0.440972,0.970139 -0.79375,1.411111 -2.116667,3.35139 -5.90903,5.644446 -10.2305588,5.644446 -1.852084,0 -3.6159732,-0.440972 -5.2034737,-1.146528 -4.05694566,-1.852084 -6.9673633,-6.085418 -6.9673633,-10.936114 0,-4.7625018 2.82222324,-8.9076418 6.7027798,-10.8479201 -0.2645834,0.4409722 -0.6173612,0.7937503 -0.7937502,1.3229171 0,0 -0.088194,0 -0.088194,0.088194 0,0 0,0 0,0 C 3.2631958,4.799692 3.086807,4.8878864 2.9986123,5.0642755 2.7340289,5.1524695 2.6458345,5.4170533 2.3812511,5.5052476 c 0,0.088195 -0.088194,0.1763891 -0.088194,0.1763891 0,0 -0.088195,0.088194 -0.088195,0.088194 -0.088194,0 -0.088194,0.088195 -0.1763888,0.176389 -0.088195,0.176389 -0.2645834,0.3527778 -0.352778,0.4409725 -0.5291669,0.7055556 -0.97013906,1.411111 -1.23472246,2.204861 -0.088195,0 -0.088195,0.0882 -0.176389,0.17639 0,0.08819 0,0.176388 -0.088194,0.264583 0,0.08819 0,0.08819 0,0.176389 -0.088195,0.08819 -0.088195,0.264583 -0.17638890413048,0.352778 C -0.08819406,9.7385822 -0.08819406,9.8267762 -0.08819406,9.8267762 c 0,0.08819 -0.088194,0.08819 -0.088194,0.1763888 0,0.0882 0,0.176389 0,0.352778 -0.088195,0.264583 -0.1763889,0.617361 -0.1763889,0.881945 0,0.08819 0,0.176389 -0.088195,0.264583 0,0.08819 0,0.08819 0,0.176389 0,0.0882 0,0.264584 0,0.264584 0,0 0,0 0,0 0,0.08819 0,0.264583 0,0.352777 0,0.08819 0,0.264584 0,0.440973 0,3.263195 1.49930596,6.261807 3.96875116,8.202086 1.8520839,1.411111 4.14514,2.381251 6.6145848,2.381251 2.381251,0 4.409724,-0.705556 6.173613,-2.028473 1.322917,-0.881945 2.293056,-2.116668 3.086807,-3.439585 0.08819,-0.264583 0.176389,-0.352778 0.352778,-0.617361 0,0 0,0 0,0 0,0 0,0 0,0 0.617361,-1.234723 0.970139,-2.645834 0.970139,-4.14514 0,-0.08819 0,-0.176389 0,-0.352778 0,-0.352778 0,-0.705556 -0.08819,-1.058334 0.08819,0.0882 0.08819,0.0882 0.08819,0.0882 0.08819,0.176389 0.264583,0.264583 0.440972,0.440972 0.176389,-0.264583 0.264584,-0.529167 0.440973,-0.79375 0.08819,0.529167 0.176388,0.970139 0.264583,1.499306 0,0.440972 0,0.79375 0,1.146528 z"
         id="path3" /><path
         style="fill:#f79420;fill-opacity:1;fill-rule:nonzero;stroke:none;stroke-width:0.264583"
         d="M 11.200698,4.35872 C 8.9076422,0.21357984 8.9076422,0.21357984 8.9076422,0.21357984 5.2034739,1.8892748 2.6458341,5.6816371 2.6458341,10.003166 c 0,2.204862 0.6173613,4.233335 1.7638896,5.997224 -0.088195,-0.617361 -0.088195,-1.146528 -0.088195,-1.763889 0,-4.4979178 2.9104176,-8.2902805 6.8791693,-9.877781 z"
         id="path4" /><path
         style="fill:#eb2027;fill-opacity:1;fill-rule:nonzero;stroke:none;stroke-width:0.264583"
         d="m 12.964587,6.387193 c 0.97014,-0.2645835 1.940279,-0.3527781 2.998612,-0.3527781 0.617362,0 1.234723,0.088195 1.852084,0.176389 C 17.727089,4.35872 17.727089,4.35872 17.727089,4.35872 c -0.08819,-3.70416786 -0.08819,-3.70416786 -0.08819,-3.70416786 -0.440972,-0.0881944 -0.881945,-0.0881944 -1.322917,-0.0881944 -2.116667,0 -3.968751,0.61736126 -5.556251,1.76388936 C 11.994448,4.535109 11.994448,4.535109 11.994448,4.535109 9.7895862,5.3288593 8.0256972,6.9163598 6.8791688,8.8566382 6.350002,9.8267772 5.9090295,10.973305 5.7326408,12.208028 6.0854186,11.590666 6.4381964,10.973305 6.7909745,10.444138 8.2902802,8.5038602 10.495142,7.0045542 12.964587,6.387193 Z"
         id="path5" /><path
         style="fill:#f79420;fill-opacity:1;fill-rule:nonzero;stroke:none;stroke-width:0.264583"
         d="m 18.432645,4.2705256 c 0.08819,2.6458342 0.08819,2.6458342 0.08819,2.6458342 -0.881945,-0.2645834 -1.76389,-0.4409725 -2.734029,-0.4409725 -1.852083,0 -3.527779,0.5291669 -5.027084,1.4111119 C 8.9076382,9.0330272 7.4965261,10.796916 6.7909705,12.913584 7.4965261,11.943445 8.3784712,11.0615 9.4368042,10.444138 10.847916,9.4739992 12.7,8.8566382 14.552084,8.8566382 c 1.499306,0 2.822223,0.352778 4.056945,0.881945 0.881945,0.4409718 1.76389,0.9701388 2.469446,1.6756948 C 22.489586,9.2976102 22.489586,9.2976102 22.489586,9.2976102 24.341674,6.4753873 24.341674,6.4753873 24.341674,6.4753873 22.665979,5.1524702 20.637506,4.2705256 18.432645,4.2705256 Z"
         id="path6" /><path
         style="fill:#f79420;fill-opacity:1;fill-rule:nonzero;stroke:none;stroke-width:0.264583"
         d="m 20.725701,12.825389 c 0,0.0882 0,0.176389 0,0.352778 0,2.204862 -0.881945,3.968751 -0.970139,4.14514 0,0 0,0 0,0 0,0 0,0 0,0 -0.176389,0.264584 -0.264584,0.352778 -0.352778,0.617362 -0.793751,1.322917 -1.76389,2.557639 -3.086807,3.439584 -1.763889,1.234723 -3.792362,2.028473 -6.173613,2.028473 -2.4694448,0 -4.8506957,-0.881945 -6.6145852,-2.381251 -2.3812508,-1.940278 -3.96875116,-4.93889 -3.96875116,-8.202086 0,-0.176389 0,-0.264583 0,-0.440972 0,-0.08819 0,-0.176389 0,-0.352778 0,0 0,0 0,0 0,-0.08819 0,-0.176389 0,-0.264583 0,0 0,-0.0882 0,-0.17639 0,-0.08819 0,-0.176388 0.088195,-0.264583 0,-0.264583 0.088194,-0.617361 0.1763889,-0.881945 0,-0.08819 0,-0.264583 0,-0.352777 0,0 0.088194,-0.0882 0.088194,-0.1763888 0,-0.08819 0,-0.176389 0.0881949958695,-0.176389 C 0.08819454,9.5621942 0.08819454,9.3858052 0.17638944,9.2976102 c 0,-0.08819 0,-0.08819 0,-0.176389 0.088194,-0.08819 0.088194,-0.176389 0.088194,-0.264583 0.088194,0 0.088194,-0.176389 0.176389,-0.176389 0.2645834,-0.79375 0.70555556,-1.499306 1.23472246,-2.2048619 0.088195,-0.088194 0.2645834,-0.2645834 0.352778,-0.4409724 0,0 0.088194,-0.1763888 0.1763888,-0.1763888 0.088195,-0.088195 0.088195,-0.088195 0.088195,-0.088195 0.088194,-0.088194 0.088194,-0.088194 0.088194,-0.088194 0.1763891,-0.2645834 0.3527778,-0.4409725 0.6173612,-0.5291669 0.088195,-0.176389 0.2645835,-0.2645834 0.4409725,-0.4409724 0,0 0,0 0,0 0,0.088195 -0.088194,0.088195 -0.088194,0.088195 0,0.088194 0,0.088194 0,0.088194 -0.6173615,1.2347227 -1.0583337,2.7340284 -1.2347227,4.3215294 0,0.352778 0,0.7937498 0,1.2347218 0,5.556252 3.2631954,10.05417 7.2319465,10.05417 0.08819,0 0.08819,0 0.08819,0 0.0882,0 0.176389,0 0.352778,0 0.5291668,0 1.0583338,-0.08819 1.6756948,-0.176389 2.734029,-0.79375 4.674307,-3.263195 4.674307,-6.173613 0,-0.08819 0,-0.176389 0,-0.176389 0,-1.763889 -0.705556,-3.35139 -1.940278,-4.4097228 0.881945,0 1.675695,0.176389 2.469445,0.352778 1.499306,0.3527768 2.822223,1.0583328 3.968751,2.0284728 0.08819,0 0.08819,0 0.08819,0 -0.08819,0.264583 0,0.617361 0,0.881944 z"
         id="path7" /><path
         style="fill:#f79420;fill-opacity:1;fill-rule:nonzero;stroke:none;stroke-width:0.264583"
         d="m 20.725701,12.825389 c 0,0.0882 0,0.264584 0,0.352778 0,2.293056 -1.058334,4.233335 -1.058334,4.233335 -0.08819,0.176389 -0.176389,0.352778 -0.264583,0.529167 -0.793751,1.411111 -1.852084,2.557639 -3.175001,3.527779 -1.76389,1.322917 -3.968752,2.028472 -6.173613,2.028472 -2.4694453,0 -4.8506961,-0.881944 -6.7909746,-2.469445 -2.46944516,-1.940278 -3.88055666,-5.027085 -3.88055666,-8.202086 0,-3.1750008 1.4111115,-6.1736126 3.88055666,-8.2020856 0.088195,-0.088194 0.088195,-0.088194 0.088195,-0.088194 0,0 0,0 0,0.088194 0,0 -0.088195,0 -0.088195,0.088194 -2.38125076,2.028473 -3.79236226,4.9388908 -3.79236226,8.1138916 0,3.175001 1.4111115,6.085419 3.88055686,8.202086 1.8520839,1.499306 4.2333347,2.381251 6.70278,2.381251 2.204861,0 4.321529,-0.705556 6.085418,-2.028473 1.322917,-0.970139 2.381251,-2.116667 3.086807,-3.527779 0.176389,-0.176389 0.264583,-0.352778 0.264583,-0.529167 0,0 1.058334,-1.940278 1.058334,-4.14514 0,-0.176389 0,-0.264583 0,-0.352778 0,-0.440972 0,-0.705556 -0.08819,-1.058333 0,-0.0882 0,-0.0882 0,-0.0882 0.08819,0.0882 0.08819,0.0882 0.08819,0.0882 0.08819,0 0.08819,0 0.08819,0 0.08819,0.440972 0.08819,0.79375 0.08819,1.058333 z"
         id="path8" /></g></g></svg>
