<?xml version="1.0" encoding="UTF-8" standalone="no"?>
<!-- Created with Inkscape (http://www.inkscape.org/) -->

<svg
   width="500.00357"
   height="499.672"
   viewBox="0 0 132.29261 132.20497"
   version="1.1"
   id="svg1"
   xml:space="preserve"
   inkscape:version="1.4.2 (f4327f4, 2025-05-13)"
   sodipodi:docname="rocket_qr.svg"
   xmlns:inkscape="http://www.inkscape.org/namespaces/inkscape"
   xmlns:sodipodi="http://sodipodi.sourceforge.net/DTD/sodipodi-0.dtd"
   xmlns="http://www.w3.org/2000/svg"
   xmlns:svg="http://www.w3.org/2000/svg"
   xmlns:rdf="http://www.w3.org/1999/02/22-rdf-syntax-ns#"
   xmlns:cc="http://creativecommons.org/ns#"
   xmlns:dc="http://purl.org/dc/elements/1.1/"><defs
     id="defs1" /><sodipodi:namedview
     id="base"
     pagecolor="#ffffff"
     bordercolor="#000000"
     borderopacity="0.3"
     inkscape:pageopacity="0.0"
     inkscape:pageshadow="2"
     inkscape:zoom="0.175"
     inkscape:cx="894.28573"
     inkscape:cy="922.85716"
     inkscape:document-units="px"
     inkscape:showpageshadow="2"
     inkscape:pagecheckerboard="0"
     inkscape:deskcolor="#d1d1d1"
     inkscape:window-width="1920"
     inkscape:window-height="1009"
     inkscape:window-x="-8"
     inkscape:window-y="-8"
     inkscape:window-maximized="1"
     inkscape:current-layer="svg1"
     showguides="true" /><metadata
     id="metadata1"><rdf:RDF><cc:Work
         rdf:about=""><dc:format>image/svg+xml</dc:format><dc:type
           rdf:resource="http://purl.org/dc/dcmitype/StillImage" /></cc:Work></rdf:RDF></metadata><g
     id="g1" /><path
     d="m 0,118.18319 v -14.02172 h 14.021733 14.021733 v 14.02172 14.02174 H 14.021733 0 Z m 24.037263,0 V 108.16767 H 14.021733 4.006212 v 10.01552 10.01553 h 10.015521 10.01553 z m -16.0248479,0 v -6.00931 h 6.0093179 6.009318 v 6.00931 6.00932 H 14.021733 8.0124151 Z m 24.0372629,4.00622 v -10.01553 h 2.003106 2.003106 v 2.00311 2.00311 h 2.003106 2.003106 v -2.00311 -2.00311 h 2.003106 2.003106 v -2.0031 -2.0031 h -2.003106 -2.003106 v -2.00311 -2.0031 h 2.003106 2.003106 v 2.0031 2.00311 h 4.006204 4.006212 v 2.0031 2.0031 h -4.006212 -4.006204 v 6.00931 6.00932 h 2.003106 2.003098 v 2.00311 2.0031 h 2.003106 2.003106 v 2.00311 2.0031 h -4.006212 -4.006204 v -2.0031 -2.00311 h -2.003106 -2.003106 v 2.00311 2.0031 H 36.05589 32.049678 Z m 24.037264,8.01242 v -2.0031 h 2.003106 2.003106 v -4.00621 -4.00621 h 8.012415 8.012424 v -2.00312 -2.0031 h -6.009318 -6.009309 v -2.00311 -2.00311 H 62.09626 60.093154 v 2.00311 2.00311 h -2.003106 -2.003106 v 2.0031 2.00312 H 54.083836 52.08073 v -2.00312 -2.0031 h 2.003106 2.003106 v -2.00311 -2.00311 h 2.003106 2.003106 v -4.0062 -4.00621 h 6.009318 6.009309 v 2.00311 2.0031 h -4.006212 -4.006203 v 2.00311 2.0031 h 6.009309 6.009318 v 2.00311 2.00311 h 2.003106 2.003106 v -2.00311 -2.00311 h 2.003106 2.003106 v -2.0031 -2.00311 h 2.003106 2.003106 v 2.00311 2.0031 h -2.003106 -2.003106 v 2.00311 2.00311 h 4.006212 4.006203 v 2.0031 2.00312 h -2.003106 -2.003097 v 4.00621 4.00621 h -2.003106 -2.003106 v 2.0031 2.0031 h -2.003106 -2.003106 v -2.0031 -2.0031 h -2.003106 -2.003106 v 2.0031 2.0031 H 66.102472 56.086942 Z m 16.024839,-4.0062 v -2.00311 h -2.003106 -2.003106 v 2.00311 2.00311 h 2.003106 2.003106 z m 12.018636,0 v -2.00311 h -2.003106 -2.003106 v -2.00311 -2.0031 h 2.003106 2.003106 v -2.00312 -2.0031 h -2.003106 -2.003106 v 2.0031 2.00312 h -2.003106 -2.003106 v 2.0031 2.00311 h 2.003106 2.003106 v 2.00311 2.00311 h 2.003106 2.003106 z m 8.012415,4.0062 v -2.0031 h 4.006212 4.006196 v -2.0031 -2.00311 h -2.003054 -2.003142 v -2.00311 -2.0031 h 2.003142 2.003054 v -2.00312 -2.0031 h -2.003054 -2.003142 v -2.00311 -2.00311 h -2.003142 -2.00307 v -4.0062 -4.00621 h -4.006203 -4.006212 v -2.00311 -2.0031 h -2.003106 -2.003106 v 2.0031 2.00311 h -2.003106 -2.003106 v -2.00311 -2.0031 h -8.012424 -8.012415 v -4.006215 -4.006212 h -2.003106 -2.003106 v -2.003106 -2.003093 h 6.009318 6.009309 v 2.003093 2.003106 h -2.003097 -2.003106 v 2.003106 2.003106 h 6.009309 6.009318 v -2.003106 -2.003106 h -2.003106 -2.003106 v -2.003106 -2.003093 h 2.003106 2.003106 V 86.133518 84.130412 H 70.108675 64.099366 V 82.127306 80.1242 H 62.09626 60.093154 v 2.003106 2.003106 H 58.090048 56.086942 V 80.1242 76.117988 h 2.003106 2.003106 v -4.006212 -4.006203 h -2.003106 -2.003106 v -2.003106 -2.003106 h 2.003106 2.003106 v -6.009318 -6.009318 h -2.003106 -2.003106 v 2.003106 2.003106 H 54.083836 52.08073 V 54.083831 52.080725 H 42.065208 32.049678 v 2.003106 2.003106 h -2.003106 -2.003106 v 2.003106 2.003106 H 26.04036 24.037263 v 2.003106 2.003106 h 2.003097 2.003106 v 2.003106 2.003106 H 26.04036 24.037263 v 2.003106 2.003106 h 4.006203 4.006212 v -2.003106 -2.003106 h 2.003106 2.003106 V 64.09937 60.093158 h 4.006212 4.006212 v 2.003106 2.003106 h 2.003106 2.003098 v -2.003106 -2.003106 h 2.003106 2.003106 v 4.006212 4.006203 h -4.006212 -4.006204 v 4.006203 4.006212 H 42.065208 40.062102 V 72.111776 68.105573 H 38.058996 36.05589 v 6.009309 6.009318 h -2.003106 -2.003106 v 2.003106 2.003115 H 28.043466 24.037263 V 82.127306 80.1242 h -4.006212 -4.006212 v 2.003106 2.003115 H 12.018627 8.0124151 v 2.003106 2.003106 H 6.0093091 4.006212 v 6.009305 6.009322 H 2.003106 0 v -8.012428 -8.012411 h 4.006212 4.0062031 v -2.003106 -2.003106 h 2.0031059 2.003106 V 76.117997 72.111785 H 10.015521 8.0124151 v 2.003106 2.003106 H 6.0093091 4.006212 v -2.003106 -2.003106 h 2.0030971 2.003106 V 70.108679 68.105582 H 6.0093091 4.006212 V 66.102476 64.09937 H 2.003106 0 v -2.003115 -2.003106 h 4.006212 4.0062031 v 4.006212 4.006212 h 6.0093179 6.009318 v -4.006212 -4.006212 h -2.003106 -2.003106 v 2.003106 2.003115 H 14.021733 12.018627 V 60.093158 56.086946 H 10.015521 8.0124151 V 54.08384 52.080725 H 6.0093091 4.006212 v 2.003115 2.003106 H 2.003106 0 V 52.080734 48.074531 H 2.003106 4.006212 V 46.07142 44.068314 H 2.003106 0 V 42.065208 40.062102 H 2.003106 4.006212 V 38.058996 36.05589 H 2.003106 0 v -2.003106 -2.003106 h 10.015521 10.01553 v 2.003106 2.003106 h 2.003106 2.003106 v -2.003106 -2.003106 h 6.009309 6.009318 v -2.003106 -2.003097 h -2.003106 -2.003106 v -4.006212 -4.006212 h 2.003106 2.003106 v -2.003106 -2.003106 h -2.003106 -2.003106 v -2.003106 -2.003106 h 6.009318 6.009318 v 2.003106 2.003106 h -2.003106 -2.003106 v 4.006212 4.006212 h 2.003106 2.003106 v -2.003106 -2.003106 h 4.006204 4.006212 v 4.006212 4.006212 h -2.003106 -2.003106 v 2.003097 2.003106 h 2.003106 2.003106 v 4.006212 4.006212 h 2.003106 2.003106 v -8.012424 -8.012415 h 2.003106 2.003106 v -2.003106 -2.003106 h 2.003106 2.003106 v 2.003106 2.003106 h 2.003106 2.003097 v 4.006212 4.006203 h 4.006212 4.006212 v 2.003106 2.003106 h 2.003106 2.003106 v -2.003106 -2.003106 h 2.003106 2.003106 v -2.003106 -2.003097 h -2.003106 -2.003106 v -4.006212 -4.006212 h -2.003106 -2.003106 v 4.006212 4.006212 h -2.003106 -2.003106 v -4.006212 -4.006212 h -2.003106 -2.003106 v -4.006212 -4.006212 h 2.003106 2.003106 V 10.015521 8.0124241 H 70.108675 68.105569 V 6.009318 4.006212 h -2.003097 -2.003106 v 6.009309 6.009318 h -4.006212 -4.006212 v -2.003106 -2.003106 h 2.003106 2.003106 V 10.015521 8.0124241 H 56.086942 52.08073 v 4.0062029 4.006212 H 50.077624 48.074518 V 12.018627 8.0124241 h 2.003106 2.003106 V 6.009318 4.006212 H 50.077624 48.074518 V 2.003106 0 h 2.003106 2.003106 v 2.003106 2.003106 h 4.006212 4.006212 V 2.003106 0 h 4.006212 4.006203 v 2.003106 2.003106 h 4.006212 4.006212 V 2.003106 0 h 2.003106 2.003106 v 2.003106 2.003106 h 2.003106 2.003106 v 2.003106 2.0031061 h 8.012415 8.012408 v 4.0062029 4.006212 h -2.003054 -2.003142 v 2.003106 2.003106 h -2.003142 -2.00307 v 4.006212 4.006212 h 2.00307 2.003142 v -2.003106 -2.003106 h 2.003142 2.003054 v 2.003106 2.003106 h -2.003054 -2.003142 v 2.003097 2.003106 h 4.006196 4.00619 v 2.003106 2.003106 h 2.00314 2.00315 v -2.003106 -2.003106 h 2.00305 2.00314 v 2.003106 2.003106 h -2.00314 -2.00305 v 2.003106 2.003106 h -2.00315 -2.00314 V 38.058996 36.05589 h -4.00619 -4.006196 v 2.003106 2.003106 h 2.003142 2.003054 v 2.003106 2.003106 h 4.00619 4.00629 v 2.003106 2.003102 h -2.00315 -2.00314 v 2.003097 2.003106 h 4.00629 4.00619 v -2.003106 -2.003097 h 4.00619 4.0062 V 46.07142 44.068314 h -2.00305 -2.00315 v -2.003106 -2.003106 h 2.00315 2.00305 V 38.058996 36.05589 h -2.00305 -2.00315 v -2.003106 -2.003106 h 2.00315 2.00305 v 2.003106 2.003106 h 2.00314 2.00305 v -2.003106 -2.003106 h 2.00314 2.00315 v 2.003106 2.003106 h 2.00305 2.00314 v 2.003106 2.003106 h -4.00619 -4.00629 v 2.003106 2.003106 h 4.00629 4.00619 v 2.003106 2.003102 h -6.00934 -6.00933 v 2.003097 2.003106 h 6.00933 6.00934 v 2.003106 2.003106 h -4.00619 -4.00629 v 4.006212 4.006212 h -2.00305 -2.00314 v 2.003106 2.003106 h 6.00933 6.00934 v 2.003097 2.003106 h -4.00619 -4.00629 v 4.006212 4.006212 h -2.00305 -2.00314 v 2.003106 2.003106 h 6.00933 6.00934 v 2.003106 2.003106 h -4.00619 -4.00629 v 4.006199 4.006212 h -2.00305 -2.00314 v 2.003106 2.003109 h 6.00933 6.00934 v 2.0031 2.00312 h -4.00619 -4.00629 v 2.0031 2.00311 h 2.00314 2.00315 v 2.0031 2.0031 h 2.00305 2.00314 v 2.00311 2.00311 h -2.00314 -2.00305 v -2.00311 -2.00311 h -4.00629 -4.00619 v 2.00311 2.00311 h 2.00314 2.00305 v 2.0031 2.00311 h 2.00314 2.00315 v 2.0031 2.00312 h -2.00315 -2.00314 v 2.0031 2.00311 h 2.00314 2.00315 v 2.0031 2.0031 h -2.00315 -2.00314 v -2.0031 -2.0031 h -2.00305 -2.00314 v 2.0031 2.0031 h -6.00934 -6.00924 v -2.0031 -2.0031 h 6.00924 6.00934 v -2.00311 -2.0031 h -2.00305 -2.00315 v -2.00312 -2.0031 h -2.00314 -2.00305 v 2.0031 2.00312 h -4.00619 -4.00629 v 2.0031 2.00311 h -2.00305 -2.00314 v 2.0031 2.0031 h -4.006196 -4.006212 z m 12.018598,-8.01242 v -2.0031 h 4.00629 4.00619 v -2.00312 -2.0031 h -4.00619 -4.00629 v 2.0031 2.00312 h -2.00305 -2.00314 v 2.0031 2.00311 h 2.00314 2.00305 z m 16.02487,-4.00622 v -2.0031 h -2.00305 -2.00315 v 2.0031 2.00312 h 2.00315 2.00305 z m -8.01239,-12.01862 v -6.00931 h -6.00934 -6.00933 v 6.00931 6.00931 h 6.00933 6.00934 z m -8.01248,0 v -2.0031 h 2.00314 2.00315 v 2.0031 2.00311 h -2.00315 -2.00314 z m 16.02487,2.00311 v -4.0062 h -2.00305 -2.00315 v 4.0062 4.0062 h 2.00315 2.00305 z m -24.037256,-8.01241 v -4.006217 h -2.003142 -2.00307 v -2.003106 -2.003115 h 2.00307 2.003142 v -2.003106 -2.003093 h 4.006196 4.00619 v -2.003115 -2.003106 h 4.00629 4.00619 v 6.009305 6.009318 h 4.00619 4.0062 v -4.006212 -4.00619 h -2.00305 -2.00315 v -2.003115 -2.003106 h -2.00314 -2.00305 V 82.127306 80.1242 h 4.00619 4.0062 v -2.003106 -2.003106 h -2.00305 -2.00315 v -2.003106 -2.003106 h 2.00315 2.00305 V 70.10867 68.105573 h -4.0062 -4.00619 v -2.003106 -2.003106 h 4.00619 4.0062 v -6.009318 -6.009318 h -4.0062 -4.00619 v 2.003106 2.003106 h -2.00314 -2.00305 v 2.003106 2.003106 h 2.00305 2.00314 v 2.003106 2.003106 h -4.00619 -4.00629 v 2.003106 2.003106 h -2.00305 -2.00314 v 2.003097 2.003106 h 2.00314 2.00305 V 70.10867 68.105573 h 4.00629 4.00619 v 6.009309 6.009318 h -2.00314 -2.00305 v -2.003106 -2.003106 h -2.00315 -2.00314 v 2.003106 2.003106 h -2.00305 -2.00314 v -2.003106 -2.003106 h -2.003054 -2.003142 v -2.003106 -2.003106 h -4.006212 -4.006203 v 2.003106 2.003106 h 2.003097 2.003106 v 2.003106 2.003106 h -4.006203 -4.006212 v -2.003106 -2.003106 h -2.003106 -2.003106 v -2.003106 -2.003106 h 2.003106 2.003106 V 70.10867 68.105573 h 4.006212 4.006203 v -4.006212 -4.006212 h 2.00307 2.003142 v 2.003106 2.003106 h 2.003142 2.003054 v -2.003106 -2.003106 h -2.003054 -2.003142 v -2.003106 -2.003106 h 4.006196 4.00619 v -2.003106 -2.003106 h -2.00305 -2.00314 V 50.077619 48.074522 H 96.149044 92.142832 V 46.07142 44.068314 h 2.00307 2.003142 v -2.003106 -2.003106 h -2.003142 -2.00307 v 2.003106 2.003106 h -2.003106 -2.003097 v 2.003106 2.003102 H 86.133523 84.130417 V 42.065208 36.05589 h 2.003106 2.003106 v -2.003106 -2.003106 h -2.003106 -2.003106 v 2.003106 2.003106 h -2.003106 -2.003106 v 2.003106 2.003106 H 78.121099 76.117993 V 38.058996 36.05589 h -2.003106 -2.003106 v 2.003106 2.003106 H 70.108675 68.105569 V 36.05589 32.049678 H 66.102472 64.099366 V 28.043475 24.037263 H 62.09626 60.093154 v 8.012415 8.012424 h -2.003106 -2.003106 v 2.003106 2.003106 H 52.08073 48.074518 V 40.062102 36.05589 H 46.07142 44.068314 v -2.003106 -2.003106 h -2.003106 -2.003106 v 2.003106 2.003106 H 36.05589 32.049678 v 4.006212 4.006212 h -4.006212 -4.006203 v -2.003106 -2.003106 h 2.003097 2.003106 V 38.058996 36.05589 H 26.04036 24.037263 v 2.003106 2.003106 h -6.009318 -6.009318 v 2.003106 2.003106 H 10.015521 8.0124151 V 42.065208 40.062102 H 6.0093091 4.006212 v 2.003106 2.003106 h 2.0030971 2.003106 v 4.006208 4.006203 h 6.0093179 6.009318 v 2.003106 2.003106 h 4.006212 4.006203 v -2.003106 -2.003106 h 2.003106 2.003106 v -4.006203 -4.006208 h 2.003106 2.003106 v 2.003106 2.003102 h 4.006212 4.006212 V 46.07142 44.068314 h 2.003106 2.003098 v 2.003106 2.003102 h 2.003106 2.003106 v 2.003097 2.003106 h 2.003106 2.003106 v -2.003106 -2.003097 h 2.003106 2.003106 v -4.006208 -4.006212 h 2.003106 2.003106 v 2.003106 2.003106 h 2.003106 2.003097 v 2.003106 2.003111 h -2.003097 -2.003106 v 2.003097 2.003106 h 2.003106 2.003097 v 6.009318 6.009318 h -4.006203 -4.006212 v 2.003106 2.003106 h 4.006212 4.006203 v 2.003097 2.003106 h -2.003097 -2.003106 v 4.006212 4.006212 h 4.006203 4.006212 v -2.003106 -2.003106 h 2.003106 2.003106 v 4.006212 4.006212 h 2.003106 2.003106 v 2.003106 2.003106 h -2.003106 -2.003106 v 2.003093 2.003106 h 2.003106 2.003106 v 2.003106 2.003106 h -2.003106 -2.003106 v 2.003106 2.00311 h 2.003106 2.003106 v -2.00311 -2.003106 h 2.003106 2.003106 v 2.003106 2.00311 h 4.006212 4.006203 v 2.0031 2.00311 h 2.00307 2.003142 z M 84.130417,90.139735 v -6.009314 h -2.003106 -2.003106 v -2.003106 -2.003106 h 2.003106 2.003106 v 2.003106 2.003106 h 4.006212 4.006203 v -2.003106 -2.003106 h 4.006212 4.006196 v 2.003106 2.003106 h -2.003054 -2.003142 v 2.003106 2.003106 h -4.006212 -4.006203 v 4.006208 4.006212 H 86.133523 84.130417 Z M 68.105569,74.114891 v -2.003106 h 2.003106 2.003106 v 2.003106 2.003106 h -2.003106 -2.003106 z m 8.012424,-4.006212 V 68.105582 H 72.111781 68.105569 V 66.102476 64.09937 h 4.006212 4.006212 v 2.003106 2.003106 h 2.003106 2.003106 V 66.102476 64.09937 h 2.003106 2.003106 v -2.003106 -2.003106 h -2.003106 -2.003106 v -2.003115 -2.003106 h -2.003106 -2.003106 v 2.003106 2.003115 h -2.003106 -2.003106 v -2.003115 -2.003106 h 2.003106 2.003106 v -2.003106 -2.003106 h -4.006212 -4.006212 v -2.003106 -2.003097 h 2.003106 2.003106 v -4.006208 -4.006212 h 2.003106 2.003106 v 6.009318 6.009305 h 2.003106 2.003106 v -2.003106 -2.003097 h 2.003106 2.003106 v 2.003097 2.003106 h 6.009309 6.009318 v 2.003106 2.003106 h -4.006212 -4.006203 v 4.006212 4.006212 h -2.003106 -2.003106 v 2.003106 2.003106 h -2.003106 -2.003106 v 2.003106 2.003106 H 78.121099 76.117993 Z M 84.130417,54.08384 v -2.003106 h -2.003106 -2.003106 v 2.003106 2.003106 h 2.003106 2.003106 z M 24.037263,50.077628 V 48.074531 H 18.027945 12.018627 V 46.07142 44.068314 h 6.009318 6.009318 v 2.003106 2.003111 h 2.003097 2.003106 v 2.003097 2.003106 H 26.04036 24.037263 Z M 40.062102,40.062102 V 36.05589 h 2.003106 2.003106 v 4.006212 4.006212 h -2.003106 -2.003106 z m 64.099328,54.083845 v -2.003106 h -2.00305 -2.00314 v 2.003106 2.003106 h 2.00314 2.00305 z M 32.049678,78.121103 v -2.003106 h -4.006212 -4.006203 v -2.003106 -2.003106 h -4.006212 -4.006212 v 2.003106 2.003106 h 4.006212 4.006212 v 2.003106 2.003106 h 4.006203 4.006212 z M 40.062102,26.040369 V 24.037263 H 38.058996 36.05589 v 2.003106 2.003106 h 2.003106 2.003106 z m 8.012416,0 V 24.037263 H 46.07142 44.068314 v 2.003106 2.003106 h 2.003106 2.003098 z m 40.062111,0 v -2.003106 h -2.003106 -2.003106 v 2.003106 2.003106 h 2.003106 2.003106 z M 76.117993,18.027945 v -2.003106 h 2.003106 2.003106 v 2.003106 2.003106 h 2.003106 2.003106 v -2.003106 -2.003106 h 2.003106 2.003106 v 2.003106 2.003106 h 2.003097 2.003106 v -2.003106 -2.003106 h 2.00307 2.003142 v -2.003106 -2.003106 h -2.003142 -2.00307 v 2.003106 2.003106 h -2.003106 -2.003097 v -2.003106 -2.003106 h -2.003106 -2.003106 v 2.003106 2.003106 h -2.003106 -2.003106 v -2.003106 -2.003106 h -2.003106 -2.003106 v 2.003106 2.003106 h -2.003106 -2.003106 v 2.003106 2.003106 h 2.003106 2.003106 z M 80.124205,6.009318 V 4.006212 h -2.003106 -2.003106 v 2.003106 2.0031061 h 2.003106 2.003106 z M 32.049678,104.16148 v -4.00621 h -4.006212 -4.006203 v -2.00312 -2.003106 h 2.003097 2.003106 V 94.145938 92.142832 H 26.04036 24.037263 v -2.003106 -2.003093 h 2.003097 2.003106 v 2.003093 2.003106 h 2.003106 2.003106 v 4.006212 4.006216 h 2.003106 2.003106 v 4.00621 4.00621 h -2.003106 -2.003106 z m 8.012424,-6.00933 v -2.003106 h 2.003106 2.003106 v -2.003106 -2.003106 h 4.006204 4.006212 v 2.003106 2.003106 h 2.003106 2.003106 v 2.003106 2.00312 H 54.083836 52.08073 v -2.00312 -2.003106 h -4.006212 -4.006204 v 2.003106 2.00312 H 42.065208 40.062102 Z M 8.0124151,94.145947 v -2.003115 h 4.0062119 4.006212 v -2.003106 -2.003093 h 2.003106 2.003106 v 4.006199 4.006212 H 14.021733 8.0124151 Z M 36.05589,88.136633 v -4.006212 h 4.006212 4.006212 v 2.003106 2.003106 h -2.003106 -2.003106 v 2.003102 2.003106 H 38.058996 36.05589 Z m 12.018628,-8.012424 v -4.006212 h 2.003106 2.003106 v 4.006212 4.006212 H 50.077624 48.074518 Z M 0,14.021733 V 0 H 14.021733 28.043466 V 14.021733 28.043475 H 14.021733 0 Z m 24.037263,0 V 4.006212 H 14.021733 4.006212 v 10.015521 10.01553 h 10.015521 10.01553 z m -16.0248479,0 V 8.0124241 h 6.0093179 6.009318 v 6.0093089 6.009318 H 14.021733 8.0124151 Z m 96.1490149,0 V 0 h 14.02182 14.02172 v 14.021733 14.021742 h -14.02172 -14.02182 z m 24.03735,0 V 4.006212 h -10.01553 -10.01553 v 10.015521 10.01553 h 10.01553 10.01553 z m -16.02487,0 V 8.0124241 h 6.00934 6.00924 v 6.0093089 6.009318 h -6.00924 -6.00934 z M 32.049678,6.009318 V 4.006212 h 2.003106 2.003106 V 6.009318 8.0124241 H 34.052784 32.049678 Z M 40.062102,4.006212 V 0 h 2.003106 2.003106 V 4.006212 8.0124241 H 42.065208 40.062102 Z M 92.142832,2.003106 V 0 h 2.00307 2.003142 v 2.003106 2.003106 h -2.003142 -2.00307 z"
     style="fill:#000000;stroke-width:0.890681"
     id="path1" /></svg>
