<?xml version="1.0" encoding="UTF-8" standalone="no"?>
<!-- Created with Inkscape (http://www.inkscape.org/) -->

<svg
   width="200.35713"
   height="108.53298"
   viewBox="0 0 53.011157 28.716037"
   version="1.1"
   id="svg1"
   xml:space="preserve"
   inkscape:version="1.4.2 (f4327f4, 2025-05-13)"
   xmlns:inkscape="http://www.inkscape.org/namespaces/inkscape"
   xmlns:sodipodi="http://sodipodi.sourceforge.net/DTD/sodipodi-0.dtd"
   xmlns="http://www.w3.org/2000/svg"
   xmlns:svg="http://www.w3.org/2000/svg"
   xmlns:rdf="http://www.w3.org/1999/02/22-rdf-syntax-ns#"
   xmlns:cc="http://creativecommons.org/ns#"
   xmlns:dc="http://purl.org/dc/elements/1.1/"><defs
     id="defs1"><pattern
       id="EMFhbasepattern"
       patternUnits="userSpaceOnUse"
       width="6"
       height="6"
       x="0"
       y="0" /><pattern
       id="EMFhbasepattern-2"
       patternUnits="userSpaceOnUse"
       width="6"
       height="6"
       x="0"
       y="0" /><pattern
       id="EMFhbasepattern-5"
       patternUnits="userSpaceOnUse"
       width="6"
       height="6"
       x="0"
       y="0" /></defs><sodipodi:namedview
     id="base"
     pagecolor="#ffffff"
     bordercolor="#000000"
     borderopacity="0.3"
     inkscape:pageopacity="0.0"
     inkscape:pageshadow="2"
     inkscape:zoom="2.8"
     inkscape:cx="46.964286"
     inkscape:cy="88.035716"
     inkscape:document-units="px"
     inkscape:showpageshadow="2"
     inkscape:pagecheckerboard="0"
     inkscape:deskcolor="#d1d1d1"
     inkscape:window-width="1920"
     inkscape:window-height="1009"
     inkscape:window-x="1912"
     inkscape:window-y="-8"
     inkscape:window-maximized="1"
     inkscape:current-layer="g1"
     showguides="true" /><metadata
     id="metadata1"><rdf:RDF><cc:Work
         rdf:about=""><dc:format>image/svg+xml</dc:format><dc:type
           rdf:resource="http://purl.org/dc/dcmitype/StillImage" /></cc:Work></rdf:RDF></metadata><g
     id="g1"
     transform="translate(0,-2.5066361)"><g
       id="g2"
       transform="matrix(0.67747262,0,0,0.67747262,3.0171715,4.2323429)"><path
         style="fill:#8b3392;fill-opacity:1;fill-rule:evenodd;stroke:none;stroke-width:0.264583"
         d="m 49.300709,4.6233034 -8.90764,8.9076416 0.617361,4.93889 1.675694,-3.439584 5.027085,6.526391 7.055558,-21.872229 -23.547924,9.8777814 6.350002,3.3513886 z"
         id="path1" /><path
         style="fill:#8b3392;fill-opacity:1;fill-rule:nonzero;stroke:none;stroke-width:0.264583"
         d="m 41.539597,20.233725 c 0,0 -7.49653,0 -9.348614,0 -7.143753,1.058333 -7.849309,11.46528 -0.0882,12.876394 9.43681,0 9.43681,0 9.43681,0 0,-9.348615 0,-9.348615 0,-9.348615 3.175001,0.08819 3.792361,3.96875 1.499306,5.379863 0.440971,0.617361 2.293055,2.645835 2.293055,2.645835 4.938891,-4.233335 2.116667,-11.200699 -3.792361,-11.553477 z m -3.439585,9.348613 c 0,0 -4.850695,0 -5.203475,0 -3.263194,0.17639 -4.321528,-5.115279 -0.264583,-5.820834 1.14653,0 5.468058,0 5.468058,0 z"
         id="path2" /><path
         style="fill:#8b3392;fill-opacity:1;fill-rule:evenodd;stroke:none;stroke-width:0.264583"
         d="m 61.11877,24.908032 c -1.587501,0 -3.439585,0 -3.439585,0 -1.499307,3.439585 -1.499307,3.439585 -1.499307,3.439585 0,0 3.968751,0 4.409725,0 0.881944,-0.0882 0.881944,1.234721 0,1.322917 -1.146528,0 -7.584726,0 -7.584726,0 0,-5.90903 0,-5.90903 0,-5.90903 11.641671,0 11.641671,0 11.641671,0 0,-3.527779 0,-3.527779 0,-3.527779 0,0 -1.587501,0 -1.763888,0 -0.440973,-7.231947 -9.172226,-7.49653 -11.465283,-3.527779 0.529166,0.352778 2.645834,2.293056 2.645834,2.293056 1.234723,-2.116667 4.938891,-1.940278 5.468058,1.234723 -9.965976,0 -9.965976,0 -9.965976,0 0,12.876394 0,12.876394 0,12.876394 11.200699,0 11.200699,0 11.200699,0 2.469445,-0.0882 3.704168,-1.940281 3.968752,-3.527781 C 64.911131,27.0247 63.32363,25.26081 61.11877,24.908032 Z"
         id="path3" /><path
         style="fill:#8b3392;fill-opacity:1;fill-rule:evenodd;stroke:none;stroke-width:0.264583"
         d="m 27.781259,20.233725 c -4.586113,0 -4.586113,0 -4.586113,0 -1.411111,1.763889 -3.880557,8.819446 1.058334,14.199311 0,0 2.116667,-1.852084 2.55764,-2.204864 -1.499306,-1.499304 -4.056946,-7.496529 0.970139,-11.994447 z"
         id="path4" /><path
         style="fill:#8b3392;fill-opacity:1;fill-rule:evenodd;stroke:none;stroke-width:0.264583"
         d="m 16.227783,34.521229 c 0,1.587501 -1.234723,2.822224 -2.822223,2.822224 -1.587501,0 -2.822223,-1.234723 -2.822223,-2.822224 0,-1.5875 1.234722,-2.822224 2.822223,-2.822224 1.5875,0 2.822223,1.234724 2.822223,2.822224 z"
         id="path5" /><path
         style="fill:#8b3392;fill-opacity:1;fill-rule:evenodd;stroke:none;stroke-width:0.264583"
         d="m 10.230559,20.233725 c -7.1437525,1.058333 -7.8493082,11.46528 -0.08819,12.876394 0.08819,0 0.08819,0 0.08819,0 0.529167,-1.234724 1.763889,-2.116668 3.175001,-2.116668 1.411111,0 2.645834,0.881944 3.263195,2.116668 2.910418,0 2.910418,0 2.910418,0 0,-0.440974 0,-12.876394 0,-12.876394 0,0 -7.49653,0 -9.348614,0 z m 5.909029,9.348613 c 0,0 -4.850695,0 -5.203473,0 -3.2631959,0.17639 -4.3215296,-5.115279 -0.352778,-5.820834 1.146528,0 5.556251,0 5.556251,0 z"
         id="path6" /><path
         style="fill:#8b3392;fill-opacity:1;fill-rule:evenodd;stroke:none;stroke-width:0.264583"
         d="m 13.581949,17.146918 c 1.146528,-0.176389 1.675695,-2.557639 -0.176389,-3.086806 -0.176389,0 -2.998612,0 -2.998612,0 0,4.497918 0,4.497918 0,4.497918 1.234722,0 1.234722,0 1.234722,0 0,-1.411112 0,-1.411112 0,-1.411112 1.411112,1.411112 1.411112,1.411112 1.411112,1.411112 1.940278,0 1.940278,0 1.940278,0 z m -0.176389,-1.5875 c 0,0.176389 -0.08819,0.352778 -0.264583,0.352778 -1.499307,0 -1.499307,0 -1.499307,0 0,-0.617362 0,-0.617362 0,-0.617362 1.499307,0 1.499307,0 1.499307,0 0.176388,0 0.264583,0.08819 0.264583,0.264584 z"
         id="path7" /><path
         style="fill:#8b3392;fill-opacity:1;fill-rule:evenodd;stroke:none;stroke-width:0.264583"
         d="m 17.109728,14.060112 c -1.234723,0 -2.204862,0.970139 -2.204862,2.204861 0,1.322918 0.970139,2.293057 2.204862,2.293057 1.322917,0 2.293056,-0.970139 2.293056,-2.293057 0,-1.234722 -0.970139,-2.204861 -2.293056,-2.204861 z m 0,3.263195 c -0.529167,0 -0.97014,-0.440972 -0.97014,-1.058334 0,-0.529166 0.440973,-0.970139 0.97014,-0.970139 0.617361,0 1.058333,0.440973 1.058333,0.970139 0,0.617362 -0.440972,1.058334 -1.058333,1.058334 z"
         id="path8" /><path
         style="fill:#8b3392;fill-opacity:1;fill-rule:evenodd;stroke:none;stroke-width:0.264583"
         d="m 29.986121,15.294834 c 2.116666,0 2.116666,0 2.116666,0 0,-1.322917 0,-1.322917 0,-1.322917 -1.763888,0 -1.763888,0 -1.763888,0 -1.322917,0 -2.469446,1.058334 -2.469446,2.293056 0,1.234723 1.146529,2.293057 2.469446,2.293057 1.763888,0 1.763888,0 1.763888,0 0,-1.322917 0,-1.322917 0,-1.322917 -2.116666,0 -2.116666,0 -2.116666,0 -0.264584,0 -0.529167,-0.176389 -0.705556,-0.352778 2.822222,0 2.822222,0 2.822222,0 0,-1.234723 0,-1.234723 0,-1.234723 -2.822222,0 -2.822222,0 -2.822222,0 0.176389,-0.176389 0.440972,-0.352778 0.705556,-0.352778 z"
         id="path9" /><path
         style="fill:#8b3392;fill-opacity:1;fill-rule:evenodd;stroke:none;stroke-width:0.264583"
         d="m 21.872229,17.235113 c -0.440972,0 -0.881945,-0.440973 -0.881945,-0.97014 0,0 0,0 0,0 0,-0.529166 0.440973,-0.970139 0.881945,-0.970139 1.940279,0 1.940279,0 1.940279,0 0,-1.322917 0,-1.322917 0,-1.322917 -1.675695,0 -1.675695,0 -1.675695,0 -1.411112,0 -2.469446,1.058334 -2.469446,2.293056 0,1.234723 1.058334,2.293057 2.469446,2.293057 1.675695,0 1.675695,0 1.675695,0 0,-1.322917 0,-1.322917 0,-1.322917 z"
         id="path10" /><path
         style="fill:#8b3392;fill-opacity:1;fill-rule:evenodd;stroke:none;stroke-width:0.264583"
         d="m 36.777095,14.060112 h -4.321528 v 1.234722 h 1.5875 v 3.175001 h 1.146528 v -3.175001 h 1.5875 z"
         id="path11" /><path
         style="fill:#8b3392;fill-opacity:1;fill-rule:nonzero;stroke:none;stroke-width:0.264583"
         d="m 26.370147,16.264973 2.116668,-2.204861 h -1.76389 l -1.146528,1.234722 v -1.234722 h -1.234723 v 4.409723 h 1.234723 v -1.234722 l 1.234723,1.234722 h 1.763889 z"
         id="path12" /><path
         style="fill:#8b3392;fill-opacity:1;fill-rule:nonzero;stroke:none;stroke-width:0.264583"
         d="m 44.097237,35.226786 c -0.264583,0.08819 -0.440973,0.176387 -0.529167,0.440971 -0.17639,0.176389 -0.264583,0.352779 -0.264583,0.529166 0,0.17639 0.08819,0.264584 0.08819,0.35278 0.08819,0.176387 0.17639,0.264583 0.264584,0.264583 0.08819,0 0.17639,-0.0882 0.264583,-0.0882 0.08819,0.264584 0.08819,0.264584 0.08819,0.264584 -0.08819,0.0882 -0.264584,0.176389 -0.352777,0.176389 -0.08819,0 -0.264584,-0.08819 -0.352777,-0.176389 -0.0882,-0.08819 -0.17639,-0.176388 -0.264584,-0.352777 0,-0.08819 0,-0.264584 0,-0.440974 0,-0.08819 0,-0.08819 0,-0.08819 0,-0.264584 0.08819,-0.529167 0.352777,-0.881944 0.08819,-0.0882 0.17639,-0.17639 0.352777,-0.264583 0.440974,0 0.440974,0 0.440974,0 0,0.264583 0,0.264583 0,0.264583 z"
         id="path13" /><path
         style="fill:#8b3392;fill-opacity:1;fill-rule:nonzero;stroke:none;stroke-width:0.264583"
         d="m 46.037515,35.226786 c 0,1.852084 0,1.852084 0,1.852084 -0.352777,0 -0.352777,0 -0.352777,0 0,-0.17639 0,-0.17639 0,-0.17639 0,-0.08819 -0.0882,-0.264583 -0.17639,-0.352777 -0.17639,-0.0882 -0.264584,-0.17639 -0.352777,-0.264583 -0.0882,-0.0882 -0.264584,-0.0882 -0.35278,-0.0882 -0.176387,0 -0.264583,0 -0.352777,0.17639 0,0 0,0 0,0 0,0.08819 0.08819,0.08819 0.08819,0.17639 0.0882,0 0.0882,0.08819 0.17639,0.08819 0,0 0.08819,-0.08819 0.264583,-0.08819 0.08819,0.264583 0.08819,0.264583 0.08819,0.264583 -0.176388,0.08819 -0.264584,0.176388 -0.352777,0.176388 -0.17639,0 -0.264584,-0.08819 -0.352777,-0.08819 -0.0882,-0.08819 -0.17639,-0.17639 -0.264584,-0.264583 0,-0.08819 0,-0.17639 0,-0.264584 0,-0.17639 0.08819,-0.352777 0.264584,-0.440973 0.08819,-0.08819 0.264583,-0.08819 0.352777,-0.08819 0,0 0,0 0.08819,0 0,-0.08819 -0.08819,-0.176389 -0.176387,-0.264583 0,-0.08819 -0.0882,-0.08819 -0.17639,-0.08819 -0.352777,0 -0.352777,0 -0.352777,0 0,-0.264583 0,-0.264583 0,-0.264583 -0.17639,0 -0.17639,0 -0.17639,0 0,-0.264583 0,-0.264583 0,-0.264583 2.381251,0 2.381251,0 2.381251,0 0,0.264583 0,0.264583 0,0.264583 z m -0.352777,0 c -0.881947,0 -0.881947,0 -0.881947,0 0.264584,0.176387 0.35278,0.352777 0.35278,0.61736 0.176387,0.08819 0.352777,0.17639 0.529167,0.440974 z"
         id="path14" /><path
         style="fill:#8b3392;fill-opacity:1;fill-rule:nonzero;stroke:none;stroke-width:0.264583"
         d="m 46.743071,35.226786 v 1.852084 h -0.352779 v -1.852084 h -0.264584 v -0.264583 h 0.881947 v 0.264583 z"
         id="path15" /><path
         style="fill:#8b3392;fill-opacity:1;fill-rule:nonzero;stroke:none;stroke-width:0.264583"
         d="m 48.506959,35.226786 c -1.675694,0 -1.675694,0 -1.675694,0 0,-0.264583 0,-0.264583 0,-0.264583 2.381251,0 2.381251,0 2.381251,0 0,0.264583 0,0.264583 0,0.264583 -0.264584,0 -0.264584,0 -0.264584,0 0,1.852084 0,1.852084 0,1.852084 -0.352777,0 -0.352777,0 -0.352777,0 0,-0.0882 -0.17639,-0.17639 -0.440973,-0.440973 -0.17639,-0.08819 -0.352777,-0.17639 -0.529167,-0.17639 -0.264583,-0.08819 -0.440973,-0.176387 -0.529167,-0.176387 -0.08819,-0.35278 -0.08819,-0.35278 -0.08819,-0.35278 0.08819,-0.08819 0.352777,-0.176387 0.705554,-0.352777 0.17639,-0.08819 0.440973,-0.17639 0.79375,-0.352777 z m 0.0882,0.440971 c -0.0882,0 -0.17639,0 -0.264583,0.0882 -0.0882,0 -0.35278,0.08819 -0.617363,0.264583 -0.08819,0 -0.08819,0 -0.08819,0 0.264584,0.08819 0.617361,0.264584 0.881944,0.440971 0,0.0882 0,0.0882 0.0882,0.0882 z"
         id="path16" /><path
         style="fill:#8b3392;fill-opacity:1;fill-rule:nonzero;stroke:none;stroke-width:0.264583"
         d="m 49.653489,35.226786 v 1.852084 h -0.35278 v -1.852084 h -0.264583 v -0.264583 h 0.881946 v 0.264583 z"
         id="path17" /><path
         style="fill:#8b3392;fill-opacity:1;fill-rule:nonzero;stroke:none;stroke-width:0.264583"
         d="m 49.741683,35.226786 c 0,-0.264583 0,-0.264583 0,-0.264583 1.146527,0 1.146527,0 1.146527,0 0,-0.0882 0,-0.0882 0,-0.0882 0,-0.176387 -0.08819,-0.264583 -0.264584,-0.352777 0,0 -0.08819,0 -0.08819,0 0,0 -0.08819,0 -0.17639,0.08819 0,0 -0.08819,0 -0.08819,0 -0.08819,0 -0.08819,0 -0.176389,0.0882 -0.08819,0 -0.08819,0.08819 -0.176388,0.08819 -0.176389,-0.264584 -0.176389,-0.264584 -0.176389,-0.264584 0.176389,-0.08819 0.352777,-0.17639 0.61736,-0.264583 0.0882,0 0.17639,0 0.264583,0 0.0882,0 0.17639,0 0.264584,0.08819 0.17639,0.0882 0.352779,0.264584 0.352779,0.617364 0.176388,0 0.176388,0 0.176388,0 0,0.264583 0,0.264583 0,0.264583 z m 1.322917,2.204861 c -0.17639,-0.17639 -0.352777,-0.264584 -0.529167,-0.352777 -0.08819,-0.0882 -0.17639,-0.17639 -0.352777,-0.264584 -0.17639,0 -0.264584,-0.0882 -0.264584,-0.0882 0,-0.352777 0,-0.352777 0,-0.352777 0,0 0.08819,0 0.08819,0 0.08819,0 0.17639,0 0.17639,0 0.176387,0 0.264583,-0.08819 0.44097,-0.08819 0.17639,-0.0882 0.264584,-0.17639 0.264584,-0.264584 0,-0.0882 0,-0.17639 -0.08819,-0.264583 -0.08819,0 -0.17639,-0.0882 -0.264583,-0.0882 0,0 0,0 0,0 -0.08819,0 -0.17639,0 -0.17639,0 -0.08819,0 -0.08819,0.0882 -0.08819,0.0882 0,0.08819 0.08819,0.176387 0.264584,0.176387 -0.17639,0.264583 -0.17639,0.264583 -0.17639,0.264583 -0.08819,0 -0.176387,0 -0.264583,-0.08819 -0.176388,-0.08819 -0.176388,-0.17639 -0.176388,-0.352777 0,-0.17639 0,-0.264584 0.176388,-0.35278 0.176389,-0.08819 0.264583,-0.08819 0.440973,-0.08819 0.08819,0 0.17639,0 0.17639,0 0.08819,0 0.08819,0.08819 0.176387,0.08819 0.264583,0.17639 0.352779,0.35278 0.352779,0.617363 0,0.176387 -0.0882,0.352777 -0.176389,0.440971 -0.17639,0.0882 -0.352777,0.17639 -0.529167,0.17639 0.08819,0 0.17639,0.08819 0.264583,0.176389 0.17639,0.176388 0.352777,0.264584 0.529167,0.440971 z"
         id="path18" /><path
         style="fill:#8b3392;fill-opacity:1;fill-rule:nonzero;stroke:none;stroke-width:0.264583"
         d="m 53.62224,35.226786 c 0,1.852084 0,1.852084 0,1.852084 -0.352779,0 -0.352779,0 -0.352779,0 0,-0.705557 0,-0.705557 0,-0.705557 0,-0.08819 0,-0.17639 -0.08819,-0.17639 0,-0.08819 -0.08819,-0.08819 -0.17639,-0.08819 -0.08819,0 -0.08819,0 -0.176387,0.08819 0,0.0882 -0.0882,0.17639 -0.0882,0.264584 -0.352777,0 -0.352777,0 -0.352777,0 0,-0.176387 0,-0.264584 -0.08819,-0.264584 -0.0882,-0.08819 -0.0882,-0.176387 -0.17639,-0.176387 -0.08819,0 -0.08819,0.08819 -0.17639,0.08819 -0.08819,0 -0.08819,0.08819 -0.08819,0.17639 0,0.08819 0,0.08819 0,0.08819 0,0 0,0 0,0 0,0.17639 0.08819,0.264584 0.352777,0.264584 0,0 0.0882,0 0.17639,0 -0.17639,0.352777 -0.17639,0.352777 -0.17639,0.352777 0,0 -0.08819,0 -0.08819,0 -0.17639,0 -0.352777,0 -0.529167,-0.176388 0,0 -0.08819,-0.0882 -0.08819,-0.176389 -0.0882,-0.08819 -0.0882,-0.17639 -0.0882,-0.264584 0,-0.17639 0.0882,-0.352777 0.176389,-0.529167 0.17639,-0.08819 0.352777,-0.176389 0.529167,-0.176389 0.17639,0 0.352777,0.0882 0.440974,0.264583 0.176387,-0.176387 0.264583,-0.264583 0.44097,-0.264583 0.0882,0 0.17639,0.0882 0.264584,0.0882 0,-0.529167 0,-0.529167 0,-0.529167 -2.028472,0 -2.028472,0 -2.028472,0 0,-0.264583 0,-0.264583 0,-0.264583 2.645835,0 2.645835,0 2.645835,0 0,0.264583 0,0.264583 0,0.264583 z"
         id="path19" /><path
         style="fill:#8b3392;fill-opacity:1;fill-rule:nonzero;stroke:none;stroke-width:0.264583"
         d="m 56.444462,35.226786 c -1.675695,0 -1.675695,0 -1.675695,0 0,-0.264583 0,-0.264583 0,-0.264583 2.293058,0 2.293058,0 2.293058,0 0,0.264583 0,0.264583 0,0.264583 -0.264584,0 -0.264584,0 -0.264584,0 0,1.852084 0,1.852084 0,1.852084 -0.352779,0 -0.352779,0 -0.352779,0 0,-0.0882 -0.176388,-0.17639 -0.440971,-0.440973 -0.0882,-0.08819 -0.264583,-0.17639 -0.529167,-0.17639 -0.17639,-0.08819 -0.35278,-0.176387 -0.529167,-0.176387 -0.0882,-0.35278 -0.0882,-0.35278 -0.0882,-0.35278 0.0882,-0.08819 0.35278,-0.176387 0.705557,-0.352777 0.17639,-0.08819 0.440973,-0.17639 0.881944,-0.352777 z m 0,0.440971 c -0.08819,0 -0.176388,0 -0.264584,0.0882 -0.08819,0 -0.264583,0.08819 -0.61736,0.264583 -0.08819,0 -0.08819,0 -0.08819,0 0.352777,0.08819 0.617361,0.264584 0.881944,0.440971 0,0.0882 0.08819,0.0882 0.08819,0.0882 z"
         id="path20" /><path
         style="fill:#8b3392;fill-opacity:1;fill-rule:nonzero;stroke:none;stroke-width:0.264583"
         d="m 57.679185,35.226786 c -0.08819,0.176387 -0.17639,0.352777 -0.17639,0.440971 0,0 0.0882,0.264583 0.17639,0.529166 0.08819,0.17639 0.08819,0.35278 0.08819,0.440974 0,0.264583 -0.08819,0.352777 -0.352777,0.440973 -0.08819,0.08819 -0.17639,0.08819 -0.352777,0.08819 0,-0.264583 0,-0.264583 0,-0.264583 0.264583,-0.08819 0.352777,-0.17639 0.352777,-0.264583 0,-0.08819 -0.08819,-0.264584 -0.17639,-0.440974 -0.08819,-0.264583 -0.08819,-0.352777 -0.08819,-0.44097 0,-0.17639 0,-0.35278 0.17639,-0.529167 -0.440973,0 -0.440973,0 -0.440973,0 0,-0.264583 0,-0.264583 0,-0.264583 1.058333,0 1.058333,0 1.058333,0 0,0.264583 0,0.264583 0,0.264583 z"
         id="path21" /><path
         style="fill:#8b3392;fill-opacity:1;fill-rule:nonzero;stroke:none;stroke-width:0.264583"
         d="m 58.472935,35.226786 v 1.852084 h -0.352777 v -1.852084 h -0.264583 v -0.264583 h 0.881944 v 0.264583 z"
         id="path22" /><path
         style="fill:#8b3392;fill-opacity:1;fill-rule:nonzero;stroke:none;stroke-width:0.264583"
         d="m 59.354879,36.10873 c -0.176387,0 -0.352777,0 -0.44097,-0.17639 -0.0882,-0.08819 -0.17639,-0.176387 -0.17639,-0.352777 0,-0.17639 0.08819,-0.352777 0.17639,-0.440973 0.08819,-0.08819 0.264583,-0.176387 0.44097,-0.176387 0.17639,0 0.35278,0.176387 0.440973,0.352777 0,0.08819 0.08819,0.176389 0.08819,0.264583 0,0.17639 -0.08819,0.264583 -0.176387,0.440973 -0.0882,0.08819 -0.17639,0.08819 -0.35278,0.08819 z m 0.35278,1.234723 c -0.440973,-0.440973 -0.79375,-0.617363 -0.97014,-0.705556 0.08819,-0.529167 0.08819,-0.529167 0.08819,-0.529167 0.617363,0.440973 1.058334,0.79375 1.234724,1.058333 0,0.440974 0,0.440974 0,0.440974 z m -0.264584,-1.94028 c -0.0882,-0.08819 -0.0882,-0.08819 -0.176389,-0.08819 -0.08819,0.08819 -0.17639,0.08819 -0.17639,0.264583 0,0 0,0.08819 0.0882,0.17639 0,0 0.08819,0 0.176387,0 0,0 0,0 0,0 0.0882,0 0.17639,-0.0882 0.17639,-0.17639 0,-0.08819 -0.08819,-0.17639 -0.08819,-0.17639 z"
         id="path23" /><path
         style="fill:#8b3392;fill-opacity:1;fill-rule:nonzero;stroke:none;stroke-width:0.264583"
         d="m 62.353493,34.697619 c -0.440973,-0.264583 -0.79375,-0.35278 -1.058334,-0.35278 -0.264583,0 -0.529167,0.0882 -0.705556,0.264584 0,0.0882 -0.08819,0.17639 -0.08819,0.35278 0.264583,0 0.264583,0 0.264583,0 0,0.264583 0,0.264583 0,0.264583 -0.264583,0 -0.264583,0 -0.264583,0 0,1.852084 0,1.852084 0,1.852084 -0.35278,0 -0.35278,0 -0.35278,0 0,-1.852084 0,-1.852084 0,-1.852084 -0.264583,0 -0.264583,0 -0.264583,0 0,-0.264583 0,-0.264583 0,-0.264583 0.264583,0 0.264583,0 0.264583,0 0,-0.264584 0.0882,-0.529167 0.264584,-0.705557 0.17639,-0.17639 0.352779,-0.264584 0.705557,-0.264584 0,0 0,0 0.08819,0 0.0882,0 0.0882,0 0.0882,0 0.264584,0 0.440971,0 0.705554,0.08819 0.0882,0.0882 0.35278,0.17639 0.617363,0.35278 z"
         id="path24" /><path
         style="fill:#8b3392;fill-opacity:1;fill-rule:nonzero;stroke:none;stroke-width:0.264583"
         d="m 62.08891,35.226786 c 0,0 0,0 0,0 0.176387,0.08819 0.264583,0.08819 0.44097,0.176387 0.264584,0.17639 0.35278,0.35278 0.35278,0.529167 0,0.0882 0,0.264583 -0.0882,0.35278 -0.08819,0.08819 -0.176388,0.176387 -0.352777,0.176387 -0.08819,0 -0.17639,0 -0.264584,0 0,-0.352777 0,-0.352777 0,-0.352777 0,0 0.08819,0 0.08819,0 0.17639,0 0.264583,-0.08819 0.264583,-0.17639 0,-0.176387 -0.176387,-0.264583 -0.44097,-0.264583 0,1.411113 0,1.411113 0,1.411113 -0.35278,0 -0.35278,0 -0.35278,0 0,-0.0882 -0.08819,-0.17639 -0.176387,-0.17639 0,-0.08819 0,-0.08819 -0.0882,-0.264583 -0.08819,0 -0.08819,0 -0.176388,-0.08819 0,-0.0882 -0.0882,-0.0882 -0.0882,-0.0882 0,-0.08819 -0.08819,-0.08819 -0.08819,-0.08819 -0.17639,-0.08819 -0.264584,-0.08819 -0.440974,-0.08819 -0.08819,-0.35278 -0.08819,-0.35278 -0.08819,-0.35278 0.08819,-0.08819 0.264583,-0.176387 0.61736,-0.352777 0,0 0.0882,-0.08819 0.17639,-0.17639 0.08819,0 0.17639,-0.08819 0.352777,-0.08819 0,-0.08819 0,-0.08819 0,-0.08819 -1.234721,0 -1.234721,0 -1.234721,0 0,-0.264583 0,-0.264583 0,-0.264583 2.557638,0 2.557638,0 2.557638,0 0,0.264583 0,0.264583 0,0.264583 z m -0.35278,0.440971 c -0.08819,0.0882 -0.176387,0.0882 -0.352777,0.176389 0,0 0,0.08819 -0.08819,0.08819 0,0.0882 -0.0882,0.0882 -0.0882,0.0882 0,0.08819 0.0882,0.08819 0.17639,0.176387 0.08819,0.0882 0.17639,0.17639 0.352777,0.35278 z"
         id="path25" /><path
         style="fill:#8b3392;fill-opacity:1;fill-rule:nonzero;stroke:none;stroke-width:0.264583"
         d="m 63.588214,36.10873 c -0.176387,0 -0.264584,0 -0.352777,-0.17639 -0.08819,-0.08819 -0.17639,-0.176387 -0.17639,-0.352777 0,-0.17639 0.0882,-0.352777 0.17639,-0.440973 0.08819,-0.08819 0.264583,-0.176387 0.352777,-0.176387 0.264583,0 0.440973,0.176387 0.529167,0.352777 0,0.08819 0,0.176389 0,0.264583 0,0.17639 0,0.264583 -0.08819,0.440973 -0.08819,0.08819 -0.264583,0.08819 -0.440973,0.08819 z m 0.440973,1.234723 c -0.440973,-0.440973 -0.79375,-0.617363 -0.97014,-0.705556 0,-0.529167 0,-0.529167 0,-0.529167 0.705557,0.440973 1.058334,0.79375 1.322917,1.058333 0,0.440974 0,0.440974 0,0.440974 z m -0.352777,-1.94028 c 0,-0.08819 -0.0882,-0.08819 -0.0882,-0.08819 -0.176387,0.08819 -0.176387,0.08819 -0.176387,0.264583 0,0 0,0.08819 0,0.17639 0.08819,0 0.176387,0 0.176387,0 0.0882,0 0.0882,0 0.0882,0 0.08819,0 0.176387,-0.0882 0.176387,-0.17639 0,-0.08819 -0.08819,-0.17639 -0.176387,-0.17639 z"
         id="path26" /><path
         style="fill:#8b3392;fill-opacity:1;fill-rule:nonzero;stroke:none;stroke-width:0.264583"
         d="m 22.665979,37.255257 0.705556,0.264583 0.264583,-0.264583 -0.705555,-0.264583 z"
         id="path27" /><path
         style="fill:#8b3392;fill-opacity:1;fill-rule:nonzero;stroke:none;stroke-width:0.264583"
         d="m 22.930563,35.31498 c 0,-0.352777 0,-0.352777 0,-0.352777 -5.468058,0 -5.468058,0 -5.468058,0 0,0.352777 0,0.352777 0,0.352777 0.97014,0 0.97014,0 0.97014,0 0,0.97014 0,0.97014 0,0.97014 0,0 0.705555,0 0.79375,0 0,0 0.176389,-0.0882 0.264583,-0.17639 0,0.08819 0,0.264583 0,0.352777 0,0.17639 -0.176389,0.352779 -0.264583,0.352779 -0.176389,0 -1.146528,0 -1.146528,0 -0.0882,0 -0.176389,-0.0882 -0.176389,-0.352779 0,-0.264584 0,-0.881944 0,-0.881944 -0.440973,0 -0.440973,0 -0.440973,0 0,0 0,1.058334 0,1.146527 0,0.0882 0.0882,0.440973 0.352778,0.440973 0.352778,0 1.499306,0 1.587501,0 0.264583,-0.08819 0.440972,-0.264583 0.440972,-0.529166 0,-0.440974 0,-1.058334 0,-1.058334 -0.352778,0 -0.352778,0 -0.352778,0 -0.08819,0.17639 0,0.264583 -0.176389,0.352777 -0.176389,0 -0.529166,0 -0.529166,0 0,-0.61736 0,-0.61736 0,-0.61736 1.411111,0 1.411111,0 1.411111,0 0,1.852083 0,1.852083 0,1.852083 0.440973,0 0.440973,0 0.440973,0 0,-1.852083 0,-1.852083 0,-1.852083 0.264583,0 0.264583,0 0.264583,0 0,1.852083 0,1.852083 0,1.852083 0,0 1.411111,0 1.5875,0 0.08819,0 0.440973,-0.08819 0.440973,-0.529166 0,-0.352777 0,-1.058334 0,-1.058334 -0.352778,0 -0.352778,0 -0.352778,0 0,0.08819 0,0.264583 -0.176389,0.264583 -0.176389,0 -1.058334,0 -1.058334,0 0,-0.529166 0,-0.529166 0,-0.529166 z m -0.617362,0.881943 c 0.08819,0 0.176389,-0.08819 0.264584,-0.176387 0,0.08819 0,0.264584 0,0.440971 0,0.17639 -0.176389,0.352779 -0.264584,0.352779 -0.08819,0 -0.970139,0 -0.970139,0 0,-0.617363 0,-0.617363 0,-0.617363 0,0 0.881945,0 0.970139,0 z"
         id="path28" /><path
         style="fill:#8b3392;fill-opacity:1;fill-rule:nonzero;stroke:none;stroke-width:0.264583"
         d="m 23.45973,36.373313 h 0.881944 V 35.844146 H 23.45973 Z"
         id="path29" /><path
         style="fill:#8b3392;fill-opacity:1;fill-rule:nonzero;stroke:none;stroke-width:0.264583"
         d="m 24.870841,34.962203 c 0,0.352777 0,0.352777 0,0.352777 1.499306,0 1.499306,0 1.499306,0 0,0.264583 0,0.264583 0,0.264583 -1.499306,0 -1.499306,0 -1.499306,0 0,0 0,0.97014 0,0.97014 0,0.352777 0.176389,0.61736 0.529167,0.61736 0.352778,0 1.322917,0 1.322917,0 0,-1.852083 0,-1.852083 0,-1.852083 0.352778,0 0.352778,0 0.352778,0 0,1.852083 0,1.852083 0,1.852083 0.440972,0 0.440972,0 0.440972,0 0,-2.20486 0,-2.20486 0,-2.20486 z m 1.499306,1.852083 c 0,0 -0.881945,0 -0.881945,0 -0.176388,0 -0.264583,-0.176389 -0.264583,-0.352779 0,-0.176387 0,-0.529167 0,-0.529167 1.146528,0 1.146528,0 1.146528,0 z"
         id="path30" /><path
         style="fill:#8b3392;fill-opacity:1;fill-rule:nonzero;stroke:none;stroke-width:0.264583"
         d="m 29.456954,35.31498 c 1.852083,0 1.852083,0 1.852083,0 0,0.264583 0,0.264583 0,0.264583 -0.08819,0 -0.440972,0 -0.529166,0 0,0.17639 -0.264584,0.264583 -0.352778,0 -0.352778,0 -0.970139,0 -0.970139,0 0,0 0,0.97014 0,1.058334 0,0.08819 0,0.440973 0.264583,0.529166 0.264584,0 0.79375,0 0.79375,0 0,-0.352777 0,-0.352777 0,-0.352777 0,0 -0.440972,0 -0.529166,0 -0.08819,-0.0882 -0.176389,-0.176389 -0.176389,-0.264583 0,-0.17639 0,-0.617363 0,-0.617363 0.529167,0 0.529167,0 0.529167,0 0,0.35278 0,0.35278 0,0.35278 0.440972,0 0.440972,0 0.440972,0 0,-0.264584 0,-0.264584 0,-0.264584 0,-0.0882 0.529166,-0.0882 0.529166,0 0,0.176387 0,1.146527 0,1.146527 0.352779,0 0.352779,0 0.352779,0 0,-1.852083 0,-1.852083 0,-1.852083 0.352777,0 0.352777,0 0.352777,0 0,1.852083 0,1.852083 0,1.852083 0.352778,0 0.352778,0 0.352778,0 0,-2.20486 0,-2.20486 0,-2.20486 -2.910417,0 -2.910417,0 -2.910417,0 z"
         id="path31" /><path
         style="fill:#8b3392;fill-opacity:1;fill-rule:nonzero;stroke:none;stroke-width:0.264583"
         d="m 28.839592,35.050396 c -0.176389,0 -0.970139,0 -0.970139,0 0,0 0,0.529167 0,0.617361 0,0.176389 0.08819,0.352779 0.440973,0.352779 0.352777,0 0.79375,0 0.79375,0 0,-0.705556 0,-0.705556 0,-0.705556 0,-0.08819 -0.08819,-0.264584 -0.264584,-0.264584 z m -0.352777,0.617361 c -0.176389,0 -0.264584,-0.08819 -0.264584,-0.176388 0,-0.0882 0.0882,-0.0882 0.264584,-0.0882 0.176388,0 0.352777,0 0.352777,0.0882 0,0.08819 -0.176389,0.176388 -0.352777,0.176388 z"
         id="path32" /><path
         style="fill:#8b3392;fill-opacity:1;fill-rule:nonzero;stroke:none;stroke-width:0.264583"
         d="m 27.869453,36.28512 v 0.352777 l 1.234723,0.529166 V 36.72609 Z"
         id="path33" /><path
         style="fill:#8b3392;fill-opacity:1;fill-rule:nonzero;stroke:none;stroke-width:0.264583"
         d="m 38.717373,35.050396 c -0.176388,0 -0.970138,0 -0.970138,0 0,0 0,0.529167 0,0.617361 0,0.176389 0.08819,0.352779 0.440971,0.352779 0.352779,0 0.79375,0 0.79375,0 0,-0.705556 0,-0.705556 0,-0.705556 0,-0.08819 -0.08819,-0.264584 -0.264583,-0.264584 z m -0.264584,0.617361 c -0.176387,0 -0.352777,-0.08819 -0.352777,-0.176388 0,-0.0882 0.17639,-0.0882 0.352777,-0.0882 0.17639,0 0.264584,0 0.264584,0.0882 0,0.08819 -0.08819,0.176388 -0.264584,0.176388 z"
         id="path34" /><path
         style="fill:#8b3392;fill-opacity:1;fill-rule:nonzero;stroke:none;stroke-width:0.264583"
         d="m 37.835429,36.28512 v 0.352777 l 1.146527,0.529166 V 36.72609 Z"
         id="path35" /><path
         style="fill:#8b3392;fill-opacity:1;fill-rule:nonzero;stroke:none;stroke-width:0.264583"
         d="m 41.18682,35.579563 c 0,-0.264583 0,-0.264583 0,-0.264583 0.79375,0 0.79375,0 0.79375,0 0,-0.352777 0,-0.352777 0,-0.352777 -2.645834,0 -2.645834,0 -2.645834,0 0,0.352777 0,0.352777 0,0.352777 1.499304,0 1.499304,0 1.499304,0 0,0.264583 0,0.264583 0,0.264583 -1.499304,0 -1.499304,0 -1.499304,0 0,0 0,0.97014 0,0.97014 0,0.352777 0.176387,0.61736 0.529166,0.61736 0.352777,0 1.322918,0 1.322918,0 0,-1.146527 0,-1.146527 0,-1.146527 0.44097,0 0.44097,0 0.44097,0 0,0 0,0 0.0882,0.08819 0,0.08819 0,0.17639 0,0.17639 -0.0882,0.08819 -0.0882,0.176387 -0.0882,0.176387 -0.08819,0 -0.176387,0 -0.176387,0 0,0.352779 0,0.352779 0,0.352779 0.264583,0 0.264583,0 0.264583,0 0.08819,0 0.264584,-0.0882 0.264584,-0.264583 0,-0.17639 0,-0.97014 0,-0.97014 z m -0.35278,1.234723 c 0,0 -0.881944,0 -0.881944,0 -0.17639,0 -0.264583,-0.176389 -0.264583,-0.352779 0,-0.176387 0,-0.529167 0,-0.529167 1.146527,0 1.146527,0 1.146527,0 0,0.0882 0,0.0882 0,0.0882 0,0 0,0 0,0 z"
         id="path36" /><path
         style="fill:#8b3392;fill-opacity:1;fill-rule:nonzero;stroke:none;stroke-width:0.264583"
         d="m 33.602094,34.962203 c 0,0.352777 0,0.352777 0,0.352777 1.587501,0 1.587501,0 1.587501,0 0,0.264583 0,0.264583 0,0.264583 -1.587501,0 -1.587501,0 -1.587501,0 0,0 0,0.97014 0,0.97014 0.08819,0.352777 0.264583,0.61736 0.529167,0.61736 0.352777,0 1.411111,0 1.411111,0 0,-1.852083 0,-1.852083 0,-1.852083 0.440973,0 0.440973,0 0.440973,0 -0.17639,0.352777 -0.17639,0.352777 -0.17639,0.352777 0,0.264583 0,0.264583 0,0.264583 0,0 0.264583,0 0.35278,0 0.176387,0 0.176387,0.17639 0.176387,0.440973 0,0.17639 0,0.352777 -0.176387,0.352777 -0.0882,0 -0.264584,0 -0.264584,0 0,0.35278 0,0.35278 0,0.35278 0,0 0.176387,0 0.264584,0 0.08819,0 0.529166,0.08819 0.61736,-0.35278 0,-0.79375 0.08819,-1.058333 -0.529167,-1.058333 0.08819,-0.352777 0.08819,-0.352777 0.08819,-0.352777 0.617363,0 0.617363,0 0.617363,0 0,1.852083 0,1.852083 0,1.852083 0.44097,0 0.44097,0 0.44097,0 0,-2.20486 0,-2.20486 0,-2.20486 z m 1.587501,1.852083 c 0,0 -0.881944,0 -0.970141,0 -0.08819,0 -0.176387,-0.176389 -0.176387,-0.352779 0,-0.176387 0,-0.529167 0,-0.529167 1.146528,0 1.146528,0 1.146528,0 z"
         id="path37" /></g></g></svg>
